# File exported by Houdini 21.0.440 (www.sidefx.com)
# 1466 points
# 2928 vertices
# 732 primitives
# Bounds: [-42.9835205, 0, -2.20638704] to [26.6382065, 0, 352.683655]
g 
v -4.61942434 0 1.99170351
v 4.45669985 0 -2.20638704
v -4.41781425 0 2.42757726
v 4.66485357 0 -1.7563659
v -4.21723843 0 2.86478782
v 4.87959623 0 -1.28827572
v -4.00661182 0 3.32839656
v 5.101264 0 -0.800363719
v -3.78693461 0 3.81406832
v 5.32523346 0 -0.305202812
v -3.57159519 0 4.2906847
v 5.54294205 0 0.176656961
v -3.3596077 0 4.76079559
v 5.76088095 0 0.659965217
v -3.14583993 0 5.23760748
v 5.98390913 0 1.15743303
v -2.92790508 0 5.72680521
v 6.20900154 0 1.66269791
v -2.70992136 0 6.21763945
v 6.42887211 0 2.15778017
v -2.49784255 0 6.69488525
v 6.64031172 0 2.63358784
v -2.28996158 0 7.16257477
v 6.85140753 0 3.10851026
v -2.08266616 0 7.63105345
v 7.06852627 0 3.59918833
v -1.87174511 0 8.11185741
v 7.29099846 0 4.10632467
v -1.65595567 0 8.60721207
v 7.51365757 0 4.61744785
v -1.43909967 0 9.10620403
v 7.73037386 0 5.11611938
v -1.22815478 0 9.59034443
v 7.9384222 0 5.59361219
v -1.02299786 0 10.0605507
v 8.14434433 0 6.06557083
v -0.820866942 0 10.5249472
v 8.35386562 0 6.54694843
v -0.617487669 0 10.9958296
v 8.56792355 0 7.0425539
v -0.40963918 0 11.4804792
v 8.78454113 0 7.54765034
v -0.197543994 0 11.9776068
v 9.00109291 0 8.05522442
v 0.0152460271 0 12.4769068
v 9.21490955 0 8.5569334
v 0.223710239 0 12.9662342
v 9.42372131 0 9.04707527
v 0.426674396 0 13.4427109
v 9.62862587 0 9.5281105
v 0.626414299 0 13.9128513
v 9.83300591 0 10.0091705
v 0.825856626 0 14.38416
v 10.0391188 0 10.4962416
v 1.0270294 0 14.8622131
v 10.2476559 0 10.9917946
v 1.2310282 0 15.3494358
v 10.4580193 0 11.4942207
v 1.43741107 0 15.8444271
v 10.6690178 0 12.0002823
v 1.64433897 0 16.3419933
v 10.8789387 0 12.505043
v 1.84880686 0 16.8345509
v 11.085824 0 13.0034246
v 2.04864073 0 17.3167744
v 11.2885628 0 13.4926596
v 2.24529314 0 17.7925434
v 11.4892988 0 13.9783058
v 2.44081545 0 18.2672272
v 11.6900835 0 14.4657669
v 2.63674402 0 18.7449818
v 11.8919716 0 14.9580517
v 2.83395815 0 19.2280769
v 12.0951395 0 15.4557343
v 3.03265905 0 19.7169743
v 12.2992954 0 15.9580526
v 3.23243308 0 20.2104206
v 12.5038023 0 16.4631901
v 3.43218684 0 20.7054844
v 12.7076616 0 16.9684277
v 3.63027859 0 21.1978798
v 12.9094915 0 17.4701157
v 3.82510066 0 21.6835213
v 13.1082354 0 17.9655342
v 4.01738596 0 22.1644077
v 13.3050442 0 18.4577312
v 4.2083621 0 22.6438408
v 13.5013227 0 18.9504738
v 4.39910698 0 23.1248684
v 13.6977501 0 19.4458332
v 4.59022284 0 23.6089878
v 13.894516 0 19.9442654
v 4.78186178 0 24.0966434
v 14.0915632 0 20.4456844
v 4.97381449 0 24.5871239
v 14.2887573 0 20.9495583
v 5.16564131 0 25.0794163
v 14.4857426 0 21.4550877
v 5.35676336 0 25.5718937
v 14.6818581 0 21.9604321
v 5.54636717 0 26.0624771
v 14.8763428 0 22.4636459
v 5.73390579 0 26.5496292
v 15.0688686 0 22.9637489
v 5.91980267 0 27.0346203
v 15.2601671 0 23.4628353
v 6.10466814 0 27.519186
v 15.4508619 0 23.9626789
v 6.28896904 0 28.0047607
v 15.6411743 0 24.4640923
v 6.47296953 0 28.4920082
v 15.8310823 0 24.9669838
v 6.65666008 0 28.9808979
v 16.0205364 0 25.4712124
v 6.83987141 0 29.4709072
v 16.2095089 0 25.9766293
v 7.02238178 0 29.9615536
v 16.3979111 0 26.4831181
v 7.20402479 0 30.4524212
v 16.5855522 0 26.9901943
v 7.38460779 0 30.9430695
v 16.7722034 0 27.4973259
v 7.56400156 0 31.4331398
v 16.9577217 0 28.0041313
v 7.74220943 0 31.9227104
v 17.1422558 0 28.5110779
v 7.91928482 0 32.4120483
v 17.3258896 0 29.0185432
v 8.09527874 0 32.9013977
v 17.5085964 0 29.526556
v 8.27023602 0 33.3909454
v 17.6902294 0 30.0347843
v 8.44413757 0 33.8805656
v 17.8706932 0 30.542881
v 8.61687946 0 34.369957
v 18.0500107 0 31.0509014
v 8.78837299 0 34.8589211
v 18.2283478 0 31.5593777
v 8.95872974 0 35.3479881
v 18.4059238 0 32.0691719
v 9.12828159 0 35.838295
v 18.5829849 0 32.581192
v 9.29733849 0 36.3309097
v 18.7596397 0 33.0959473
v 9.46554565 0 36.8247986
v 18.9354763 0 33.612236
v 9.63243961 0 37.3187141
v 19.1100769 0 34.1289558
v 9.79768372 0 37.8116684
v 19.2831345 0 34.6452179
v 9.96111774 0 38.303299
v 19.4543972 0 35.1604004
v 10.1226759 0 38.7933121
v 19.6237354 0 35.6740112
v 10.2823057 0 39.2815933
v 19.7912464 0 36.1864014
v 10.440074 0 39.7684021
v 19.9573002 0 36.6987762
v 10.5963659 0 40.2553215
v 20.1224785 0 37.2133827
v 10.7519646 0 40.7451286
v 20.2874298 0 37.7326317
v 10.9074268 0 41.2399445
v 20.4524193 0 38.2577744
v 11.0620174 0 41.7375221
v 20.6165085 0 38.785923
v 11.2148399 0 42.2350578
v 20.7787743 0 39.3141975
v 11.3652658 0 42.7304535
v 20.9386082 0 39.8405762
v 11.5129509 0 43.2225914
v 21.0956993 0 40.3640633
v 11.6577415 0 43.7109032
v 21.2500496 0 40.8846092
v 11.799675 0 44.1956978
v 21.4019852 0 41.4035683
v 11.9391603 0 44.6787033
v 21.5521946 0 41.9237137
v 12.0771189 0 45.1637993
v 21.7015972 0 42.4490471
v 12.2146463 0 45.6554184
v 21.8509979 0 42.9831085
v 12.3514919 0 46.1532364
v 21.9998379 0 43.524559
v 12.4864006 0 46.6528816
v 22.1466713 0 44.0683708
v 12.6182356 0 47.1502304
v 22.2903194 0 44.6102829
v 12.746233 0 47.6422653
v 22.4301701 0 45.1478806
v 12.8699799 0 48.1275063
v 22.5661201 0 45.6809731
v 12.9895868 0 48.6066589
v 22.6984501 0 46.2110977
v 13.1059942 0 49.0840111
v 22.8277397 0 46.7412758
v 13.2211752 0 49.5677567
v 22.9548626 0 47.275177
v 13.3374004 0 50.066658
v 23.0808887 0 47.8161469
v 13.4548903 0 50.5797386
v 23.205883 0 48.3620033
v 13.5723248 0 51.0996208
v 23.3292713 0 48.9082451
v 13.6883869 0 51.6193619
v 23.4506359 0 49.4517288
v 13.8022223 0 52.1349716
v 23.5698452 0 49.9916763
v 13.9134169 0 52.6448517
v 23.6869335 0 50.5285797
v 14.0219517 0 53.1497078
v 23.8018322 0 51.0630379
v 14.1280346 0 53.6506996
v 23.9143391 0 51.5943718
v 14.2318754 0 54.1487312
v 24.0242405 0 52.1214714
v 14.3335285 0 54.64328
v 24.1315136 0 52.6433563
v 14.4329491 0 55.1338005
v 24.2364464 0 53.1610756
v 14.5302696 0 55.6209641
v 24.3396797 0 53.6778336
v 14.6261492 0 56.109127
v 24.4421005 0 54.1993065
v 14.7218246 0 56.6055756
v 24.5446892 0 54.7316284
v 14.8181849 0 57.1158791
v 24.6478691 0 55.2780418
v 14.9141712 0 57.6344185
v 24.7503185 0 55.8315086
v 15.0085239 0 58.1543236
v 24.8508472 0 56.3854332
v 15.1003475 0 58.6702881
v 24.9488773 0 56.9362793
v 15.1891899 0 59.1803703
v 25.0442085 0 57.4836159
v 15.2749968 0 59.6846085
v 25.136734 0 58.0273361
v 15.3579388 0 60.1844635
v 25.2262936 0 58.56707
v 15.4381914 0 60.6802673
v 25.3128147 0 59.1016083
v 15.5158043 0 61.1718636
v 25.3964424 0 59.6312981
v 15.5908461 0 61.6592865
v 25.4775963 0 60.1584167
v 15.6636591 0 62.1458206
v 25.556879 0 60.6881866
v 15.7350664 0 62.6382179
v 25.6349792 0 61.2267265
v 15.8058548 0 63.143364
v 25.7123833 0 61.7790833
v 15.8754416 0 63.6576881
v 25.7883301 0 62.3404274
v 15.9428215 0 64.174118
v 25.8618698 0 62.9040604
v 16.0072632 0 64.6871414
v 25.9323921 0 63.465477
v 16.0684109 0 65.1943207
v 25.9996014 0 64.022934
v 16.1262035 0 65.6953812
v 26.0633602 0 64.575737
v 16.1807137 0 66.1908798
v 26.1236191 0 65.1235123
v 16.2320442 0 66.6811752
v 26.1804504 0 65.6663437
v 16.2802963 0 67.1669693
v 26.2340584 0 66.2060471
v 16.3256836 0 67.6511002
v 26.2847519 0 66.7467728
v 16.3685932 0 68.1394882
v 26.3328762 0 67.2945175
v 16.4093895 0 68.638588
v 26.3786621 0 67.8546371
v 16.4477501 0 69.1464386
v 26.4217033 0 68.4244843
v 16.4830589 0 69.6564331
v 26.4613914 0 68.9977112
v 16.5148754 0 70.1630936
v 26.4972782 0 69.5692062
v 16.5430088 0 70.6637573
v 26.5291462 0 70.136322
v 16.5674248 0 71.1575851
v 26.5569191 0 70.6980209
v 16.5881691 0 71.6449051
v 26.5806084 0 71.2545242
v 16.6053085 0 72.1267548
v 26.6002693 0 71.8072968
v 16.6188965 0 72.6059647
v 26.6159363 0 72.3598099
v 16.6289616 0 73.0877304
v 26.6275806 0 72.9171829
v 16.6354446 0 73.5779648
v 26.6350861 0 73.4848251
v 16.6381378 0 74.0762711
v 26.6382065 0 74.0622025
v 16.6368408 0 74.5765686
v 26.6366997 0 74.6436462
v 16.6314621 0 75.0733643
v 26.6304207 0 75.2238617
v 16.6220093 0 75.5637054
v 26.6193161 0 75.7997589
v 16.6085148 0 76.0466003
v 26.6033802 0 76.3700714
v 16.5909977 0 76.5228043
v 26.5825787 0 76.9355698
v 16.5693741 0 76.9945221
v 26.5567665 0 77.498642
v 16.5433826 0 77.4661331
v 26.5256329 0 78.0635605
v 16.5125771 0 77.9430923
v 26.4887047 0 78.6353073
v 16.4766045 0 78.4279556
v 26.4455872 0 79.2164993
v 16.4356709 0 78.9151917
v 26.396349 0 79.8025665
v 16.3900986 0 79.3991318
v 26.3411636 0 80.3886032
v 16.340126 0 79.8764114
v 26.2801933 0 80.9709091
v 16.285841 0 80.3463211
v 26.213522 0 81.5480423
v 16.2271423 0 80.8100586
v 26.1410789 0 82.1203461
v 16.1636982 0 81.2705841
v 26.0625401 0 82.6904602
v 16.0948906 0 81.7319946
v 25.9772644 0 83.2622986
v 16.0200024 0 82.1983337
v 25.8845005 0 83.8399506
v 15.9390488 0 82.6682968
v 25.7840538 0 84.4230728
v 15.8526955 0 83.137001
v 25.6762848 0 85.0080185
v 15.7615175 0 83.6005325
v 25.5615826 0 85.5911484
v 15.6657429 0 84.0575638
v 25.4402714 0 86.1700363
v 15.5652485 0 84.5088196
v 25.3124676 0 86.743927
v 15.459609 0 84.9565735
v 25.1779728 0 87.3139801
v 15.3481436 0 85.4038086
v 25.036171 0 87.8829346
v 15.2301254 0 85.8532639
v 24.8862114 0 88.4540329
v 15.1055565 0 86.3044052
v 24.7277412 0 89.0279465
v 14.9752169 0 86.7538528
v 24.5611649 0 89.6023483
v 14.8397598 0 87.1989441
v 24.3869972 0 90.1746368
v 14.6993628 0 87.6389771
v 24.2057152 0 90.7428131
v 14.5537968 0 88.0748367
v 24.017622 0 91.3060074
v 14.402648 0 88.5080414
v 23.8226433 0 91.8648376
v 14.2454081 0 88.9402313
v 23.6202831 0 92.4210358
v 14.0816603 0 89.3725204
v 23.4098682 0 92.9765244
v 13.9116745 0 89.8040009
v 23.1913185 0 93.5312805
v 13.7359829 0 90.2331314
v 22.9650097 0 94.084053
v 13.5548401 0 90.6591949
v 22.7314529 0 94.6333923
v 13.3682299 0 91.0822983
v 22.4910946 0 95.1783676
v 13.1760426 0 91.502861
v 22.2442112 0 95.7186203
v 12.9782219 0 91.9212112
v 21.9908524 0 96.2544174
v 12.7748127 0 92.3373718
v 21.7308903 0 96.7862854
v 12.565814 0 92.7514191
v 21.4642372 0 97.3145447
v 12.3511257 0 93.1635818
v 21.1909962 0 97.839119
v 12.1305847 0 93.5742722
v 20.911377 0 98.3598251
v 11.9040956 0 93.9837952
v 20.6255684 0 98.8766022
v 11.6717978 0 94.3920441
v 20.3337269 0 99.3894958
v 11.4340887 0 94.7984314
v 20.0360909 0 99.8983307
v 11.1916409 0 95.2019196
v 19.7331009 0 100.402588
v 10.9450521 0 95.6016235
v 19.4253941 0 100.901352
v 10.6940651 0 95.9981232
v 19.1132927 0 101.394394
v 10.4376068 0 96.3933182
v 18.7966995 0 101.882256
v 10.1749411 0 96.7886581
v 18.4753494 0 102.365929
v 9.90601063 0 97.184433
v 18.14888 0 102.846375
v 9.63148499 0 97.5798187
v 17.817091 0 103.324234
v 9.35246754 0 97.9732056
v 17.4803886 0 103.79895
v 9.070364 0 98.3626862
v 17.1399822 0 104.268936
v 8.78609085 0 98.7470627
v 16.797493 0 104.732018
v 8.49841309 0 99.1282959
v 16.4530373 0 105.188507
v 8.20539284 0 99.5092621
v 16.105999 0 105.639694
v 7.90601492 0 99.891716
v 15.7555056 0 106.087456
v 7.60052013 0 100.275551
v 15.4005709 0 106.533409
v 7.29003859 0 100.659477
v 15.0407381 0 106.978355
v 6.97612381 0 101.041428
v 14.6767025 0 107.421295
v 6.66053009 0 101.419312
v 14.3105564 0 107.859711
v 6.34452677 0 101.791679
v 13.9447689 0 108.290733
v 6.02647066 0 102.160812
v 13.5792828 0 108.71492
v 5.70400858 0 102.529785
v 13.2127924 0 109.134262
v 5.37580824 0 102.900543
v 12.8438978 0 109.550995
v 5.04188442 0 103.273285
v 12.4712687 0 109.966949
v 4.70318747 0 103.647079
v 12.0940266 0 110.38327
v 4.36141205 0 104.019882
v 11.7118206 0 110.800186
v 4.01900291 0 104.388802
v 11.3248358 0 111.217125
v 3.67853427 0 104.750549
v 10.9336605 0 111.632751
v 3.34007764 0 105.104553
v 10.539113 0 112.045425
v 3.00103879 0 105.453262
v 10.1416845 0 112.454193
v 2.65911388 0 105.79911
v 9.74168491 0 112.858772
v 2.31340337 0 106.143127
v 9.33888245 0 113.259598
v 1.96382928 0 106.485497
v 8.93298912 0 113.657127
v 1.61039603 0 106.826279
v 8.52403641 0 114.051437
v 1.25301182 0 107.165657
v 8.11237526 0 114.44236
v 0.891682863 0 107.503754
v 7.69837236 0 114.829758
v 0.526812136 0 107.84037
v 7.28220177 0 115.213692
v 0.159111306 0 108.174934
v 6.86405134 0 115.594154
v -0.210705772 0 108.506882
v 6.44448805 0 115.970764
v -0.582311511 0 108.836029
v 6.02432489 0 116.342911
v -0.956378996 0 109.163132
v 5.60351515 0 116.710892
v -1.33341646 0 109.488823
v 5.18167448 0 117.075279
v -1.713462 0 109.813293
v 4.75832844 0 117.436722
v -2.09636402 0 110.136505
v 4.33317089 0 117.795609
v -2.48197317 0 110.458427
v 3.90613365 0 118.152107
v -2.87039447 0 110.779182
v 3.47749567 0 118.506081
v -3.261693 0 111.098984
v 3.04756641 0 118.857452
v -3.65569735 0 111.417793
v 2.61649013 0 119.206261
v -4.05202246 0 111.735443
v 2.18436122 0 119.552612
v -4.45018816 0 112.05162
v 1.75139177 0 119.896423
v -4.84987783 0 112.36618
v 1.31807101 0 120.237442
v -5.25105524 0 112.679184
v 0.884649694 0 120.575607
v -5.65410852 0 112.991081
v 0.451094002 0 120.91111
v -6.05921984 0 113.302162
v 0.0172014534 0 121.244286
v -6.46629381 0 113.612473
v -0.41727072 0 121.575485
v -6.87519979 0 113.922005
v -0.85240972 0 121.904884
v -7.28586054 0 114.230804
v -1.28812337 0 122.232513
v -7.69818926 0 114.538887
v -1.72429037 0 122.558403
v -8.1121664 0 114.846336
v -2.16072464 0 122.88253
v -8.52778149 0 115.153259
v -2.59729838 0 123.204941
v -8.94498444 0 115.459747
v -3.03399396 0 123.525742
v -9.36380386 0 115.765923
v -3.47080779 0 123.84507
v -9.7841835 0 116.071861
v -3.90780377 0 124.163109
v -10.205924 0 116.377518
v -4.34493017 0 124.479919
v -10.6288662 0 116.682877
v -4.78197908 0 124.795456
v -11.0529318 0 116.987976
v -5.21871138 0 125.109665
v -11.4780741 0 117.2929
v -5.65489864 0 125.422523
v -11.9041386 0 117.597687
v -6.09044886 0 125.734085
v -12.3308191 0 117.902214
v -6.52542067 0 126.044533
v -12.7579041 0 118.206413
v -6.95983505 0 126.353951
v -13.1854868 0 118.510422
v -7.39354467 0 126.662323
v -13.6139669 0 118.814644
v -7.82640982 0 126.969658
v -14.0438175 0 119.119576
v -8.25865364 0 127.276283
v -14.4755611 0 119.425735
v -8.69085503 0 127.582764
v -14.9092636 0 119.733322
v -9.12364769 0 127.889709
v -15.3440151 0 120.041756
v -9.55662727 0 128.196884
v -15.7791567 0 120.350655
v -9.98903179 0 128.503845
v -16.2144794 0 120.659935
v -10.4200983 0 128.810104
v -16.6499882 0 120.969772
v -10.8492336 0 129.115402
v -17.085289 0 121.280067
v -11.2764521 0 129.419937
v -17.5198765 0 121.590553
v -11.7020302 0 129.723984
v -17.95368 0 121.901222
v -12.1259947 0 130.027603
v -18.3872204 0 122.212547
v -12.5481682 0 130.330765
v -18.8214302 0 122.52536
v -12.9686632 0 130.633698
v -19.2574253 0 122.840683
v -13.3882351 0 130.937149
v -19.6958618 0 123.159248
v -13.8082237 0 131.24231
v -20.1358395 0 123.480515
v -14.2288542 0 131.549454
v -20.575985 0 123.803558
v -14.6489973 0 131.857803
v -21.0155201 0 124.127861
v -15.0673466 0 132.166489
v -21.4543228 0 124.453484
v -15.4827166 0 132.474716
v -21.8920479 0 124.780411
v -15.8947449 0 132.782455
v -22.3279915 0 125.108269
v -16.303772 0 133.090057
v -22.7619438 0 125.436958
v -16.7099571 0 133.39772
v -23.1943417 0 125.766891
v -17.1132679 0 133.70546
v -23.6264553 0 126.099197
v -17.5136814 0 134.013382
v -24.0598164 0 126.435379
v -17.9119892 0 134.322372
v -24.4955521 0 126.776657
v -18.3099556 0 134.634079
v -24.933197 0 127.12294
v -18.7084923 0 134.949417
v -25.3706493 0 127.472664
v -19.1063786 0 135.267502
v -25.8066387 0 127.824883
v -19.5017338 0 135.586899
v -26.2408047 0 128.179474
v -19.8929043 0 135.906372
v -26.6725769 0 128.53627
v -20.2793884 0 136.225754
v -27.1013737 0 128.894958
v -20.6613026 0 136.545227
v -27.5268917 0 129.255447
v -21.0389385 0 136.865128
v -27.9497166 0 129.618256
v -21.4123211 0 137.185516
v -28.371479 0 129.985092
v -21.7813759 0 137.506516
v -28.7937984 0 130.357834
v -22.1472569 0 137.829453
v -29.21772 0 130.737915
v -22.5120277 0 138.156494
v -29.6422787 0 131.124817
v -22.8763218 0 138.488464
v -30.0653572 0 131.516754
v -23.2384262 0 138.823944
v -30.4855881 0 131.912704
v -23.5962715 0 139.161087
v -30.9023323 0 132.312271
v -23.9483833 0 139.498703
v -31.31493 0 132.71521
v -24.2943382 0 139.836548
v -31.7228642 0 133.121185
v -24.6342754 0 140.174866
v -32.1261673 0 133.530457
v -24.9683037 0 140.513824
v -32.525795 0 133.944183
v -25.2963486 0 140.853455
v -32.9232178 0 134.364471
v -25.6188145 0 141.194458
v -33.3198013 0 134.793396
v -25.9372368 0 141.538849
v -33.7157974 0 135.231964
v -26.2535915 0 141.889221
v -34.1090431 0 135.678101
v -26.5667343 0 142.244476
v -34.4977798 0 136.130173
v -26.8747349 0 142.602676
v -34.8810539 0 136.587341
v -27.1761189 0 142.962158
v -35.2584038 0 137.049515
v -27.4700565 0 143.322159
v -35.629528 0 137.516678
v -27.7563496 0 143.682541
v -35.9941444 0 137.988983
v -28.0352135 0 144.043762
v -36.3524628 0 138.46698
v -28.3068295 0 144.406097
v -36.7050934 0 138.952118
v -28.5714111 0 144.770111
v -37.0525856 0 139.445816
v -28.8297234 0 145.1371
v -37.3950424 0 139.949036
v -29.0826626 0 145.508789
v -37.7312508 0 140.460541
v -29.3297386 0 145.884674
v -38.0600548 0 140.979111
v -29.5700092 0 146.263626
v -38.3808136 0 141.504135
v -29.8026714 0 146.644455
v -38.6932945 0 142.035889
v -30.0271397 0 147.026428
v -38.9971542 0 142.574448
v -30.2433529 0 147.409653
v -39.2919464 0 143.119736
v -30.4514713 0 147.794601
v -39.5771141 0 143.671204
v -30.6517467 0 148.181915
v -39.8522491 0 144.228424
v -30.8441315 0 148.571533
v -40.1170235 0 144.791046
v -31.0283012 0 148.962891
v -40.3711929 0 145.358994
v -31.2039413 0 149.355362
v -40.6146355 0 145.932541
v -31.3713112 0 149.74968
v -40.847332 0 146.512009
v -31.5306454 0 150.146469
v -41.0692787 0 147.098053
v -31.682003 0 150.546112
v -41.2804489 0 147.691254
v -31.825325 0 150.94873
v -41.4805984 0 148.292068
v -31.9606113 0 151.354813
v -41.6691589 0 148.899582
v -32.0879669 0 151.765152
v -41.845356 0 149.511688
v -32.2073936 0 152.180023
v -42.0084724 0 150.125092
v -32.3184166 0 152.597534
v -42.1579704 0 150.736679
v -32.4201164 0 153.013596
v -42.2936668 0 151.344498
v -32.5118904 0 153.424667
v -42.416378 0 151.95166
v -32.5946236 0 153.834015
v -42.5268097 0 152.560974
v -32.6692276 0 154.245667
v -42.6253815 0 153.174744
v -32.7361221 0 154.66217
v -42.712265 0 153.794266
v -32.7953339 0 155.084366
v -42.787384 0 154.42041
v -32.8467178 0 155.512726
v -42.8504906 0 155.052628
v -32.8901482 0 155.947769
v -42.9013443 0 155.688812
v -32.9254608 0 156.389526
v -42.9398384 0 156.324448
v -32.9524574 0 156.835281
v -42.9660988 0 156.953491
v -32.9709587 0 157.278534
v -42.9804649 0 157.569931
v -32.9810524 0 157.711716
v -42.9835205 0 158.174683
v -32.9832001 0 158.135895
v -42.9758492 0 158.773407
v -32.9777794 0 158.558655
v -42.9578209 0 159.371506
v -32.9648933 0 158.98616
v -42.9295731 0 159.972672
v -32.9444809 0 159.420609
v -42.8910179 0 160.578934
v -32.9164391 0 159.861526
v -42.8419075 0 161.190811
v -32.8806343 0 160.307632
v -42.7819939 0 161.807983
v -32.8368416 0 160.758759
v -42.7112312 0 162.429047
v -32.7847099 0 161.216278
v -42.630085 0 163.051224
v -32.7238274 0 161.68306
v -42.5400238 0 163.668854
v -32.6538315 0 162.163147
v -42.4439392 0 164.27388
v -32.5748138 0 162.66069
v -42.3453255 0 164.860489
v -32.4882698 0 163.175491
v -42.2462425 0 165.430634
v -32.3968391 0 163.70163
v -42.1470642 0 165.990005
v -32.3028488 0 164.231705
v -42.0475159 0 166.543304
v -32.2076416 0 164.760895
v -41.9472313 0 167.093216
v -32.1117287 0 165.286819
v -41.8459549 0 167.640793
v -32.0151825 0 165.808823
v -41.743576 0 168.186081
v -31.9179058 0 166.32695
v -41.6401138 0 168.728699
v -31.8197727 0 166.841614
v -41.5356216 0 169.268295
v -31.7207127 0 167.353165
v -41.4301453 0 169.804779
v -31.6207199 0 167.861755
v -41.3236961 0 170.338226
v -31.5198383 0 168.367279
v -41.2162552 0 170.868729
v -31.4180889 0 168.869705
v -41.1078377 0 171.396255
v -31.3154488 0 169.369125
v -40.9985161 0 171.920578
v -31.2118645 0 169.865921
v -40.8883553 0 172.441711
v -31.1073742 0 170.360229
v -40.7773514 0 172.959854
v -31.002142 0 170.851425
v -40.6654549 0 173.475143
v -30.8964176 0 171.338303
v -40.5525818 0 173.987457
v -30.7902508 0 171.82016
v -40.4386177 0 174.496933
v -30.6832447 0 172.298538
v -40.3230896 0 175.005829
v -30.5744247 0 172.777893
v -40.2047882 0 175.520065
v -30.4623661 0 173.264969
v -40.081974 0 176.047424
v -30.3456154 0 173.766296
v -39.9541359 0 176.589813
v -30.2242718 0 174.281128
v -39.8225212 0 177.140823
v -30.10005 0 174.801193
v -39.6885452 0 177.693466
v -29.9742661 0 175.320053
v -39.5532761 0 178.242844
v -29.847456 0 175.835068
v -39.4172974 0 178.786911
v -29.7196865 0 176.346298
v -39.2807236 0 179.325851
v -29.5909424 0 176.854324
v -39.1433563 0 179.860947
v -29.4613266 0 177.359238
v -39.0049438 0 180.393173
v -29.3309555 0 177.86055
v -38.8654175 0 180.922607
v -29.1998119 0 178.358185
v -38.7248383 0 181.448944
v -29.0678253 0 178.852325
v -38.5833702 0 181.971603
v -28.9348488 0 179.343613
v -38.4411278 0 182.490585
v -28.80089 0 179.832382
v -38.2981262 0 183.006088
v -28.666132 0 180.318161
v -38.1542168 0 183.518738
v -28.5309429 0 180.799744
v -38.0092888 0 184.028381
v -28.3955441 0 181.275879
v -37.8633118 0 184.534805
v -28.259613 0 181.747452
v -37.716011 0 185.038864
v -28.1221676 0 182.217789
v -37.5663414 0 185.544724
v -27.9815712 0 182.692978
v -37.412281 0 186.059647
v -27.8359623 0 183.179672
v -37.252079 0 186.5896
v -27.684515 0 183.680664
v -37.0869904 0 187.129471
v -27.5293579 0 184.188065
v -36.9188004 0 187.672516
v -27.372406 0 184.694794
v -36.7490311 0 188.212967
v -27.2144718 0 185.197586
v -36.5786667 0 188.748032
v -27.0556011 0 185.696548
v -36.4079895 0 189.277328
v -26.8957653 0 186.192215
v -36.2367668 0 189.802231
v -26.7350979 0 186.684769
v -36.0645828 0 190.324005
v -26.5737991 0 187.173553
v -35.8913994 0 190.842667
v -26.4117851 0 187.658768
v -35.7174034 0 191.357697
v -26.2488956 0 188.14093
v -35.5427971 0 191.86879
v -26.0851173 0 188.620316
v -35.3674774 0 192.376511
v -25.9208469 0 189.096024
v -35.1912422 0 192.881149
v -25.7564945 0 189.566666
v -35.0140266 0 193.382614
v -25.592001 0 190.03212
v -34.8357582 0 193.880844
v -25.426506 0 190.494644
v -34.6557579 0 194.378143
v -25.2584133 0 190.959045
v -34.4722137 0 194.88002
v -25.0856838 0 191.431351
v -34.2827148 0 195.393433
v -24.9068279 0 191.915924
v -34.0874443 0 195.917358
v -24.7232304 0 192.408539
v -33.8882027 0 196.446259
v -24.5372143 0 192.902344
v -33.6868286 0 196.974426
v -24.3501091 0 193.393066
v -33.4847412 0 197.498123
v -24.1622162 0 193.87999
v -33.2825737 0 198.016068
v -23.9734669 0 194.363541
v -33.080265 0 198.529022
v -23.7839394 0 194.844116
v -32.8775177 0 199.037949
v -23.5937214 0 195.321579
v -32.6741943 0 199.543442
v -23.4028797 0 195.796036
v -32.4703255 0 200.04538
v -23.2114735 0 196.267303
v -32.265873 0 200.544113
v -23.0198555 0 196.734726
v -32.0606842 0 201.039673
v -22.8283806 0 197.197144
v -31.8547707 0 201.531876
v -22.636898 0 197.654861
v -31.6480751 0 202.020691
v -22.4443703 0 198.110168
v -31.4398632 0 202.508392
v -22.2489948 0 198.56781
v -31.2280483 0 203.00032
v -22.0486927 0 199.033005
v -31.0101395 0 203.502625
v -21.8421249 0 199.509155
v -30.7868557 0 204.013153
v -21.6314068 0 199.990967
v -30.5601616 0 204.526855
v -21.4189072 0 200.472504
v -30.3319454 0 205.038834
v -21.2057629 0 200.950668
v -30.1035786 0 205.546127
v -20.9920788 0 201.425339
v -29.8757172 0 206.047623
v -20.7776184 0 201.897354
v -29.6483574 0 206.544067
v -20.5623817 0 202.36731
v -29.4210205 0 207.036774
v -20.3467484 0 202.834656
v -29.1934223 0 207.526489
v -20.1310749 0 203.298706
v -28.9653625 0 208.013489
v -19.9157448 0 203.758545
v -28.7369232 0 208.497391
v -19.7007599 0 204.213943
v -28.5082092 0 208.97789
v -19.485569 0 204.666031
v -28.2790318 0 209.455551
v -19.268816 0 205.117783
v -28.0481606 0 209.933487
v -19.0487061 0 205.573441
v -27.8133736 0 210.416687
v -18.8235588 0 206.036804
v -27.5733776 0 210.907959
v -18.5933361 0 206.508087
v -27.3294983 0 211.404251
v -18.360527 0 206.981827
v -27.0836525 0 211.901154
v -18.1269379 0 207.453979
v -26.8375149 0 212.395111
v -17.8931332 0 207.923187
v -26.5922451 0 212.884048
v -17.6588917 0 208.390121
v -26.3482342 0 213.367767
v -17.4240818 0 208.855591
v -26.1051311 0 213.847473
v -17.189085 0 209.319305
v -25.8623276 0 214.324524
v -16.9545517 0 209.780121
v -25.619503 0 214.799377
v -16.72089 0 210.237061
v -25.3768311 0 215.271469
v -16.4878159 0 210.690475
v -25.134573 0 215.740356
v -16.2543507 0 211.142334
v -24.8922844 0 216.207291
v -16.0190926 0 211.595718
v -24.6484184 0 216.675766
v -15.7804451 0 212.054184
v -24.4009247 0 217.150101
v -15.5373497 0 212.520096
v -24.1500034 0 217.629913
v -15.2912426 0 212.990692
v -23.8971348 0 218.112106
v -15.0441847 0 213.461807
v -23.6440239 0 218.59317
v -14.7971544 0 213.931305
v -23.3920746 0 219.070572
v -14.5501509 0 214.399338
v -23.1419411 0 219.543533
v -14.3030891 0 214.866501
v -22.8935318 0 220.012741
v -14.0562239 0 215.332779
v -22.6462727 0 220.479523
v -13.8101978 0 215.797241
v -22.3997669 0 220.944534
v -13.5654097 0 216.259018
v -22.1541328 0 221.40744
v -13.3215952 0 216.718475
v -21.9096584 0 221.867752
v -13.0778065 0 217.177505
v -21.6659889 0 222.326614
v -12.8328333 0 217.63884
v -21.421751 0 222.787109
v -12.5854826 0 218.105194
v -21.1752987 0 223.252716
v -12.3351812 0 218.578064
v -20.9273205 0 223.722122
v -12.0835581 0 219.054367
v -20.6791687 0 224.192703
v -11.8320999 0 219.531235
v -20.4321957 0 224.661819
v -11.5813313 0 220.007553
v -20.1873264 0 225.128021
v -11.3312693 0 220.483643
v -19.9449062 0 225.590988
v -11.0819178 0 220.959854
v -19.7046471 0 226.051758
v -10.8336821 0 221.435913
v -19.4661274 0 226.511139
v -10.586977 0 221.911041
v -19.2293148 0 226.969254
v -10.3417749 0 222.385391
v -18.9943333 0 227.425873
v -10.0976334 0 222.859833
v -18.7611523 0 227.881439
v -9.85383415 0 223.336121
v -18.5291443 0 228.337494
v -9.60967922 0 223.816071
v -18.2973976 0 228.796295
v -9.36479282 0 224.300873
v -18.0659924 0 229.257812
v -9.11990547 0 224.789276
v -17.8357105 0 229.720596
v -8.87595177 0 225.279556
v -17.6073704 0 230.183075
v -8.63341904 0 225.770752
v -17.3815689 0 230.644257
v -8.39245129 0 226.262909
v -17.1585407 0 231.103912
v -8.15313053 0 226.756165
v -16.9382458 0 231.562485
v -7.91562128 0 227.250565
v -16.7205257 0 232.020447
v -7.68011284 0 227.745941
v -16.5053387 0 232.478058
v -7.44667387 0 228.242371
v -16.2927399 0 232.935318
v -7.21523714 0 228.740158
v -16.0827522 0 233.392441
v -6.98570442 0 229.239822
v -15.8752909 0 233.849808
v -6.75796556 0 229.741898
v -15.6702089 0 234.30806
v -6.53199863 0 230.246811
v -15.4675655 0 234.767227
v -6.30807829 0 230.754196
v -15.2675953 0 235.22699
v -6.08643341 0 231.263794
v -15.0704584 0 235.687164
v -5.86726332 0 231.775391
v -14.876255 0 236.14769
v -5.65068102 0 232.288986
v -14.6850691 0 236.608566
v -5.43671703 0 232.804764
v -14.4969816 0 237.069824
v -5.22535181 0 233.32312
v -14.3120127 0 237.531723
v -5.01663685 0 233.844315
v -14.1301517 0 237.994553
v -4.81073618 0 234.368301
v -13.9513969 0 238.458511
v -4.60800934 0 234.894485
v -13.7759809 0 238.923035
v -4.40888691 0 235.421783
v -13.604393 0 239.386856
v -4.21382761 0 235.949051
v -13.4371738 0 239.848465
v -4.023067 0 236.475662
v -13.2740469 0 240.308884
v -3.836169 0 237.003159
v -13.114563 0 240.769516
v -3.65277863 0 237.532852
v -12.9583502 0 241.231766
v -3.47282314 0 238.065353
v -12.8051872 0 241.69632
v -3.29634833 0 238.600616
v -12.6551008 0 242.163254
v -3.12332487 0 239.138901
v -12.5082808 0 242.63208
v -2.95360279 0 239.680878
v -12.3648787 0 243.102859
v -2.78715801 0 240.22731
v -12.2248802 0 243.576035
v -2.62424636 0 240.777908
v -12.0882854 0 244.05191
v -2.46543813 0 241.331177
v -11.9554596 0 244.528931
v -2.31143069 0 241.884277
v -11.8272781 0 245.003647
v -2.16295195 0 242.434158
v -11.7046089 0 245.472321
v -2.02045631 0 242.978577
v -11.586895 0 245.937073
v -1.88311386 0 243.520813
v -11.4732676 0 246.401382
v -1.7501359 0 244.064194
v -11.3630905 0 246.868164
v -1.62114787 0 244.610687
v -11.2560034 0 247.33902
v -1.49609685 0 245.160522
v -11.1519861 0 247.813995
v -1.37494624 0 245.713745
v -11.0512199 0 248.292374
v -1.25759113 0 246.270859
v -10.9538927 0 248.773758
v -1.14396906 0 246.83284
v -10.8600569 0 249.258621
v -1.03419375 0 247.40007
v -10.7697134 0 249.747559
v -0.928602815 0 247.971527
v -10.6830254 0 250.239624
v -0.827705145 0 248.54425
v -10.6005507 0 250.730881
v -0.732108653 0 249.113663
v -10.5230961 0 251.215347
v -0.642381787 0 249.674911
v -10.450942 0 251.690231
v -0.558537364 0 250.22673
v -10.3832893 0 252.160217
v -0.479715645 0 250.774292
v -10.3193455 0 252.6306
v -0.405207098 0 251.322403
v -10.2586412 0 253.10495
v -0.334653735 0 251.873718
v -10.2010221 0 253.584457
v -0.267935157 0 252.42894
v -10.1465292 0 254.068848
v -0.205033451 0 252.988068
v -10.0952826 0 254.557236
v -0.145957187 0 253.551071
v -10.0473938 0 255.049271
v -0.0907288194 0 254.118515
v -10.0029097 0 255.545547
v -0.0394112468 0 254.691055
v -9.96184444 0 256.046997
v 0.00789200142 0 255.268661
v -9.92425251 0 256.553314
v 0.0510409772 0 255.849823
v -9.89030266 0 257.061523
v 0.0898532048 0 256.430847
v -9.8602829 0 257.565308
v 0.124115825 0 257.005798
v -9.83444118 0 258.057648
v 0.153668627 0 257.568878
v -9.81257057 0 258.53952
v 0.178729787 0 258.121002
v -9.79422283 0 259.017517
v 0.199722782 0 258.667908
v -9.77906704 0 259.497467
v 0.216984764 0 259.214569
v -9.76694202 0 259.982056
v 0.23072125 0 259.76355
v -9.75779152 0 260.47171
v 0.241038665 0 260.315704
v -9.75160789 0 260.965637
v 0.247987032 0 260.870728
v -9.7483902 0 261.463226
v 0.251593411 0 261.428314
v -9.74813366 0 261.96402
v 0.251879871 0 261.98819
v -9.7508316 0 262.468109
v 0.248871446 0 262.550446
v -9.75647259 0 262.975769
v 0.242596075 0 263.115112
v -9.76504898 0 263.487549
v 0.233087093 0 263.682617
v -9.77653599 0 264.003632
v 0.22039485 0 264.252777
v -9.79086685 0 264.523041
v 0.204615831 0 264.824677
v -9.80788898 0 265.042542
v 0.185924262 0 265.395142
v -9.82732773 0 265.556793
v 0.164602131 0 265.959198
v -9.84886932 0 266.060669
v 0.140974253 0 266.511902
v -9.87247181 0 266.556671
v 0.115120173 0 267.055206
v -9.89825439 0 267.05014
v 0.0869695321 0 267.594025
v -9.92631531 0 267.545135
v 0.0564420111 0 268.132538
v -9.95668697 0 268.043121
v 0.0234806444 0 268.672943
v -9.98936081 0 268.544037
v -0.0119304853 0 269.215851
v -10.024313 0 269.047394
v -0.0497705936 0 269.760773
v -10.0615225 0 269.552917
v -0.0899937302 0 270.307251
v -10.1009617 0 270.060547
v -0.13255474 0 270.855042
v -10.1426039 0 270.57016
v -0.177427873 0 271.404205
v -10.1864347 0 271.081696
v -0.224598169 0 271.954742
v -10.2324581 0 271.595367
v -0.274053991 0 272.506744
v -10.2806826 0 272.111511
v -0.325767756 0 273.060181
v -10.331089 0 272.63028
v -0.379692465 0 273.615204
v -10.3835649 0 273.15097
v -0.435736686 0 274.171295
v -10.4378719 0 273.671417
v -0.493695825 0 274.726715
v -10.4936295 0 274.188202
v -0.553209841 0 275.27829
v -10.5504475 0 274.698059
v -0.613859773 0 275.822571
v -10.6083803 0 275.20224
v -0.675619245 0 276.360077
v -10.6677437 0 275.704346
v -0.738742113 0 276.893982
v -10.7287664 0 276.207031
v -0.803471506 0 277.427185
v -10.7915382 0 276.711365
v -0.869963288 0 277.961365
v -10.8560505 0 277.217285
v -0.938287258 0 278.497192
v -10.9222851 0 277.724457
v -1.00842774 0 279.034271
v -10.9902344 0 278.23288
v -1.0803169 0 279.572174
v -11.0598726 0 278.742493
v -1.15390158 0 280.110657
v -11.1311674 0 279.253235
v -1.22915184 0 280.64978
v -11.2040873 0 279.765015
v -1.30605769 0 281.189514
v -11.278614 0 280.27774
v -1.38461685 0 281.730011
v -11.3547583 0 280.791504
v -1.46480763 0 282.271057
v -11.4325314 0 281.30658
v -1.54659641 0 282.812744
v -11.5119095 0 281.822998
v -1.62994766 0 283.35498
v -11.5927877 0 282.340302
v -1.71480429 0 283.897736
v -11.6749659 0 282.857178
v -1.80102885 0 284.440063
v -11.7581739 0 283.371979
v -1.88833869 0 284.980255
v -11.8421307 0 283.883087
v -1.97642815 0 285.51651
v -11.9269142 0 284.391174
v -2.06530452 0 286.049133
v -12.0127926 0 284.898193
v -2.1551609 0 286.579651
v -12.0999327 0 285.405518
v -2.24619436 0 287.109619
v -12.1883745 0 285.913483
v -2.33853793 0 287.639984
v -12.2781076 0 286.421997
v -2.43223977 0 288.171021
v -12.3691244 0 286.931
v -2.52727032 0 288.702423
v -12.4614153 0 287.44043
v -2.6235714 0 289.234009
v -12.5549507 0 287.950256
v -2.7211082 0 289.765625
v -12.6497183 0 288.460449
v -2.81984091 0 290.29718
v -12.7456818 0 288.970978
v -2.91976619 0 290.828827
v -12.8428183 0 289.48175
v -3.0208714 0 291.360413
v -12.9411201 0 289.992767
v -3.12312865 0 291.891998
v -13.0405617 0 290.503937
v -3.2265265 0 292.423553
v -13.1411362 0 291.01535
v -3.33103204 0 292.954926
v -13.242815 0 291.526917
v -3.4366281 0 293.486206
v -13.3455639 0 292.038513
v -3.54329062 0 294.017273
v -13.4493418 0 292.549988
v -3.65097713 0 294.548035
v -13.5540934 0 293.061127
v -3.75964284 0 295.078278
v -13.6597967 0 293.571899
v -3.86924648 0 295.607849
v -13.7664623 0 294.082367
v -3.97978187 0 296.136871
v -13.8740921 0 294.592682
v -4.091259 0 296.665436
v -13.9826708 0 295.102814
v -4.2036829 0 297.193634
v -14.0921946 0 295.612793
v -4.31702852 0 297.721375
v -14.2026386 0 296.122559
v -4.43128967 0 298.248779
v -14.3139839 0 296.63205
v -4.54643869 0 298.775665
v -14.4262114 0 297.141266
v -4.66245174 0 299.302094
v -14.539279 0 297.650055
v -4.77933359 0 299.828033
v -14.6532068 0 298.158508
v -4.89703035 0 300.353271
v -14.7679892 0 298.666718
v -5.01550436 0 300.877838
v -14.8835659 0 299.17453
v -5.13474798 0 301.401764
v -14.9998808 0 299.681732
v -5.25474644 0 301.925018
v -15.1168728 0 300.188049
v -5.3754921 0 302.447571
v -15.2345343 0 300.693359
v -5.4969821 0 302.96936
v -15.3529778 0 301.198181
v -5.61922264 0 303.490356
v -15.4724226 0 301.703552
v -5.74233007 0 304.01123
v -15.5931721 0 302.210938
v -5.86660051 0 304.533386
v -15.7154837 0 302.721497
v -5.99237537 0 305.058411
v -15.8391218 0 303.234222
v -6.11956882 0 305.585907
v -15.9636984 0 303.747375
v -6.24787045 0 306.11438
v -16.088995 0 304.259888
v -6.37695837 0 306.642395
v -16.2149124 0 304.771423
v -6.5066328 0 307.169189
v -16.3414364 0 305.281982
v -6.63678265 0 307.694397
v -16.4685307 0 305.791687
v -6.76739931 0 308.218201
v -16.5961304 0 306.300232
v -6.89854622 0 308.740906
v -16.7242279 0 306.807648
v -7.03021908 0 309.262482
v -16.8528461 0 307.313995
v -7.16238928 0 309.782806
v -16.9819908 0 307.819397
v -7.29499292 0 310.301758
v -17.1116161 0 308.323792
v -7.42797184 0 310.819214
v -17.2416019 0 308.826843
v -7.5613184 0 311.335266
v -17.3717842 0 309.32782
v -7.69508553 0 311.850037
v -17.502161 0 309.826508
v -7.82929277 0 312.363373
v -17.6330338 0 310.323944
v -7.96395206 0 312.875214
v -17.7649727 0 310.82254
v -8.09933281 0 313.38681
v -17.8987122 0 311.325378
v -8.23614311 0 313.901184
v -18.0348797 0 311.835022
v -8.37526131 0 314.421875
v -18.1730328 0 312.349701
v -8.51660347 0 314.948456
v -18.3122559 0 312.865692
v -8.65943623 0 315.477814
v -18.4519806 0 313.380524
v -8.80301476 0 316.006866
v -18.5919991 0 313.893463
v -8.94682121 0 316.533661
v -18.732275 0 314.40451
v -9.09061241 0 317.057526
v -18.8727455 0 314.913788
v -9.23439503 0 317.578766
v -19.0133286 0 315.42099
v -9.37830257 0 318.097992
v -19.1540375 0 315.926208
v -9.52236366 0 318.615234
v -19.2949371 0 316.429657
v -9.66649818 0 319.13028
v -19.4359818 0 316.931427
v -9.81062222 0 319.642975
v -19.5769749 0 317.430847
v -9.9547348 0 320.153442
v -19.7176666 0 317.926971
v -10.0988894 0 320.661774
v -19.8580055 0 318.419281
v -10.2431364 0 321.167816
v -19.9984093 0 318.909058
v -10.3875113 0 321.671448
v -20.1398163 0 319.39978
v -10.532361 0 322.174072
v -20.2835045 0 319.896332
v -10.6787739 0 322.680084
v -20.4306602 0 320.403259
v -10.8282976 0 323.195129
v -20.5809956 0 320.919495
v -10.9813204 0 323.720642
v -20.7328625 0 321.438904
v -11.1366501 0 324.251892
v -20.8850803 0 321.956879
v -11.2929125 0 324.7836
v -21.0371838 0 322.471619
v -11.4490976 0 325.312134
v -21.1890984 0 322.983093
v -11.6046743 0 325.835938
v -21.3407726 0 323.491547
v -11.7596025 0 326.355316
v -21.4921684 0 323.99704
v -11.9140244 0 326.870941
v -21.6432686 0 324.499725
v -12.0680008 0 327.383148
v -21.7939968 0 324.999359
v -12.2215014 0 327.891998
v -21.9440346 0 325.495026
v -12.3745461 0 328.397614
v -22.0930347 0 325.98526
v -12.5272198 0 328.899933
v -22.2410069 0 326.469696
v -12.6795559 0 329.398651
v -22.3887596 0 326.950653
v -12.8316193 0 329.893646
v -22.5379162 0 327.433899
v -12.9840832 0 330.387573
v -22.6905575 0 327.926819
v -13.138834 0 330.887329
v -22.8483982 0 328.435608
v -13.2983809 0 331.401611
v -23.0103703 0 328.956543
v -13.462759 0 331.930298
v -23.1738262 0 329.480438
v -13.6299343 0 332.466095
v -23.3370266 0 330.000732
v -13.7978182 0 333.001343
v -23.4994144 0 330.515533
v -13.9648914 0 333.530975
v -23.6610489 0 331.025269
v -14.1303329 0 334.052734
v -23.8220387 0 331.531189
v -14.2938709 0 334.56665
v -23.982008 0 332.032745
v -14.4558191 0 335.074432
v -24.1402702 0 332.527863
v -14.616643 0 335.577545
v -24.2962723 0 333.01416
v -14.7766199 0 336.076233
v -24.4501152 0 333.49118
v -14.935729 0 336.56955
v -24.6031284 0 333.962585
v -15.0939083 0 337.056885
v -24.7577572 0 334.436584
v -15.2520399 0 337.541626
v -24.9171524 0 334.923889
v -15.4128799 0 338.033386
v -25.0837803 0 335.433075
v -15.5803518 0 338.545135
v -25.2561359 0 335.959076
v -15.7549 0 339.077789
v -25.4301548 0 336.488312
v -15.9333277 0 339.620453
v -25.6033535 0 337.011871
v -16.1120434 0 340.160675
v -25.7749577 0 337.527649
v -16.2882328 0 340.690247
v -25.9445744 0 338.035431
v -16.4605656 0 341.206146
v -26.111021 0 338.532837
v -16.6294041 0 341.710754
v -26.2730789 0 339.015564
v -16.7957878 0 342.20636
v -26.431036 0 339.483398
v -16.9601765 0 342.693237
v -26.5873413 0 339.942871
v -17.1228447 0 343.171387
v -26.7465076 0 340.408203
v -17.2855358 0 343.647034
v -26.9135323 0 340.895691
v -17.4532318 0 344.136475
v -27.0921345 0 341.417145
v -17.6314793 0 344.656891
v -27.2774067 0 341.958282
v -17.8176365 0 345.200592
v -27.4623432 0 342.497253
v -18.005724 0 345.748779
v -27.6409626 0 343.015656
v -18.1915951 0 346.288239
v -27.8112411 0 343.504822
v -18.3724556 0 346.8078
v -27.9742908 0 343.968323
v -18.5466862 0 347.303101
v -28.135498 0 344.42157
v -18.713604 0 347.7724
v -28.3006401 0 344.885986
v -18.877655 0 348.233704
v -28.475317 0 345.378113
v -19.0489483 0 348.716309
v -28.6628265 0 345.908783
v -19.2364655 0 349.24704
v -28.853529 0 346.446075
v -19.4332027 0 349.8013
v -29.0366592 0 346.958466
v -19.6270561 0 350.343719
v -29.2078743 0 347.431274
v -19.8115463 0 350.853149
v -29.3721447 0 347.879822
v -19.9863987 0 351.330627
v -29.5381622 0 348.32962
v -20.1578178 0 351.795013
v -29.7090187 0 348.791687
v -20.3296585 0 352.259766
v -29.8657532 0 349.215576
v -20.4863968 0 352.683655
vt 1 0 0
vt 1 0.00125939131 0
vt 0 0.00125939131 0
vt 0 0 0
vt 1 0.00254452298 0
vt 0 0.00254452298 0
vt 1 0.00389300124 0
vt 0 0.00389300124 0
vt 1 0.00528197316 0
vt 0 0.00528197316 0
vt 1 0.0066390275 0
vt 0 0.0066390275 0
vt 1 0.00798847713 0
vt 0 0.00798847713 0
vt 1 0.00936610997 0
vt 0 0.00936610997 0
vt 1 0.0107707987 0
vt 0 0.0107707987 0
vt 1 0.0121627003 0
vt 0 0.0121627003 0
vt 1 0.0135083413 0
vt 0 0.0135083413 0
vt 1 0.0148392906 0
vt 0 0.0148392906 0
vt 1 0.0161926001 0
vt 0 0.0161926001 0
vt 1 0.0175845642 0
vt 0 0.0175845642 0
vt 1 0.0190010592 0
vt 0 0.0190010592 0
vt 1 0.0204046145 0
vt 0 0.0204046145 0
vt 1 0.0217580367 0
vt 0 0.0217580367 0
vt 1 0.0230843518 0
vt 0 0.0230843518 0
vt 1 0.0244152304 0
vt 0 0.0244152304 0
vt 1 0.0257735997 0
vt 0 0.0257735997 0
vt 1 0.02716312 0
vt 0 0.02716312 0
vt 1 0.0285725016 0
vt 0 0.0285725016 0
vt 1 0.0299764704 0
vt 0 0.0299764704 0
vt 1 0.0313501507 0
vt 0 0.0313501507 0
vt 1 0.0326930098 0
vt 0 0.0326930098 0
vt 1 0.0340264812 0
vt 0 0.0340264812 0
vt 1 0.0353692062 0
vt 0 0.0353692062 0
vt 1 0.0367321111 0
vt 0 0.0367321111 0
vt 1 0.038116429 0
vt 0 0.038116429 0
vt 1 0.0395158269 0
vt 0 0.0395158269 0
vt 1 0.0409164727 0
vt 0 0.0409164727 0
vt 1 0.0423008353 0
vt 0 0.0423008353 0
vt 1 0.0436576344 0
vt 0 0.0436576344 0
vt 1 0.0449999087 0
vt 0 0.0449999087 0
vt 1 0.0463425145 0
vt 0 0.0463425145 0
vt 1 0.0476952866 0
vt 0 0.0476952866 0
vt 1 0.0490621328 0
vt 0 0.0490621328 0
vt 1 0.0504426584 0
vt 0 0.0504426584 0
vt 1 0.0518326834 0
vt 0 0.0518326834 0
vt 1 0.0532244407 0
vt 0 0.0532244407 0
vt 1 0.0546069741 0
vt 0 0.0546069741 0
vt 1 0.0559708588 0
vt 0 0.0559708588 0
vt 1 0.057323046 0
vt 0 0.057323046 0
vt 1 0.0586732663 0
vt 0 0.0586732663 0
vt 1 0.0600284934 0
vt 0 0.0600284934 0
vt 1 0.0613914579 0
vt 0 0.0613914579 0
vt 1 0.062762633 0
vt 0 0.062762633 0
vt 1 0.0641403645 0
vt 0 0.0641403645 0
vt 1 0.0655221045 0
vt 0 0.0655221045 0
vt 1 0.0669031143 0
vt 0 0.0669031143 0
vt 1 0.068277806 0
vt 0 0.068277806 0
vt 1 0.0696427599 0
vt 0 0.0696427599 0
vt 1 0.0710025579 0
vt 0 0.0710025579 0
vt 1 0.0723620057 0
vt 0 0.0723620057 0
vt 1 0.0737241209 0
vt 0 0.0737241209 0
vt 1 0.0750897229 0
vt 0 0.0750897229 0
vt 1 0.0764585733 0
vt 0 0.0764585733 0
vt 1 0.0778297707 0
vt 0 0.0778297707 0
vt 1 0.0792024657 0
vt 0 0.0792024657 0
vt 1 0.080575414 0
vt 0 0.080575414 0
vt 1 0.0819472373 0
vt 0 0.0819472373 0
vt 1 0.0833169445 0
vt 0 0.0833169445 0
vt 1 0.0846852511 0
vt 0 0.0846852511 0
vt 1 0.0860530064 0
vt 0 0.0860530064 0
vt 1 0.0874205679 0
vt 0 0.0874205679 0
vt 1 0.0887877047 0
vt 0 0.0887877047 0
vt 1 0.0901538134 0
vt 0 0.0901538134 0
vt 1 0.0915185511 0
vt 0 0.0915185511 0
vt 1 0.0928823799 0
vt 0 0.0928823799 0
vt 1 0.0942471176 0
vt 0 0.0942471176 0
vt 1 0.0956155285 0
vt 0 0.0956155285 0
vt 1 0.0969897136 0
vt 0 0.0969897136 0
vt 1 0.0983666331 0
vt 0 0.0983666331 0
vt 1 0.0997430533 0
vt 0 0.0997430533 0
vt 1 0.101116419 0
vt 0 0.101116419 0
vt 1 0.102485374 0
vt 0 0.102485374 0
vt 1 0.103848882 0
vt 0 0.103848882 0
vt 1 0.105207257 0
vt 0 0.105207257 0
vt 1 0.106562488 0
vt 0 0.106562488 0
vt 1 0.107919656 0
vt 0 0.107919656 0
vt 1 0.10928572 0
vt 0 0.10928572 0
vt 1 0.110665157 0
vt 0 0.110665157 0
vt 1 0.112051025 0
vt 0 0.112051025 0
vt 1 0.113435619 0
vt 0 0.113435619 0
vt 1 0.114813417 0
vt 0 0.114813417 0
vt 1 0.116181575 0
vt 0 0.116181575 0
vt 1 0.117539287 0
vt 0 0.117539287 0
vt 1 0.118888758 0
vt 0 0.118888758 0
vt 1 0.12023598 0
vt 0 0.12023598 0
vt 1 0.121591397 0
vt 0 0.121591397 0
vt 1 0.122965604 0
vt 0 0.122965604 0
vt 1 0.124356277 0
vt 0 0.124356277 0
vt 1 0.125750825 0
vt 0 0.125750825 0
vt 1 0.127138063 0
vt 0 0.127138063 0
vt 1 0.128510773 0
vt 0 0.128510773 0
vt 1 0.129866749 0
vt 0 0.129866749 0
vt 1 0.131208941 0
vt 0 0.131208941 0
vt 1 0.132547021 0
vt 0 0.132547021 0
vt 1 0.133896753 0
vt 0 0.133896753 0
vt 1 0.135274395 0
vt 0 0.135274395 0
vt 1 0.136676073 0
vt 0 0.136676073 0
vt 1 0.138086304 0
vt 0 0.138086304 0
vt 1 0.139491946 0
vt 0 0.139491946 0
vt 1 0.140886694 0
vt 0 0.140886694 0
vt 1 0.14226906 0
vt 0 0.14226906 0
vt 1 0.143640682 0
vt 0 0.143640682 0
vt 1 0.145002201 0
vt 0 0.145002201 0
vt 1 0.146353334 0
vt 0 0.146353334 0
vt 1 0.147692218 0
vt 0 0.147692218 0
vt 1 0.149019569 0
vt 0 0.149019569 0
vt 1 0.150340483 0
vt 0 0.150340483 0
vt 1 0.151668072 0
vt 0 0.151668072 0
vt 1 0.15301989 0
vt 0 0.15301989 0
vt 1 0.154407427 0
vt 0 0.154407427 0
vt 1 0.155814096 0
vt 0 0.155814096 0
vt 1 0.157222256 0
vt 0 0.157222256 0
vt 1 0.158620343 0
vt 0 0.158620343 0
vt 1 0.160005242 0
vt 0 0.160005242 0
vt 1 0.161376819 0
vt 0 0.161376819 0
vt 1 0.162736505 0
vt 0 0.162736505 0
vt 1 0.164083228 0
vt 0 0.164083228 0
vt 1 0.165417269 0
vt 0 0.165417269 0
vt 1 0.166741729 0
vt 0 0.166741729 0
vt 1 0.168067634 0
vt 0 0.168067634 0
vt 1 0.169411719 0
vt 0 0.169411719 0
vt 1 0.17078951 0
vt 0 0.17078951 0
vt 1 0.172190055 0
vt 0 0.172190055 0
vt 1 0.173595443 0
vt 0 0.173595443 0
vt 1 0.174992636 0
vt 0 0.174992636 0
vt 1 0.176376253 0
vt 0 0.176376253 0
vt 1 0.177745029 0
vt 0 0.177745029 0
vt 1 0.179099247 0
vt 0 0.179099247 0
vt 1 0.180439547 0
vt 0 0.180439547 0
vt 1 0.181769222 0
vt 0 0.181769222 0
vt 1 0.183097348 0
vt 0 0.183097348 0
vt 1 0.184439391 0
vt 0 0.184439391 0
vt 1 0.185810626 0
vt 0 0.185810626 0
vt 1 0.187205106 0
vt 0 0.187205106 0
vt 1 0.188606083 0
vt 0 0.188606083 0
vt 1 0.189999938 0
vt 0 0.189999938 0
vt 1 0.19137983 0
vt 0 0.19137983 0
vt 1 0.192743406 0
vt 0 0.192743406 0
vt 1 0.194091424 0
vt 0 0.194091424 0
vt 1 0.195427209 0
vt 0 0.195427209 0
vt 1 0.196758941 0
vt 0 0.196758941 0
vt 1 0.198100001 0
vt 0 0.198100001 0
vt 1 0.199465051 0
vt 0 0.199465051 0
vt 1 0.20085299 0
vt 0 0.20085299 0
vt 1 0.202248737 0
vt 0 0.202248737 0
vt 1 0.203638449 0
vt 0 0.203638449 0
vt 1 0.205014423 0
vt 0 0.205014423 0
vt 1 0.20637387 0
vt 0 0.20637387 0
vt 1 0.207718849 0
vt 0 0.207718849 0
vt 1 0.209055409 0
vt 0 0.209055409 0
vt 1 0.210394844 0
vt 0 0.210394844 0
vt 1 0.211750761 0
vt 0 0.211750761 0
vt 1 0.213130042 0
vt 0 0.213130042 0
vt 1 0.214519769 0
vt 0 0.214519769 0
vt 1 0.215906426 0
vt 0 0.215906426 0
vt 1 0.217281044 0
vt 0 0.217281044 0
vt 1 0.218640998 0
vt 0 0.218640998 0
vt 1 0.219988436 0
vt 0 0.219988436 0
vt 1 0.221330792 0
vt 0 0.221330792 0
vt 1 0.222678691 0
vt 0 0.222678691 0
vt 1 0.224042982 0
vt 0 0.224042982 0
vt 1 0.225421742 0
vt 0 0.225421742 0
vt 1 0.226804122 0
vt 0 0.226804122 0
vt 1 0.228180468 0
vt 0 0.228180468 0
vt 1 0.2295461 0
vt 0 0.2295461 0
vt 1 0.230901226 0
vt 0 0.230901226 0
vt 1 0.232250512 0
vt 0 0.232250512 0
vt 1 0.233601779 0
vt 0 0.233601779 0
vt 1 0.234963208 0
vt 0 0.234963208 0
vt 1 0.236335292 0
vt 0 0.236335292 0
vt 1 0.237710759 0
vt 0 0.237710759 0
vt 1 0.239082888 0
vt 0 0.239082888 0
vt 1 0.240448356 0
vt 0 0.240448356 0
vt 1 0.241807386 0
vt 0 0.241807386 0
vt 1 0.243163049 0
vt 0 0.243163049 0
vt 1 0.244520113 0
vt 0 0.244520113 0
vt 1 0.245882973 0
vt 0 0.245882973 0
vt 1 0.247250676 0
vt 0 0.247250676 0
vt 1 0.248619661 0
vt 0 0.248619661 0
vt 1 0.2499872 0
vt 0 0.2499872 0
vt 1 0.25135237 0
vt 0 0.25135237 0
vt 1 0.252715379 0
vt 0 0.252715379 0
vt 1 0.254077196 0
vt 0 0.254077196 0
vt 1 0.255438685 0
vt 0 0.255438685 0
vt 1 0.256800622 0
vt 0 0.256800622 0
vt 1 0.258163422 0
vt 0 0.258163422 0
vt 1 0.259527475 0
vt 0 0.259527475 0
vt 1 0.260893255 0
vt 0 0.260893255 0
vt 1 0.262260705 0
vt 0 0.262260705 0
vt 1 0.263628751 0
vt 0 0.263628751 0
vt 1 0.264995158 0
vt 0 0.264995158 0
vt 1 0.266357303 0
vt 0 0.266357303 0
vt 1 0.267715663 0
vt 0 0.267715663 0
vt 1 0.269073933 0
vt 0 0.269073933 0
vt 1 0.270435601 0
vt 0 0.270435601 0
vt 1 0.271802455 0
vt 0 0.271802455 0
vt 1 0.273174137 0
vt 0 0.273174137 0
vt 1 0.274547338 0
vt 0 0.274547338 0
vt 1 0.275916606 0
vt 0 0.275916606 0
vt 1 0.277276605 0
vt 0 0.277276605 0
vt 1 0.278630704 0
vt 0 0.278630704 0
vt 1 0.279985279 0
vt 0 0.279985279 0
vt 1 0.281345606 0
vt 0 0.281345606 0
vt 1 0.282713979 0
vt 0 0.282713979 0
vt 1 0.284089386 0
vt 0 0.284089386 0
vt 1 0.285467058 0
vt 0 0.285467058 0
vt 1 0.286839306 0
vt 0 0.286839306 0
vt 1 0.288198858 0
vt 0 0.288198858 0
vt 1 0.289550006 0
vt 0 0.289550006 0
vt 1 0.290900826 0
vt 0 0.290900826 0
vt 1 0.292257816 0
vt 0 0.292257816 0
vt 1 0.293624073 0
vt 0 0.293624073 0
vt 1 0.294999778 0
vt 0 0.294999778 0
vt 1 0.296382129 0
vt 0 0.296382129 0
vt 1 0.297765523 0
vt 0 0.297765523 0
vt 1 0.299142927 0
vt 0 0.299142927 0
vt 1 0.300511509 0
vt 0 0.300511509 0
vt 1 0.301874638 0
vt 0 0.301874638 0
vt 1 0.303236216 0
vt 0 0.303236216 0
vt 1 0.304598689 0
vt 0 0.304598689 0
vt 1 0.305963069 0
vt 0 0.305963069 0
vt 1 0.307329535 0
vt 0 0.307329535 0
vt 1 0.308697939 0
vt 0 0.308697939 0
vt 1 0.310067981 0
vt 0 0.310067981 0
vt 1 0.311439067 0
vt 0 0.311439067 0
vt 1 0.312809914 0
vt 0 0.312809914 0
vt 1 0.314178556 0
vt 0 0.314178556 0
vt 1 0.315543264 0
vt 0 0.315543264 0
vt 1 0.316905677 0
vt 0 0.316905677 0
vt 1 0.318267763 0
vt 0 0.318267763 0
vt 1 0.319630772 0
vt 0 0.319630772 0
vt 1 0.320995152 0
vt 0 0.320995152 0
vt 1 0.322361052 0
vt 0 0.322361052 0
vt 1 0.323728263 0
vt 0 0.323728263 0
vt 1 0.325096726 0
vt 0 0.325096726 0
vt 1 0.326466173 0
vt 0 0.326466173 0
vt 1 0.327836066 0
vt 0 0.327836066 0
vt 1 0.329205424 0
vt 0 0.329205424 0
vt 1 0.330573142 0
vt 0 0.330573142 0
vt 1 0.331938982 0
vt 0 0.331938982 0
vt 1 0.333303899 0
vt 0 0.333303899 0
vt 1 0.334668785 0
vt 0 0.334668785 0
vt 1 0.336034089 0
vt 0 0.336034089 0
vt 1 0.337399989 0
vt 0 0.337399989 0
vt 1 0.338766307 0
vt 0 0.338766307 0
vt 1 0.340132952 0
vt 0 0.340132952 0
vt 1 0.341499686 0
vt 0 0.341499686 0
vt 1 0.34286657 0
vt 0 0.34286657 0
vt 1 0.344233662 0
vt 0 0.344233662 0
vt 1 0.345601201 0
vt 0 0.345601201 0
vt 1 0.346969396 0
vt 0 0.346969396 0
vt 1 0.348338008 0
vt 0 0.348338008 0
vt 1 0.34970659 0
vt 0 0.34970659 0
vt 1 0.351074845 0
vt 0 0.351074845 0
vt 1 0.352442473 0
vt 0 0.352442473 0
vt 1 0.353809357 0
vt 0 0.353809357 0
vt 1 0.355175227 0
vt 0 0.355175227 0
vt 1 0.356539935 0
vt 0 0.356539935 0
vt 1 0.357903481 0
vt 0 0.357903481 0
vt 1 0.35926649 0
vt 0 0.35926649 0
vt 1 0.360630274 0
vt 0 0.360630274 0
vt 1 0.3619968 0
vt 0 0.3619968 0
vt 1 0.363367438 0
vt 0 0.363367438 0
vt 1 0.364740193 0
vt 0 0.364740193 0
vt 1 0.366112918 0
vt 0 0.366112918 0
vt 1 0.367484212 0
vt 0 0.367484212 0
vt 1 0.36885336 0
vt 0 0.36885336 0
vt 1 0.370220035 0
vt 0 0.370220035 0
vt 1 0.371583998 0
vt 0 0.371583998 0
vt 1 0.372945309 0
vt 0 0.372945309 0
vt 1 0.374304563 0
vt 0 0.374304563 0
vt 1 0.375663757 0
vt 0 0.375663757 0
vt 1 0.377026111 0
vt 0 0.377026111 0
vt 1 0.3783952 0
vt 0 0.3783952 0
vt 1 0.37977013 0
vt 0 0.37977013 0
vt 1 0.381146997 0
vt 0 0.381146997 0
vt 1 0.382522613 0
vt 0 0.382522613 0
vt 1 0.38389501 0
vt 0 0.38389501 0
vt 1 0.385263473 0
vt 0 0.385263473 0
vt 1 0.386627614 0
vt 0 0.386627614 0
vt 1 0.387987465 0
vt 0 0.387987465 0
vt 1 0.389343798 0
vt 0 0.389343798 0
vt 1 0.39069888 0
vt 0 0.39069888 0
vt 1 0.392056972 0
vt 0 0.392056972 0
vt 1 0.393423349 0
vt 0 0.393423349 0
vt 1 0.394799143 0
vt 0 0.394799143 0
vt 1 0.39617902 0
vt 0 0.39617902 0
vt 1 0.397557974 0
vt 0 0.397557974 0
vt 1 0.398932904 0
vt 0 0.398932904 0
vt 1 0.400302529 0
vt 0 0.400302529 0
vt 1 0.401666284 0
vt 0 0.401666284 0
vt 1 0.403024405 0
vt 0 0.403024405 0
vt 1 0.404378086 0
vt 0 0.404378086 0
vt 1 0.405730426 0
vt 0 0.405730426 0
vt 1 0.407086879 0
vt 0 0.407086879 0
vt 1 0.408453614 0
vt 0 0.408453614 0
vt 1 0.40983066 0
vt 0 0.40983066 0
vt 1 0.411211699 0
vt 0 0.411211699 0
vt 1 0.41259104 0
vt 0 0.41259104 0
vt 1 0.413965374 0
vt 0 0.413965374 0
vt 1 0.41533342 0
vt 0 0.41533342 0
vt 1 0.41669479 0
vt 0 0.41669479 0
vt 1 0.4180502 0
vt 0 0.4180502 0
vt 1 0.419401616 0
vt 0 0.419401616 0
vt 1 0.420753509 0
vt 0 0.420753509 0
vt 1 0.422112435 0
vt 0 0.422112435 0
vt 1 0.423483908 0
vt 0 0.423483908 0
vt 1 0.424862266 0
vt 0 0.424862266 0
vt 1 0.4262411 0
vt 0 0.4262411 0
vt 1 0.427616119 0
vt 0 0.427616119 0
vt 1 0.428985626 0
vt 0 0.428985626 0
vt 1 0.43034929 0
vt 0 0.43034929 0
vt 1 0.431707948 0
vt 0 0.431707948 0
vt 1 0.43306303 0
vt 0 0.43306303 0
vt 1 0.434417516 0
vt 0 0.434417516 0
vt 1 0.435775518 0
vt 0 0.435775518 0
vt 1 0.437141001 0
vt 0 0.437141001 0
vt 1 0.438511163 0
vt 0 0.438511163 0
vt 1 0.439882368 0
vt 0 0.439882368 0
vt 1 0.441251993 0
vt 0 0.441251993 0
vt 1 0.442619443 0
vt 0 0.442619443 0
vt 1 0.443985045 0
vt 0 0.443985045 0
vt 1 0.445349455 0
vt 0 0.445349455 0
vt 1 0.44671309 0
vt 0 0.44671309 0
vt 1 0.448075593 0
vt 0 0.448075593 0
vt 1 0.449435949 0
vt 0 0.449435949 0
vt 1 0.450793594 0
vt 0 0.450793594 0
vt 1 0.452150226 0
vt 0 0.452150226 0
vt 1 0.453507632 0
vt 0 0.453507632 0
vt 1 0.454867572 0
vt 0 0.454867572 0
vt 1 0.456231415 0
vt 0 0.456231415 0
vt 1 0.457600772 0
vt 0 0.457600772 0
vt 1 0.458975881 0
vt 0 0.458975881 0
vt 1 0.460354775 0
vt 0 0.460354775 0
vt 1 0.461731136 0
vt 0 0.461731136 0
vt 1 0.463096112 0
vt 0 0.463096112 0
vt 1 0.464443117 0
vt 0 0.464443117 0
vt 1 0.465781212 0
vt 0 0.465781212 0
vt 1 0.467119992 0
vt 0 0.467119992 0
vt 1 0.468466341 0
vt 0 0.468466341 0
vt 1 0.469823599 0
vt 0 0.469823599 0
vt 1 0.471193939 0
vt 0 0.471193939 0
vt 1 0.47257784 0
vt 0 0.47257784 0
vt 1 0.473973095 0
vt 0 0.473973095 0
vt 1 0.475370944 0
vt 0 0.475370944 0
vt 1 0.476755679 0
vt 0 0.476755679 0
vt 1 0.478110343 0
vt 0 0.478110343 0
vt 1 0.479437947 0
vt 0 0.479437947 0
vt 1 0.480756044 0
vt 0 0.480756044 0
vt 1 0.482079953 0
vt 0 0.482079953 0
vt 1 0.48341763 0
vt 0 0.48341763 0
vt 1 0.48477152 0
vt 0 0.48477152 0
vt 1 0.486140996 0
vt 0 0.486140996 0
vt 1 0.487525851 0
vt 0 0.487525851 0
vt 1 0.4889265 0
vt 0 0.4889265 0
vt 1 0.490343451 0
vt 0 0.490343451 0
vt 1 0.491774768 0
vt 0 0.491774768 0
vt 1 0.493215203 0
vt 0 0.493215203 0
vt 1 0.494656265 0
vt 0 0.494656265 0
vt 1 0.496091962 0
vt 0 0.496091962 0
vt 1 0.497519553 0
vt 0 0.497519553 0
vt 1 0.49893868 0
vt 0 0.49893868 0
vt 1 0.5003497 0
vt 0 0.5003497 0
vt 1 0.501753151 0
vt 0 0.501753151 0
vt 1 0.503149211 0
vt 0 0.503149211 0
vt 1 0.50453794 0
vt 0 0.50453794 0
vt 1 0.505919397 0
vt 0 0.505919397 0
vt 1 0.507293642 0
vt 0 0.507293642 0
vt 1 0.508660614 0
vt 0 0.508660614 0
vt 1 0.510020435 0
vt 0 0.510020435 0
vt 1 0.511373162 0
vt 0 0.511373162 0
vt 1 0.512719035 0
vt 0 0.512719035 0
vt 1 0.514058173 0
vt 0 0.514058173 0
vt 1 0.515390038 0
vt 0 0.515390038 0
vt 1 0.516713202 0
vt 0 0.516713202 0
vt 1 0.51802671 0
vt 0 0.51802671 0
vt 1 0.519332826 0
vt 0 0.519332826 0
vt 1 0.520640373 0
vt 0 0.520640373 0
vt 1 0.52196604 0
vt 0 0.52196604 0
vt 1 0.523328841 0
vt 0 0.523328841 0
vt 1 0.524730325 0
vt 0 0.524730325 0
vt 1 0.52615118 0
vt 0 0.52615118 0
vt 1 0.527573764 0
vt 0 0.527573764 0
vt 1 0.528988123 0
vt 0 0.528988123 0
vt 1 0.530391634 0
vt 0 0.530391634 0
vt 1 0.53178519 0
vt 0 0.53178519 0
vt 1 0.533170581 0
vt 0 0.533170581 0
vt 1 0.534548461 0
vt 0 0.534548461 0
vt 1 0.535918891 0
vt 0 0.535918891 0
vt 1 0.537281752 0
vt 0 0.537281752 0
vt 1 0.538637102 0
vt 0 0.538637102 0
vt 1 0.539985299 0
vt 0 0.539985299 0
vt 1 0.541325986 0
vt 0 0.541325986 0
vt 1 0.542658448 0
vt 0 0.542658448 0
vt 1 0.543980777 0
vt 0 0.543980777 0
vt 1 0.545294046 0
vt 0 0.545294046 0
vt 1 0.546603799 0
vt 0 0.546603799 0
vt 1 0.547923863 0
vt 0 0.547923863 0
vt 1 0.549272835 0
vt 0 0.549272835 0
vt 1 0.550662458 0
vt 0 0.550662458 0
vt 1 0.552075505 0
vt 0 0.552075505 0
vt 1 0.55349344 0
vt 0 0.55349344 0
vt 1 0.554904401 0
vt 0 0.554904401 0
vt 1 0.556304514 0
vt 0 0.556304514 0
vt 1 0.557694077 0
vt 0 0.557694077 0
vt 1 0.559074938 0
vt 0 0.559074938 0
vt 1 0.560447991 0
vt 0 0.560447991 0
vt 1 0.561813533 0
vt 0 0.561813533 0
vt 1 0.563171625 0
vt 0 0.563171625 0
vt 1 0.564522147 0
vt 0 0.564522147 0
vt 1 0.565864563 0
vt 0 0.565864563 0
vt 1 0.567197442 0
vt 0 0.567197442 0
vt 1 0.568520606 0
vt 0 0.568520606 0
vt 1 0.569837213 0
vt 0 0.569837213 0
vt 1 0.571156859 0
vt 0 0.571156859 0
vt 1 0.572495222 0
vt 0 0.572495222 0
vt 1 0.573867798 0
vt 0 0.573867798 0
vt 1 0.575267553 0
vt 0 0.575267553 0
vt 1 0.57667762 0
vt 0 0.57667762 0
vt 1 0.578084588 0
vt 0 0.578084588 0
vt 1 0.579482257 0
vt 0 0.579482257 0
vt 1 0.580869436 0
vt 0 0.580869436 0
vt 1 0.582247436 0
vt 0 0.582247436 0
vt 1 0.583617389 0
vt 0 0.583617389 0
vt 1 0.584980249 0
vt 0 0.584980249 0
vt 1 0.58633554 0
vt 0 0.58633554 0
vt 1 0.587682843 0
vt 0 0.587682843 0
vt 1 0.589020669 0
vt 0 0.589020669 0
vt 1 0.590349257 0
vt 0 0.590349257 0
vt 1 0.591671824 0
vt 0 0.591671824 0
vt 1 0.592998087 0
vt 0 0.592998087 0
vt 1 0.594342649 0
vt 0 0.594342649 0
vt 1 0.595718801 0
vt 0 0.595718801 0
vt 1 0.597116292 0
vt 0 0.597116292 0
vt 1 0.598519862 0
vt 0 0.598519862 0
vt 1 0.599918604 0
vt 0 0.599918604 0
vt 1 0.601308048 0
vt 0 0.601308048 0
vt 1 0.602687716 0
vt 0 0.602687716 0
vt 1 0.60405916 0
vt 0 0.60405916 0
vt 1 0.605423391 0
vt 0 0.605423391 0
vt 1 0.60678041 0
vt 0 0.60678041 0
vt 1 0.608129382 0
vt 0 0.608129382 0
vt 1 0.609469593 0
vt 0 0.609469593 0
vt 1 0.610802233 0
vt 0 0.610802233 0
vt 1 0.612132311 0
vt 0 0.612132311 0
vt 1 0.613470078 0
vt 0 0.613470078 0
vt 1 0.614827931 0
vt 0 0.614827931 0
vt 1 0.616210163 0
vt 0 0.616210163 0
vt 1 0.617604733 0
vt 0 0.617604733 0
vt 1 0.61899972 0
vt 0 0.61899972 0
vt 1 0.62038821 0
vt 0 0.62038821 0
vt 1 0.621767998 0
vt 0 0.621767998 0
vt 1 0.623139739 0
vt 0 0.623139739 0
vt 1 0.624504387 0
vt 0 0.624504387 0
vt 1 0.625862181 0
vt 0 0.625862181 0
vt 1 0.627212524 0
vt 0 0.627212524 0
vt 1 0.628555179 0
vt 0 0.628555179 0
vt 1 0.629892409 0
vt 0 0.629892409 0
vt 1 0.631230235 0
vt 0 0.631230235 0
vt 1 0.632578552 0
vt 0 0.632578552 0
vt 1 0.633946896 0
vt 0 0.633946896 0
vt 1 0.635330737 0
vt 0 0.635330737 0
vt 1 0.636719644 0
vt 0 0.636719644 0
vt 1 0.638105512 0
vt 0 0.638105512 0
vt 1 0.639484882 0
vt 0 0.639484882 0
vt 1 0.640857041 0
vt 0 0.640857041 0
vt 1 0.642222822 0
vt 0 0.642222822 0
vt 1 0.643582523 0
vt 0 0.643582523 0
vt 1 0.644935966 0
vt 0 0.644935966 0
vt 1 0.646283209 0
vt 0 0.646283209 0
vt 1 0.64762634 0
vt 0 0.64762634 0
vt 1 0.648970664 0
vt 0 0.648970664 0
vt 1 0.650324345 0
vt 0 0.650324345 0
vt 1 0.651694357 0
vt 0 0.651694357 0
vt 1 0.653074384 0
vt 0 0.653074384 0
vt 1 0.654456437 0
vt 0 0.654456437 0
vt 1 0.655834973 0
vt 0 0.655834973 0
vt 1 0.657208323 0
vt 0 0.657208323 0
vt 1 0.65857619 0
vt 0 0.65857619 0
vt 1 0.659939408 0
vt 0 0.659939408 0
vt 1 0.661297977 0
vt 0 0.661297977 0
vt 1 0.662652373 0
vt 0 0.662652373 0
vt 1 0.664003432 0
vt 0 0.664003432 0
vt 1 0.665354073 0
vt 0 0.665354073 0
vt 1 0.666709065 0
vt 0 0.666709065 0
vt 1 0.668073118 0
vt 0 0.668073118 0
vt 1 0.669444203 0
vt 0 0.669444203 0
vt 1 0.670817733 0
vt 0 0.670817733 0
vt 1 0.672190011 0
vt 0 0.672190011 0
vt 1 0.673559606 0
vt 0 0.673559606 0
vt 1 0.674926162 0
vt 0 0.674926162 0
vt 1 0.676290274 0
vt 0 0.676290274 0
vt 1 0.677652299 0
vt 0 0.677652299 0
vt 1 0.679012537 0
vt 0 0.679012537 0
vt 1 0.680371523 0
vt 0 0.680371523 0
vt 1 0.681730032 0
vt 0 0.681730032 0
vt 1 0.683089375 0
vt 0 0.683089375 0
vt 1 0.684450865 0
vt 0 0.684450865 0
vt 1 0.685814023 0
vt 0 0.685814023 0
vt 1 0.687177956 0
vt 0 0.687177956 0
vt 1 0.688542008 0
vt 0 0.688542008 0
vt 1 0.689906061 0
vt 0 0.689906061 0
vt 1 0.691270351 0
vt 0 0.691270351 0
vt 1 0.692635357 0
vt 0 0.692635357 0
vt 1 0.694001734 0
vt 0 0.694001734 0
vt 1 0.69536972 0
vt 0 0.69536972 0
vt 1 0.696738839 0
vt 0 0.696738839 0
vt 1 0.698106766 0
vt 0 0.698106766 0
vt 1 0.699470222 0
vt 0 0.699470222 0
vt 1 0.700826347 0
vt 0 0.700826347 0
vt 1 0.702178657 0
vt 0 0.702178657 0
vt 1 0.703530848 0
vt 0 0.703530848 0
vt 1 0.704885662 0
vt 0 0.704885662 0
vt 1 0.706243992 0
vt 0 0.706243992 0
vt 1 0.707606375 0
vt 0 0.707606375 0
vt 1 0.70897305 0
vt 0 0.70897305 0
vt 1 0.71034503 0
vt 0 0.71034503 0
vt 1 0.711722553 0
vt 0 0.711722553 0
vt 1 0.713104069 0
vt 0 0.713104069 0
vt 1 0.714483738 0
vt 0 0.714483738 0
vt 1 0.715853095 0
vt 0 0.715853095 0
vt 1 0.717204273 0
vt 0 0.717204273 0
vt 1 0.718544602 0
vt 0 0.718544602 0
vt 1 0.719883144 0
vt 0 0.719883144 0
vt 1 0.721226513 0
vt 0 0.721226513 0
vt 1 0.722577095 0
vt 0 0.722577095 0
vt 1 0.723935187 0
vt 0 0.723935187 0
vt 1 0.72530055 0
vt 0 0.72530055 0
vt 1 0.72667402 0
vt 0 0.72667402 0
vt 1 0.728056669 0
vt 0 0.728056669 0
vt 1 0.72944802 0
vt 0 0.72944802 0
vt 1 0.730843008 0
vt 0 0.730843008 0
vt 1 0.732230723 0
vt 0 0.732230723 0
vt 1 0.7335971 0
vt 0 0.7335971 0
vt 1 0.734937012 0
vt 0 0.734937012 0
vt 1 0.736263454 0
vt 0 0.736263454 0
vt 1 0.737589717 0
vt 0 0.737589717 0
vt 1 0.738923848 0
vt 0 0.738923848 0
vt 1 0.740268528 0
vt 0 0.740268528 0
vt 1 0.741623461 0
vt 0 0.741623461 0
vt 1 0.742987454 0
vt 0 0.742987454 0
vt 1 0.744360924 0
vt 0 0.744360924 0
vt 1 0.74574554 0
vt 0 0.74574554 0
vt 1 0.747142434 0
vt 0 0.747142434 0
vt 1 0.748549461 0
vt 0 0.748549461 0
vt 1 0.749957979 0
vt 0 0.749957979 0
vt 1 0.75135231 0
vt 0 0.75135231 0
vt 1 0.752715945 0
vt 0 0.752715945 0
vt 1 0.754051447 0
vt 0 0.754051447 0
vt 1 0.755374849 0
vt 0 0.755374849 0
vt 1 0.756700099 0
vt 0 0.756700099 0
vt 1 0.75803411 0
vt 0 0.75803411 0
vt 1 0.759378552 0
vt 0 0.759378552 0
vt 1 0.760732055 0
vt 0 0.760732055 0
vt 1 0.762093544 0
vt 0 0.762093544 0
vt 1 0.763462067 0
vt 0 0.763462067 0
vt 1 0.76483798 0
vt 0 0.76483798 0
vt 1 0.766221642 0
vt 0 0.766221642 0
vt 1 0.767614424 0
vt 0 0.767614424 0
vt 1 0.769016266 0
vt 0 0.769016266 0
vt 1 0.770424902 0
vt 0 0.770424902 0
vt 1 0.771831989 0
vt 0 0.771831989 0
vt 1 0.773224294 0
vt 0 0.773224294 0
vt 1 0.774588823 0
vt 0 0.774588823 0
vt 1 0.775931299 0
vt 0 0.775931299 0
vt 1 0.777265072 0
vt 0 0.777265072 0
vt 1 0.778600693 0
vt 0 0.778600693 0
vt 1 0.779942989 0
vt 0 0.779942989 0
vt 1 0.781292677 0
vt 0 0.781292677 0
vt 1 0.782648444 0
vt 0 0.782648444 0
vt 1 0.784009516 0
vt 0 0.784009516 0
vt 1 0.785375357 0
vt 0 0.785375357 0
vt 1 0.786746025 0
vt 0 0.786746025 0
vt 1 0.788121402 0
vt 0 0.788121402 0
vt 1 0.789501905 0
vt 0 0.789501905 0
vt 1 0.790887952 0
vt 0 0.790887952 0
vt 1 0.792279959 0
vt 0 0.792279959 0
vt 1 0.793676317 0
vt 0 0.793676317 0
vt 1 0.795072019 0
vt 0 0.795072019 0
vt 1 0.796458483 0
vt 0 0.796458483 0
vt 1 0.797827065 0
vt 0 0.797827065 0
vt 1 0.799179912 0
vt 0 0.799179912 0
vt 1 0.800525963 0
vt 0 0.800525963 0
vt 1 0.801872373 0
vt 0 0.801872373 0
vt 1 0.803222656 0
vt 0 0.803222656 0
vt 1 0.804577649 0
vt 0 0.804577649 0
vt 1 0.805936456 0
vt 0 0.805936456 0
vt 1 0.807298481 0
vt 0 0.807298481 0
vt 1 0.808663368 0
vt 0 0.808663368 0
vt 1 0.810031116 0
vt 0 0.810031116 0
vt 1 0.811401546 0
vt 0 0.811401546 0
vt 1 0.812774777 0
vt 0 0.812774777 0
vt 1 0.814150631 0
vt 0 0.814150631 0
vt 1 0.815529585 0
vt 0 0.815529585 0
vt 1 0.816911578 0
vt 0 0.816911578 0
vt 1 0.818295956 0
vt 0 0.818295956 0
vt 1 0.819679797 0
vt 0 0.819679797 0
vt 1 0.821058631 0
vt 0 0.821058631 0
vt 1 0.822428167 0
vt 0 0.822428167 0
vt 1 0.823789477 0
vt 0 0.823789477 0
vt 1 0.825147271 0
vt 0 0.825147271 0
vt 1 0.826505244 0
vt 0 0.826505244 0
vt 1 0.827865124 0
vt 0 0.827865124 0
vt 1 0.829227149 0
vt 0 0.829227149 0
vt 1 0.830590844 0
vt 0 0.830590844 0
vt 1 0.83195591 0
vt 0 0.83195591 0
vt 1 0.833322048 0
vt 0 0.833322048 0
vt 1 0.8346892 0
vt 0 0.8346892 0
vt 1 0.836057425 0
vt 0 0.836057425 0
vt 1 0.837426424 0
vt 0 0.837426424 0
vt 1 0.838796318 0
vt 0 0.838796318 0
vt 1 0.840166926 0
vt 0 0.840166926 0
vt 1 0.841538191 0
vt 0 0.841538191 0
vt 1 0.842910051 0
vt 0 0.842910051 0
vt 1 0.84428221 0
vt 0 0.84428221 0
vt 1 0.845654368 0
vt 0 0.845654368 0
vt 1 0.84702599 0
vt 0 0.84702599 0
vt 1 0.848396719 0
vt 0 0.848396719 0
vt 1 0.84976691 0
vt 0 0.84976691 0
vt 1 0.851136863 0
vt 0 0.851136863 0
vt 1 0.852506578 0
vt 0 0.852506578 0
vt 1 0.853876054 0
vt 0 0.853876054 0
vt 1 0.855245292 0
vt 0 0.855245292 0
vt 1 0.856614053 0
vt 0 0.856614053 0
vt 1 0.857982397 0
vt 0 0.857982397 0
vt 1 0.859350026 0
vt 0 0.859350026 0
vt 1 0.86071682 0
vt 0 0.86071682 0
vt 1 0.862082958 0
vt 0 0.862082958 0
vt 1 0.863448203 0
vt 0 0.863448203 0
vt 1 0.864812315 0
vt 0 0.864812315 0
vt 1 0.866174817 0
vt 0 0.866174817 0
vt 1 0.867535472 0
vt 0 0.867535472 0
vt 1 0.868894994 0
vt 0 0.868894994 0
vt 1 0.870255589 0
vt 0 0.870255589 0
vt 1 0.871621072 0
vt 0 0.871621072 0
vt 1 0.872995079 0
vt 0 0.872995079 0
vt 1 0.874375701 0
vt 0 0.874375701 0
vt 1 0.875758708 0
vt 0 0.875758708 0
vt 1 0.87714082 0
vt 0 0.87714082 0
vt 1 0.878520489 0
vt 0 0.878520489 0
vt 1 0.879897356 0
vt 0 0.879897356 0
vt 1 0.88127166 0
vt 0 0.88127166 0
vt 1 0.882643521 0
vt 0 0.882643521 0
vt 1 0.884012818 0
vt 0 0.884012818 0
vt 1 0.885379612 0
vt 0 0.885379612 0
vt 1 0.886743724 0
vt 0 0.886743724 0
vt 1 0.888105035 0
vt 0 0.888105035 0
vt 1 0.889463127 0
vt 0 0.889463127 0
vt 1 0.890817225 0
vt 0 0.890817225 0
vt 1 0.892166913 0
vt 0 0.892166913 0
vt 1 0.893513441 0
vt 0 0.893513441 0
vt 1 0.894861758 0
vt 0 0.894861758 0
vt 1 0.89621985 0
vt 0 0.89621985 0
vt 1 0.897595882 0
vt 0 0.897595882 0
vt 1 0.898986936 0
vt 0 0.898986936 0
vt 1 0.900383949 0
vt 0 0.900383949 0
vt 1 0.901779592 0
vt 0 0.901779592 0
vt 1 0.903170168 0
vt 0 0.903170168 0
vt 1 0.904554904 0
vt 0 0.904554904 0
vt 1 0.905934155 0
vt 0 0.905934155 0
vt 1 0.907308459 0
vt 0 0.907308459 0
vt 1 0.908677936 0
vt 0 0.908677936 0
vt 1 0.910042524 0
vt 0 0.910042524 0
vt 1 0.911402225 0
vt 0 0.911402225 0
vt 1 0.912756145 0
vt 0 0.912756145 0
vt 1 0.91410327 0
vt 0 0.91410327 0
vt 1 0.915442765 0
vt 0 0.915442765 0
vt 1 0.916776121 0
vt 0 0.916776121 0
vt 1 0.918109953 0
vt 0 0.918109953 0
vt 1 0.919456601 0
vt 0 0.919456601 0
vt 1 0.920829654 0
vt 0 0.920829654 0
vt 1 0.922229588 0
vt 0 0.922229588 0
vt 1 0.92364198 0
vt 0 0.92364198 0
vt 1 0.925053656 0
vt 0 0.925053656 0
vt 1 0.926457286 0
vt 0 0.926457286 0
vt 1 0.927850723 0
vt 0 0.927850723 0
vt 1 0.929234684 0
vt 0 0.929234684 0
vt 1 0.930610001 0
vt 0 0.930610001 0
vt 1 0.931977391 0
vt 0 0.931977391 0
vt 1 0.933336496 0
vt 0 0.933336496 0
vt 1 0.934686303 0
vt 0 0.934686303 0
vt 1 0.936024785 0
vt 0 0.936024785 0
vt 1 0.937351167 0
vt 0 0.937351167 0
vt 1 0.938668489 0
vt 0 0.938668489 0
vt 1 0.939988017 0
vt 0 0.939988017 0
vt 1 0.941328824 0
vt 0 0.941328824 0
vt 1 0.942710936 0
vt 0 0.942710936 0
vt 1 0.944129169 0
vt 0 0.944129169 0
vt 1 0.945561469 0
vt 0 0.945561469 0
vt 1 0.946988821 0
vt 0 0.946988821 0
vt 1 0.948401868 0
vt 0 0.948401868 0
vt 1 0.949798048 0
vt 0 0.949798048 0
vt 1 0.951178968 0
vt 0 0.951178968 0
vt 1 0.952545881 0
vt 0 0.952545881 0
vt 1 0.953898072 0
vt 0 0.953898072 0
vt 1 0.955232739 0
vt 0 0.955232739 0
vt 1 0.956548274 0
vt 0 0.956548274 0
vt 1 0.957848847 0
vt 0 0.957848847 0
vt 1 0.959150016 0
vt 0 0.959150016 0
vt 1 0.96047914 0
vt 0 0.96047914 0
vt 1 0.961865127 0
vt 0 0.961865127 0
vt 1 0.963302553 0
vt 0 0.963302553 0
vt 1 0.964758396 0
vt 0 0.964758396 0
vt 1 0.966204166 0
vt 0 0.966204166 0
vt 1 0.967625618 0
vt 0 0.967625618 0
vt 1 0.969018161 0
vt 0 0.969018161 0
vt 1 0.970381498 0
vt 0 0.970381498 0
vt 1 0.971713066 0
vt 0 0.971713066 0
vt 1 0.973013163 0
vt 0 0.973013163 0
vt 1 0.974291086 0
vt 0 0.974291086 0
vt 1 0.975574255 0
vt 0 0.975574255 0
vt 1 0.976906657 0
vt 0 0.976906657 0
vt 1 0.978327632 0
vt 0 0.978327632 0
vt 1 0.979807138 0
vt 0 0.979807138 0
vt 1 0.981290102 0
vt 0 0.981290102 0
vt 1 0.982733786 0
vt 0 0.982733786 0
vt 1 0.984111905 0
vt 0 0.984111905 0
vt 1 0.985423326 0
vt 0 0.985423326 0
vt 1 0.986686707 0
vt 0 0.986686707 0
vt 1 0.987954378 0
vt 0 0.987954378 0
vt 1 0.989288926 0
vt 0 0.989288926 0
vt 1 0.990741372 0
vt 0 0.990741372 0
vt 1 0.992235899 0
vt 0 0.992235899 0
vt 1 0.993681192 0
vt 0 0.993681192 0
vt 1 0.995029032 0
vt 0 0.995029032 0
vt 1 0.996301472 0
vt 0 0.996301472 0
vt 1 0.997558832 0
vt 0 0.997558832 0
vt 1 0.998833776 0
vt 0 0.998833776 0
vt 1 1 0
vt 0 1 0
g 
f 1/1 3/2 4/3 2/4
f 3/2 5/5 6/6 4/3
f 5/5 7/7 8/8 6/6
f 7/7 9/9 10/10 8/8
f 9/9 11/11 12/12 10/10
f 11/11 13/13 14/14 12/12
f 13/13 15/15 16/16 14/14
f 15/15 17/17 18/18 16/16
f 17/17 19/19 20/20 18/18
f 19/19 21/21 22/22 20/20
f 21/21 23/23 24/24 22/22
f 23/23 25/25 26/26 24/24
f 25/25 27/27 28/28 26/26
f 27/27 29/29 30/30 28/28
f 29/29 31/31 32/32 30/30
f 31/31 33/33 34/34 32/32
f 33/33 35/35 36/36 34/34
f 35/35 37/37 38/38 36/36
f 37/37 39/39 40/40 38/38
f 39/39 41/41 42/42 40/40
f 41/41 43/43 44/44 42/42
f 43/43 45/45 46/46 44/44
f 45/45 47/47 48/48 46/46
f 47/47 49/49 50/50 48/48
f 49/49 51/51 52/52 50/50
f 51/51 53/53 54/54 52/52
f 53/53 55/55 56/56 54/54
f 55/55 57/57 58/58 56/56
f 57/57 59/59 60/60 58/58
f 59/59 61/61 62/62 60/60
f 61/61 63/63 64/64 62/62
f 63/63 65/65 66/66 64/64
f 65/65 67/67 68/68 66/66
f 67/67 69/69 70/70 68/68
f 69/69 71/71 72/72 70/70
f 71/71 73/73 74/74 72/72
f 73/73 75/75 76/76 74/74
f 75/75 77/77 78/78 76/76
f 77/77 79/79 80/80 78/78
f 79/79 81/81 82/82 80/80
f 81/81 83/83 84/84 82/82
f 83/83 85/85 86/86 84/84
f 85/85 87/87 88/88 86/86
f 87/87 89/89 90/90 88/88
f 89/89 91/91 92/92 90/90
f 91/91 93/93 94/94 92/92
f 93/93 95/95 96/96 94/94
f 95/95 97/97 98/98 96/96
f 97/97 99/99 100/100 98/98
f 99/99 101/101 102/102 100/100
f 101/101 103/103 104/104 102/102
f 103/103 105/105 106/106 104/104
f 105/105 107/107 108/108 106/106
f 107/107 109/109 110/110 108/108
f 109/109 111/111 112/112 110/110
f 111/111 113/113 114/114 112/112
f 113/113 115/115 116/116 114/114
f 115/115 117/117 118/118 116/116
f 117/117 119/119 120/120 118/118
f 119/119 121/121 122/122 120/120
f 121/121 123/123 124/124 122/122
f 123/123 125/125 126/126 124/124
f 125/125 127/127 128/128 126/126
f 127/127 129/129 130/130 128/128
f 129/129 131/131 132/132 130/130
f 131/131 133/133 134/134 132/132
f 133/133 135/135 136/136 134/134
f 135/135 137/137 138/138 136/136
f 137/137 139/139 140/140 138/138
f 139/139 141/141 142/142 140/140
f 141/141 143/143 144/144 142/142
f 143/143 145/145 146/146 144/144
f 145/145 147/147 148/148 146/146
f 147/147 149/149 150/150 148/148
f 149/149 151/151 152/152 150/150
f 151/151 153/153 154/154 152/152
f 153/153 155/155 156/156 154/154
f 155/155 157/157 158/158 156/156
f 157/157 159/159 160/160 158/158
f 159/159 161/161 162/162 160/160
f 161/161 163/163 164/164 162/162
f 163/163 165/165 166/166 164/164
f 165/165 167/167 168/168 166/166
f 167/167 169/169 170/170 168/168
f 169/169 171/171 172/172 170/170
f 171/171 173/173 174/174 172/172
f 173/173 175/175 176/176 174/174
f 175/175 177/177 178/178 176/176
f 177/177 179/179 180/180 178/178
f 179/179 181/181 182/182 180/180
f 181/181 183/183 184/184 182/182
f 183/183 185/185 186/186 184/184
f 185/185 187/187 188/188 186/186
f 187/187 189/189 190/190 188/188
f 189/189 191/191 192/192 190/190
f 191/191 193/193 194/194 192/192
f 193/193 195/195 196/196 194/194
f 195/195 197/197 198/198 196/196
f 197/197 199/199 200/200 198/198
f 199/199 201/201 202/202 200/200
f 201/201 203/203 204/204 202/202
f 203/203 205/205 206/206 204/204
f 205/205 207/207 208/208 206/206
f 207/207 209/209 210/210 208/208
f 209/209 211/211 212/212 210/210
f 211/211 213/213 214/214 212/212
f 213/213 215/215 216/216 214/214
f 215/215 217/217 218/218 216/216
f 217/217 219/219 220/220 218/218
f 219/219 221/221 222/222 220/220
f 221/221 223/223 224/224 222/222
f 223/223 225/225 226/226 224/224
f 225/225 227/227 228/228 226/226
f 227/227 229/229 230/230 228/228
f 229/229 231/231 232/232 230/230
f 231/231 233/233 234/234 232/232
f 233/233 235/235 236/236 234/234
f 235/235 237/237 238/238 236/236
f 237/237 239/239 240/240 238/238
f 239/239 241/241 242/242 240/240
f 241/241 243/243 244/244 242/242
f 243/243 245/245 246/246 244/244
f 245/245 247/247 248/248 246/246
f 247/247 249/249 250/250 248/248
f 249/249 251/251 252/252 250/250
f 251/251 253/253 254/254 252/252
f 253/253 255/255 256/256 254/254
f 255/255 257/257 258/258 256/256
f 257/257 259/259 260/260 258/258
f 259/259 261/261 262/262 260/260
f 261/261 263/263 264/264 262/262
f 263/263 265/265 266/266 264/264
f 265/265 267/267 268/268 266/266
f 267/267 269/269 270/270 268/268
f 269/269 271/271 272/272 270/270
f 271/271 273/273 274/274 272/272
f 273/273 275/275 276/276 274/274
f 275/275 277/277 278/278 276/276
f 277/277 279/279 280/280 278/278
f 279/279 281/281 282/282 280/280
f 281/281 283/283 284/284 282/282
f 283/283 285/285 286/286 284/284
f 285/285 287/287 288/288 286/286
f 287/287 289/289 290/290 288/288
f 289/289 291/291 292/292 290/290
f 291/291 293/293 294/294 292/292
f 293/293 295/295 296/296 294/294
f 295/295 297/297 298/298 296/296
f 297/297 299/299 300/300 298/298
f 299/299 301/301 302/302 300/300
f 301/301 303/303 304/304 302/302
f 303/303 305/305 306/306 304/304
f 305/305 307/307 308/308 306/306
f 307/307 309/309 310/310 308/308
f 309/309 311/311 312/312 310/310
f 311/311 313/313 314/314 312/312
f 313/313 315/315 316/316 314/314
f 315/315 317/317 318/318 316/316
f 317/317 319/319 320/320 318/318
f 319/319 321/321 322/322 320/320
f 321/321 323/323 324/324 322/322
f 323/323 325/325 326/326 324/324
f 325/325 327/327 328/328 326/326
f 327/327 329/329 330/330 328/328
f 329/329 331/331 332/332 330/330
f 331/331 333/333 334/334 332/332
f 333/333 335/335 336/336 334/334
f 335/335 337/337 338/338 336/336
f 337/337 339/339 340/340 338/338
f 339/339 341/341 342/342 340/340
f 341/341 343/343 344/344 342/342
f 343/343 345/345 346/346 344/344
f 345/345 347/347 348/348 346/346
f 347/347 349/349 350/350 348/348
f 349/349 351/351 352/352 350/350
f 351/351 353/353 354/354 352/352
f 353/353 355/355 356/356 354/354
f 355/355 357/357 358/358 356/356
f 357/357 359/359 360/360 358/358
f 359/359 361/361 362/362 360/360
f 361/361 363/363 364/364 362/362
f 363/363 365/365 366/366 364/364
f 365/365 367/367 368/368 366/366
f 367/367 369/369 370/370 368/368
f 369/369 371/371 372/372 370/370
f 371/371 373/373 374/374 372/372
f 373/373 375/375 376/376 374/374
f 375/375 377/377 378/378 376/376
f 377/377 379/379 380/380 378/378
f 379/379 381/381 382/382 380/380
f 381/381 383/383 384/384 382/382
f 383/383 385/385 386/386 384/384
f 385/385 387/387 388/388 386/386
f 387/387 389/389 390/390 388/388
f 389/389 391/391 392/392 390/390
f 391/391 393/393 394/394 392/392
f 393/393 395/395 396/396 394/394
f 395/395 397/397 398/398 396/396
f 397/397 399/399 400/400 398/398
f 399/399 401/401 402/402 400/400
f 401/401 403/403 404/404 402/402
f 403/403 405/405 406/406 404/404
f 405/405 407/407 408/408 406/406
f 407/407 409/409 410/410 408/408
f 409/409 411/411 412/412 410/410
f 411/411 413/413 414/414 412/412
f 413/413 415/415 416/416 414/414
f 415/415 417/417 418/418 416/416
f 417/417 419/419 420/420 418/418
f 419/419 421/421 422/422 420/420
f 421/421 423/423 424/424 422/422
f 423/423 425/425 426/426 424/424
f 425/425 427/427 428/428 426/426
f 427/427 429/429 430/430 428/428
f 429/429 431/431 432/432 430/430
f 431/431 433/433 434/434 432/432
f 433/433 435/435 436/436 434/434
f 435/435 437/437 438/438 436/436
f 437/437 439/439 440/440 438/438
f 439/439 441/441 442/442 440/440
f 441/441 443/443 444/444 442/442
f 443/443 445/445 446/446 444/444
f 445/445 447/447 448/448 446/446
f 447/447 449/449 450/450 448/448
f 449/449 451/451 452/452 450/450
f 451/451 453/453 454/454 452/452
f 453/453 455/455 456/456 454/454
f 455/455 457/457 458/458 456/456
f 457/457 459/459 460/460 458/458
f 459/459 461/461 462/462 460/460
f 461/461 463/463 464/464 462/462
f 463/463 465/465 466/466 464/464
f 465/465 467/467 468/468 466/466
f 467/467 469/469 470/470 468/468
f 469/469 471/471 472/472 470/470
f 471/471 473/473 474/474 472/472
f 473/473 475/475 476/476 474/474
f 475/475 477/477 478/478 476/476
f 477/477 479/479 480/480 478/478
f 479/479 481/481 482/482 480/480
f 481/481 483/483 484/484 482/482
f 483/483 485/485 486/486 484/484
f 485/485 487/487 488/488 486/486
f 487/487 489/489 490/490 488/488
f 489/489 491/491 492/492 490/490
f 491/491 493/493 494/494 492/492
f 493/493 495/495 496/496 494/494
f 495/495 497/497 498/498 496/496
f 497/497 499/499 500/500 498/498
f 499/499 501/501 502/502 500/500
f 501/501 503/503 504/504 502/502
f 503/503 505/505 506/506 504/504
f 505/505 507/507 508/508 506/506
f 507/507 509/509 510/510 508/508
f 509/509 511/511 512/512 510/510
f 511/511 513/513 514/514 512/512
f 513/513 515/515 516/516 514/514
f 515/515 517/517 518/518 516/516
f 517/517 519/519 520/520 518/518
f 519/519 521/521 522/522 520/520
f 521/521 523/523 524/524 522/522
f 523/523 525/525 526/526 524/524
f 525/525 527/527 528/528 526/526
f 527/527 529/529 530/530 528/528
f 529/529 531/531 532/532 530/530
f 531/531 533/533 534/534 532/532
f 533/533 535/535 536/536 534/534
f 535/535 537/537 538/538 536/536
f 537/537 539/539 540/540 538/538
f 539/539 541/541 542/542 540/540
f 541/541 543/543 544/544 542/542
f 543/543 545/545 546/546 544/544
f 545/545 547/547 548/548 546/546
f 547/547 549/549 550/550 548/548
f 549/549 551/551 552/552 550/550
f 551/551 553/553 554/554 552/552
f 553/553 555/555 556/556 554/554
f 555/555 557/557 558/558 556/556
f 557/557 559/559 560/560 558/558
f 559/559 561/561 562/562 560/560
f 561/561 563/563 564/564 562/562
f 563/563 565/565 566/566 564/564
f 565/565 567/567 568/568 566/566
f 567/567 569/569 570/570 568/568
f 569/569 571/571 572/572 570/570
f 571/571 573/573 574/574 572/572
f 573/573 575/575 576/576 574/574
f 575/575 577/577 578/578 576/576
f 577/577 579/579 580/580 578/578
f 579/579 581/581 582/582 580/580
f 581/581 583/583 584/584 582/582
f 583/583 585/585 586/586 584/584
f 585/585 587/587 588/588 586/586
f 587/587 589/589 590/590 588/588
f 589/589 591/591 592/592 590/590
f 591/591 593/593 594/594 592/592
f 593/593 595/595 596/596 594/594
f 595/595 597/597 598/598 596/596
f 597/597 599/599 600/600 598/598
f 599/599 601/601 602/602 600/600
f 601/601 603/603 604/604 602/602
f 603/603 605/605 606/606 604/604
f 605/605 607/607 608/608 606/606
f 607/607 609/609 610/610 608/608
f 609/609 611/611 612/612 610/610
f 611/611 613/613 614/614 612/612
f 613/613 615/615 616/616 614/614
f 615/615 617/617 618/618 616/616
f 617/617 619/619 620/620 618/618
f 619/619 621/621 622/622 620/620
f 621/621 623/623 624/624 622/622
f 623/623 625/625 626/626 624/624
f 625/625 627/627 628/628 626/626
f 627/627 629/629 630/630 628/628
f 629/629 631/631 632/632 630/630
f 631/631 633/633 634/634 632/632
f 633/633 635/635 636/636 634/634
f 635/635 637/637 638/638 636/636
f 637/637 639/639 640/640 638/638
f 639/639 641/641 642/642 640/640
f 641/641 643/643 644/644 642/642
f 643/643 645/645 646/646 644/644
f 645/645 647/647 648/648 646/646
f 647/647 649/649 650/650 648/648
f 649/649 651/651 652/652 650/650
f 651/651 653/653 654/654 652/652
f 653/653 655/655 656/656 654/654
f 655/655 657/657 658/658 656/656
f 657/657 659/659 660/660 658/658
f 659/659 661/661 662/662 660/660
f 661/661 663/663 664/664 662/662
f 663/663 665/665 666/666 664/664
f 665/665 667/667 668/668 666/666
f 667/667 669/669 670/670 668/668
f 669/669 671/671 672/672 670/670
f 671/671 673/673 674/674 672/672
f 673/673 675/675 676/676 674/674
f 675/675 677/677 678/678 676/676
f 677/677 679/679 680/680 678/678
f 679/679 681/681 682/682 680/680
f 681/681 683/683 684/684 682/682
f 683/683 685/685 686/686 684/684
f 685/685 687/687 688/688 686/686
f 687/687 689/689 690/690 688/688
f 689/689 691/691 692/692 690/690
f 691/691 693/693 694/694 692/692
f 693/693 695/695 696/696 694/694
f 695/695 697/697 698/698 696/696
f 697/697 699/699 700/700 698/698
f 699/699 701/701 702/702 700/700
f 701/701 703/703 704/704 702/702
f 703/703 705/705 706/706 704/704
f 705/705 707/707 708/708 706/706
f 707/707 709/709 710/710 708/708
f 709/709 711/711 712/712 710/710
f 711/711 713/713 714/714 712/712
f 713/713 715/715 716/716 714/714
f 715/715 717/717 718/718 716/716
f 717/717 719/719 720/720 718/718
f 719/719 721/721 722/722 720/720
f 721/721 723/723 724/724 722/722
f 723/723 725/725 726/726 724/724
f 725/725 727/727 728/728 726/726
f 727/727 729/729 730/730 728/728
f 729/729 731/731 732/732 730/730
f 731/731 733/733 734/734 732/732
f 733/733 735/735 736/736 734/734
f 735/735 737/737 738/738 736/736
f 737/737 739/739 740/740 738/738
f 739/739 741/741 742/742 740/740
f 741/741 743/743 744/744 742/742
f 743/743 745/745 746/746 744/744
f 745/745 747/747 748/748 746/746
f 747/747 749/749 750/750 748/748
f 749/749 751/751 752/752 750/750
f 751/751 753/753 754/754 752/752
f 753/753 755/755 756/756 754/754
f 755/755 757/757 758/758 756/756
f 757/757 759/759 760/760 758/758
f 759/759 761/761 762/762 760/760
f 761/761 763/763 764/764 762/762
f 763/763 765/765 766/766 764/764
f 765/765 767/767 768/768 766/766
f 767/767 769/769 770/770 768/768
f 769/769 771/771 772/772 770/770
f 771/771 773/773 774/774 772/772
f 773/773 775/775 776/776 774/774
f 775/775 777/777 778/778 776/776
f 777/777 779/779 780/780 778/778
f 779/779 781/781 782/782 780/780
f 781/781 783/783 784/784 782/782
f 783/783 785/785 786/786 784/784
f 785/785 787/787 788/788 786/786
f 787/787 789/789 790/790 788/788
f 789/789 791/791 792/792 790/790
f 791/791 793/793 794/794 792/792
f 793/793 795/795 796/796 794/794
f 795/795 797/797 798/798 796/796
f 797/797 799/799 800/800 798/798
f 799/799 801/801 802/802 800/800
f 801/801 803/803 804/804 802/802
f 803/803 805/805 806/806 804/804
f 805/805 807/807 808/808 806/806
f 807/807 809/809 810/810 808/808
f 809/809 811/811 812/812 810/810
f 811/811 813/813 814/814 812/812
f 813/813 815/815 816/816 814/814
f 815/815 817/817 818/818 816/816
f 817/817 819/819 820/820 818/818
f 819/819 821/821 822/822 820/820
f 821/821 823/823 824/824 822/822
f 823/823 825/825 826/826 824/824
f 825/825 827/827 828/828 826/826
f 827/827 829/829 830/830 828/828
f 829/829 831/831 832/832 830/830
f 831/831 833/833 834/834 832/832
f 833/833 835/835 836/836 834/834
f 835/835 837/837 838/838 836/836
f 837/837 839/839 840/840 838/838
f 839/839 841/841 842/842 840/840
f 841/841 843/843 844/844 842/842
f 843/843 845/845 846/846 844/844
f 845/845 847/847 848/848 846/846
f 847/847 849/849 850/850 848/848
f 849/849 851/851 852/852 850/850
f 851/851 853/853 854/854 852/852
f 853/853 855/855 856/856 854/854
f 855/855 857/857 858/858 856/856
f 857/857 859/859 860/860 858/858
f 859/859 861/861 862/862 860/860
f 861/861 863/863 864/864 862/862
f 863/863 865/865 866/866 864/864
f 865/865 867/867 868/868 866/866
f 867/867 869/869 870/870 868/868
f 869/869 871/871 872/872 870/870
f 871/871 873/873 874/874 872/872
f 873/873 875/875 876/876 874/874
f 875/875 877/877 878/878 876/876
f 877/877 879/879 880/880 878/878
f 879/879 881/881 882/882 880/880
f 881/881 883/883 884/884 882/882
f 883/883 885/885 886/886 884/884
f 885/885 887/887 888/888 886/886
f 887/887 889/889 890/890 888/888
f 889/889 891/891 892/892 890/890
f 891/891 893/893 894/894 892/892
f 893/893 895/895 896/896 894/894
f 895/895 897/897 898/898 896/896
f 897/897 899/899 900/900 898/898
f 899/899 901/901 902/902 900/900
f 901/901 903/903 904/904 902/902
f 903/903 905/905 906/906 904/904
f 905/905 907/907 908/908 906/906
f 907/907 909/909 910/910 908/908
f 909/909 911/911 912/912 910/910
f 911/911 913/913 914/914 912/912
f 913/913 915/915 916/916 914/914
f 915/915 917/917 918/918 916/916
f 917/917 919/919 920/920 918/918
f 919/919 921/921 922/922 920/920
f 921/921 923/923 924/924 922/922
f 923/923 925/925 926/926 924/924
f 925/925 927/927 928/928 926/926
f 927/927 929/929 930/930 928/928
f 929/929 931/931 932/932 930/930
f 931/931 933/933 934/934 932/932
f 933/933 935/935 936/936 934/934
f 935/935 937/937 938/938 936/936
f 937/937 939/939 940/940 938/938
f 939/939 941/941 942/942 940/940
f 941/941 943/943 944/944 942/942
f 943/943 945/945 946/946 944/944
f 945/945 947/947 948/948 946/946
f 947/947 949/949 950/950 948/948
f 949/949 951/951 952/952 950/950
f 951/951 953/953 954/954 952/952
f 953/953 955/955 956/956 954/954
f 955/955 957/957 958/958 956/956
f 957/957 959/959 960/960 958/958
f 959/959 961/961 962/962 960/960
f 961/961 963/963 964/964 962/962
f 963/963 965/965 966/966 964/964
f 965/965 967/967 968/968 966/966
f 967/967 969/969 970/970 968/968
f 969/969 971/971 972/972 970/970
f 971/971 973/973 974/974 972/972
f 973/973 975/975 976/976 974/974
f 975/975 977/977 978/978 976/976
f 977/977 979/979 980/980 978/978
f 979/979 981/981 982/982 980/980
f 981/981 983/983 984/984 982/982
f 983/983 985/985 986/986 984/984
f 985/985 987/987 988/988 986/986
f 987/987 989/989 990/990 988/988
f 989/989 991/991 992/992 990/990
f 991/991 993/993 994/994 992/992
f 993/993 995/995 996/996 994/994
f 995/995 997/997 998/998 996/996
f 997/997 999/999 1000/1000 998/998
f 999/999 1001/1001 1002/1002 1000/1000
f 1001/1001 1003/1003 1004/1004 1002/1002
f 1003/1003 1005/1005 1006/1006 1004/1004
f 1005/1005 1007/1007 1008/1008 1006/1006
f 1007/1007 1009/1009 1010/1010 1008/1008
f 1009/1009 1011/1011 1012/1012 1010/1010
f 1011/1011 1013/1013 1014/1014 1012/1012
f 1013/1013 1015/1015 1016/1016 1014/1014
f 1015/1015 1017/1017 1018/1018 1016/1016
f 1017/1017 1019/1019 1020/1020 1018/1018
f 1019/1019 1021/1021 1022/1022 1020/1020
f 1021/1021 1023/1023 1024/1024 1022/1022
f 1023/1023 1025/1025 1026/1026 1024/1024
f 1025/1025 1027/1027 1028/1028 1026/1026
f 1027/1027 1029/1029 1030/1030 1028/1028
f 1029/1029 1031/1031 1032/1032 1030/1030
f 1031/1031 1033/1033 1034/1034 1032/1032
f 1033/1033 1035/1035 1036/1036 1034/1034
f 1035/1035 1037/1037 1038/1038 1036/1036
f 1037/1037 1039/1039 1040/1040 1038/1038
f 1039/1039 1041/1041 1042/1042 1040/1040
f 1041/1041 1043/1043 1044/1044 1042/1042
f 1043/1043 1045/1045 1046/1046 1044/1044
f 1045/1045 1047/1047 1048/1048 1046/1046
f 1047/1047 1049/1049 1050/1050 1048/1048
f 1049/1049 1051/1051 1052/1052 1050/1050
f 1051/1051 1053/1053 1054/1054 1052/1052
f 1053/1053 1055/1055 1056/1056 1054/1054
f 1055/1055 1057/1057 1058/1058 1056/1056
f 1057/1057 1059/1059 1060/1060 1058/1058
f 1059/1059 1061/1061 1062/1062 1060/1060
f 1061/1061 1063/1063 1064/1064 1062/1062
f 1063/1063 1065/1065 1066/1066 1064/1064
f 1065/1065 1067/1067 1068/1068 1066/1066
f 1067/1067 1069/1069 1070/1070 1068/1068
f 1069/1069 1071/1071 1072/1072 1070/1070
f 1071/1071 1073/1073 1074/1074 1072/1072
f 1073/1073 1075/1075 1076/1076 1074/1074
f 1075/1075 1077/1077 1078/1078 1076/1076
f 1077/1077 1079/1079 1080/1080 1078/1078
f 1079/1079 1081/1081 1082/1082 1080/1080
f 1081/1081 1083/1083 1084/1084 1082/1082
f 1083/1083 1085/1085 1086/1086 1084/1084
f 1085/1085 1087/1087 1088/1088 1086/1086
f 1087/1087 1089/1089 1090/1090 1088/1088
f 1089/1089 1091/1091 1092/1092 1090/1090
f 1091/1091 1093/1093 1094/1094 1092/1092
f 1093/1093 1095/1095 1096/1096 1094/1094
f 1095/1095 1097/1097 1098/1098 1096/1096
f 1097/1097 1099/1099 1100/1100 1098/1098
f 1099/1099 1101/1101 1102/1102 1100/1100
f 1101/1101 1103/1103 1104/1104 1102/1102
f 1103/1103 1105/1105 1106/1106 1104/1104
f 1105/1105 1107/1107 1108/1108 1106/1106
f 1107/1107 1109/1109 1110/1110 1108/1108
f 1109/1109 1111/1111 1112/1112 1110/1110
f 1111/1111 1113/1113 1114/1114 1112/1112
f 1113/1113 1115/1115 1116/1116 1114/1114
f 1115/1115 1117/1117 1118/1118 1116/1116
f 1117/1117 1119/1119 1120/1120 1118/1118
f 1119/1119 1121/1121 1122/1122 1120/1120
f 1121/1121 1123/1123 1124/1124 1122/1122
f 1123/1123 1125/1125 1126/1126 1124/1124
f 1125/1125 1127/1127 1128/1128 1126/1126
f 1127/1127 1129/1129 1130/1130 1128/1128
f 1129/1129 1131/1131 1132/1132 1130/1130
f 1131/1131 1133/1133 1134/1134 1132/1132
f 1133/1133 1135/1135 1136/1136 1134/1134
f 1135/1135 1137/1137 1138/1138 1136/1136
f 1137/1137 1139/1139 1140/1140 1138/1138
f 1139/1139 1141/1141 1142/1142 1140/1140
f 1141/1141 1143/1143 1144/1144 1142/1142
f 1143/1143 1145/1145 1146/1146 1144/1144
f 1145/1145 1147/1147 1148/1148 1146/1146
f 1147/1147 1149/1149 1150/1150 1148/1148
f 1149/1149 1151/1151 1152/1152 1150/1150
f 1151/1151 1153/1153 1154/1154 1152/1152
f 1153/1153 1155/1155 1156/1156 1154/1154
f 1155/1155 1157/1157 1158/1158 1156/1156
f 1157/1157 1159/1159 1160/1160 1158/1158
f 1159/1159 1161/1161 1162/1162 1160/1160
f 1161/1161 1163/1163 1164/1164 1162/1162
f 1163/1163 1165/1165 1166/1166 1164/1164
f 1165/1165 1167/1167 1168/1168 1166/1166
f 1167/1167 1169/1169 1170/1170 1168/1168
f 1169/1169 1171/1171 1172/1172 1170/1170
f 1171/1171 1173/1173 1174/1174 1172/1172
f 1173/1173 1175/1175 1176/1176 1174/1174
f 1175/1175 1177/1177 1178/1178 1176/1176
f 1177/1177 1179/1179 1180/1180 1178/1178
f 1179/1179 1181/1181 1182/1182 1180/1180
f 1181/1181 1183/1183 1184/1184 1182/1182
f 1183/1183 1185/1185 1186/1186 1184/1184
f 1185/1185 1187/1187 1188/1188 1186/1186
f 1187/1187 1189/1189 1190/1190 1188/1188
f 1189/1189 1191/1191 1192/1192 1190/1190
f 1191/1191 1193/1193 1194/1194 1192/1192
f 1193/1193 1195/1195 1196/1196 1194/1194
f 1195/1195 1197/1197 1198/1198 1196/1196
f 1197/1197 1199/1199 1200/1200 1198/1198
f 1199/1199 1201/1201 1202/1202 1200/1200
f 1201/1201 1203/1203 1204/1204 1202/1202
f 1203/1203 1205/1205 1206/1206 1204/1204
f 1205/1205 1207/1207 1208/1208 1206/1206
f 1207/1207 1209/1209 1210/1210 1208/1208
f 1209/1209 1211/1211 1212/1212 1210/1210
f 1211/1211 1213/1213 1214/1214 1212/1212
f 1213/1213 1215/1215 1216/1216 1214/1214
f 1215/1215 1217/1217 1218/1218 1216/1216
f 1217/1217 1219/1219 1220/1220 1218/1218
f 1219/1219 1221/1221 1222/1222 1220/1220
f 1221/1221 1223/1223 1224/1224 1222/1222
f 1223/1223 1225/1225 1226/1226 1224/1224
f 1225/1225 1227/1227 1228/1228 1226/1226
f 1227/1227 1229/1229 1230/1230 1228/1228
f 1229/1229 1231/1231 1232/1232 1230/1230
f 1231/1231 1233/1233 1234/1234 1232/1232
f 1233/1233 1235/1235 1236/1236 1234/1234
f 1235/1235 1237/1237 1238/1238 1236/1236
f 1237/1237 1239/1239 1240/1240 1238/1238
f 1239/1239 1241/1241 1242/1242 1240/1240
f 1241/1241 1243/1243 1244/1244 1242/1242
f 1243/1243 1245/1245 1246/1246 1244/1244
f 1245/1245 1247/1247 1248/1248 1246/1246
f 1247/1247 1249/1249 1250/1250 1248/1248
f 1249/1249 1251/1251 1252/1252 1250/1250
f 1251/1251 1253/1253 1254/1254 1252/1252
f 1253/1253 1255/1255 1256/1256 1254/1254
f 1255/1255 1257/1257 1258/1258 1256/1256
f 1257/1257 1259/1259 1260/1260 1258/1258
f 1259/1259 1261/1261 1262/1262 1260/1260
f 1261/1261 1263/1263 1264/1264 1262/1262
f 1263/1263 1265/1265 1266/1266 1264/1264
f 1265/1265 1267/1267 1268/1268 1266/1266
f 1267/1267 1269/1269 1270/1270 1268/1268
f 1269/1269 1271/1271 1272/1272 1270/1270
f 1271/1271 1273/1273 1274/1274 1272/1272
f 1273/1273 1275/1275 1276/1276 1274/1274
f 1275/1275 1277/1277 1278/1278 1276/1276
f 1277/1277 1279/1279 1280/1280 1278/1278
f 1279/1279 1281/1281 1282/1282 1280/1280
f 1281/1281 1283/1283 1284/1284 1282/1282
f 1283/1283 1285/1285 1286/1286 1284/1284
f 1285/1285 1287/1287 1288/1288 1286/1286
f 1287/1287 1289/1289 1290/1290 1288/1288
f 1289/1289 1291/1291 1292/1292 1290/1290
f 1291/1291 1293/1293 1294/1294 1292/1292
f 1293/1293 1295/1295 1296/1296 1294/1294
f 1295/1295 1297/1297 1298/1298 1296/1296
f 1297/1297 1299/1299 1300/1300 1298/1298
f 1299/1299 1301/1301 1302/1302 1300/1300
f 1301/1301 1303/1303 1304/1304 1302/1302
f 1303/1303 1305/1305 1306/1306 1304/1304
f 1305/1305 1307/1307 1308/1308 1306/1306
f 1307/1307 1309/1309 1310/1310 1308/1308
f 1309/1309 1311/1311 1312/1312 1310/1310
f 1311/1311 1313/1313 1314/1314 1312/1312
f 1313/1313 1315/1315 1316/1316 1314/1314
f 1315/1315 1317/1317 1318/1318 1316/1316
f 1317/1317 1319/1319 1320/1320 1318/1318
f 1319/1319 1321/1321 1322/1322 1320/1320
f 1321/1321 1323/1323 1324/1324 1322/1322
f 1323/1323 1325/1325 1326/1326 1324/1324
f 1325/1325 1327/1327 1328/1328 1326/1326
f 1327/1327 1329/1329 1330/1330 1328/1328
f 1329/1329 1331/1331 1332/1332 1330/1330
f 1331/1331 1333/1333 1334/1334 1332/1332
f 1333/1333 1335/1335 1336/1336 1334/1334
f 1335/1335 1337/1337 1338/1338 1336/1336
f 1337/1337 1339/1339 1340/1340 1338/1338
f 1339/1339 1341/1341 1342/1342 1340/1340
f 1341/1341 1343/1343 1344/1344 1342/1342
f 1343/1343 1345/1345 1346/1346 1344/1344
f 1345/1345 1347/1347 1348/1348 1346/1346
f 1347/1347 1349/1349 1350/1350 1348/1348
f 1349/1349 1351/1351 1352/1352 1350/1350
f 1351/1351 1353/1353 1354/1354 1352/1352
f 1353/1353 1355/1355 1356/1356 1354/1354
f 1355/1355 1357/1357 1358/1358 1356/1356
f 1357/1357 1359/1359 1360/1360 1358/1358
f 1359/1359 1361/1361 1362/1362 1360/1360
f 1361/1361 1363/1363 1364/1364 1362/1362
f 1363/1363 1365/1365 1366/1366 1364/1364
f 1365/1365 1367/1367 1368/1368 1366/1366
f 1367/1367 1369/1369 1370/1370 1368/1368
f 1369/1369 1371/1371 1372/1372 1370/1370
f 1371/1371 1373/1373 1374/1374 1372/1372
f 1373/1373 1375/1375 1376/1376 1374/1374
f 1375/1375 1377/1377 1378/1378 1376/1376
f 1377/1377 1379/1379 1380/1380 1378/1378
f 1379/1379 1381/1381 1382/1382 1380/1380
f 1381/1381 1383/1383 1384/1384 1382/1382
f 1383/1383 1385/1385 1386/1386 1384/1384
f 1385/1385 1387/1387 1388/1388 1386/1386
f 1387/1387 1389/1389 1390/1390 1388/1388
f 1389/1389 1391/1391 1392/1392 1390/1390
f 1391/1391 1393/1393 1394/1394 1392/1392
f 1393/1393 1395/1395 1396/1396 1394/1394
f 1395/1395 1397/1397 1398/1398 1396/1396
f 1397/1397 1399/1399 1400/1400 1398/1398
f 1399/1399 1401/1401 1402/1402 1400/1400
f 1401/1401 1403/1403 1404/1404 1402/1402
f 1403/1403 1405/1405 1406/1406 1404/1404
f 1405/1405 1407/1407 1408/1408 1406/1406
f 1407/1407 1409/1409 1410/1410 1408/1408
f 1409/1409 1411/1411 1412/1412 1410/1410
f 1411/1411 1413/1413 1414/1414 1412/1412
f 1413/1413 1415/1415 1416/1416 1414/1414
f 1415/1415 1417/1417 1418/1418 1416/1416
f 1417/1417 1419/1419 1420/1420 1418/1418
f 1419/1419 1421/1421 1422/1422 1420/1420
f 1421/1421 1423/1423 1424/1424 1422/1422
f 1423/1423 1425/1425 1426/1426 1424/1424
f 1425/1425 1427/1427 1428/1428 1426/1426
f 1427/1427 1429/1429 1430/1430 1428/1428
f 1429/1429 1431/1431 1432/1432 1430/1430
f 1431/1431 1433/1433 1434/1434 1432/1432
f 1433/1433 1435/1435 1436/1436 1434/1434
f 1435/1435 1437/1437 1438/1438 1436/1436
f 1437/1437 1439/1439 1440/1440 1438/1438
f 1439/1439 1441/1441 1442/1442 1440/1440
f 1441/1441 1443/1443 1444/1444 1442/1442
f 1443/1443 1445/1445 1446/1446 1444/1444
f 1445/1445 1447/1447 1448/1448 1446/1446
f 1447/1447 1449/1449 1450/1450 1448/1448
f 1449/1449 1451/1451 1452/1452 1450/1450
f 1451/1451 1453/1453 1454/1454 1452/1452
f 1453/1453 1455/1455 1456/1456 1454/1454
f 1455/1455 1457/1457 1458/1458 1456/1456
f 1457/1457 1459/1459 1460/1460 1458/1458
f 1459/1459 1461/1461 1462/1462 1460/1460
f 1461/1461 1463/1463 1464/1464 1462/1462
f 1463/1463 1465/1465 1466/1466 1464/1464
