# File exported by Houdini 22.0.368 (www.sidefx.com)
# 1104 points
# 4140 vertices
# 1035 primitives
# Bounds: [-3, 1.74425682e-11, -1] to [3, 1.39999998, 1]
g 
v 3 8.89876339e-10 -1
v 3 1.61790314e-09 -0.868599296
v 2.86666656 1.61790314e-09 -0.868599296
v 2.86666656 8.89876339e-10 -1
v 0.866666675 1.61790314e-09 -0.868599296
v 0.733333349 1.61790314e-09 -0.868599296
v 0.733333349 8.89876339e-10 -1
v 0.866666675 8.89876339e-10 -1
v 1 1.61790314e-09 -0.868599296
v 1 1.27631106e-09 -0.737198591
v 0.866666675 1.27631106e-09 -0.737198591
v 0.733333349 1.27631106e-09 -0.737198591
v 1 8.89876339e-10 -1
v 0.600000024 1.61790314e-09 -0.868599296
v 0.600000024 8.89876339e-10 -1
v 0.600000024 1.27631106e-09 -0.737198591
v 0.466666669 1.61790314e-09 -0.868599296
v 0.466666669 8.89876339e-10 -1
v 0.466666669 1.27631106e-09 -0.737198591
v 0.333333343 1.61790314e-09 -0.868599296
v 0.333333343 8.89876339e-10 -1
v 0.333333343 1.27631106e-09 -0.737198591
v 0.200000003 1.61790314e-09 -0.868599296
v 0.200000003 8.89876339e-10 -1
v 0.200000003 1.27631106e-09 -0.737198591
v 0.0666666701 1.61790314e-09 -0.868599296
v 0.0666666701 8.89876339e-10 -1
v 0.0666666701 1.27631106e-09 -0.737198591
v -0.0666666701 1.61790314e-09 -0.868599296
v -0.0666666701 8.89876339e-10 -1
v -0.0666666701 1.27631106e-09 -0.737198591
v -0.200000003 1.61790314e-09 -0.868599296
v -0.200000003 8.89876339e-10 -1
v -0.200000003 1.27631106e-09 -0.737198591
v -0.333333343 1.61790314e-09 -0.868599296
v -0.333333343 8.89876339e-10 -1
v -0.333333343 1.27631106e-09 -0.737198591
v -0.466666669 1.61790314e-09 -0.868599296
v -0.466666669 8.89876339e-10 -1
v -0.466666669 1.27631106e-09 -0.737198591
v -0.600000024 1.61790314e-09 -0.868599296
v -0.600000024 8.89876339e-10 -1
v -0.600000024 1.27631106e-09 -0.737198591
v -0.733333349 1.61790314e-09 -0.868599296
v -0.733333349 8.89876339e-10 -1
v -0.733333349 1.27631106e-09 -0.737198591
v -0.866666675 1.61790314e-09 -0.868599296
v -0.866666675 8.89876339e-10 -1
v -0.866666675 1.27631106e-09 -0.737198591
v -1 1.61790314e-09 -0.868599296
v -1 8.89876339e-10 -1
v -1 1.27631106e-09 -0.737198591
v -1.13333333 1.61790314e-09 -0.868599296
v -1.13333333 8.89876339e-10 -1
v -1.13333333 1.27631106e-09 -0.737198591
v -1.26666665 1.61790314e-09 -0.868599296
v -1.26666665 8.89876339e-10 -1
v -1.26666665 1.27631106e-09 -0.737198591
v -1.39999998 1.61790314e-09 -0.868599296
v -1.39999998 8.89876339e-10 -1
v -1.39999998 1.27631106e-09 -0.737198591
v -1.5333333 1.61790314e-09 -0.868599296
v -1.5333333 8.89876339e-10 -1
v -1.5333333 1.27631106e-09 -0.737198591
v -1.66666663 1.61790314e-09 -0.868599296
v -1.66666663 8.89876339e-10 -1
v -1.66666663 1.27631106e-09 -0.737198591
v -1.79999995 1.61790314e-09 -0.868599296
v -1.79999995 8.89876339e-10 -1
v -1.79999995 1.27631106e-09 -0.737198591
v -1.93333328 1.61790314e-09 -0.868599296
v -1.93333328 8.89876339e-10 -1
v -1.93333328 1.27631106e-09 -0.737198591
v -2.0666666 1.61790314e-09 -0.868599296
v -2.0666666 8.89876339e-10 -1
v -2.0666666 1.27631106e-09 -0.737198591
v -2.20000005 1.61790314e-09 -0.868599296
v -2.20000005 8.89876339e-10 -1
v -2.20000005 1.27631106e-09 -0.737198591
v -2.33333325 1.61790314e-09 -0.868599296
v -2.33333325 8.89876339e-10 -1
v -2.33333325 1.27631106e-09 -0.737198591
v -2.4666667 1.61790314e-09 -0.868599296
v -2.4666667 8.89876339e-10 -1
v -2.4666667 1.27631106e-09 -0.737198591
v -2.5999999 1.61790314e-09 -0.868599296
v -2.5999999 8.89876339e-10 -1
v -2.5999999 1.27631106e-09 -0.737198591
v -2.73333335 1.61790314e-09 -0.868599296
v -2.73333335 8.89876339e-10 -1
v -2.73333335 1.27631106e-09 -0.737198591
v -2.86666656 1.61790314e-09 -0.868599296
v -2.86666656 8.89876339e-10 -1
v -2.86666656 1.27631106e-09 -0.737198591
v -3 1.61790314e-09 -0.868599296
v -3 8.89876339e-10 -1
v -3 1.27631106e-09 -0.737198591
v 3 1.27631106e-09 -0.737198591
v 2.86666656 1.27631106e-09 -0.737198591
v 2.73333335 1.61790314e-09 -0.868599296
v 2.73333335 8.89876339e-10 -1
v 2.73333335 1.27631106e-09 -0.737198591
v 2.5999999 1.61790314e-09 -0.868599296
v 2.5999999 8.89876339e-10 -1
v 2.5999999 1.27631106e-09 -0.737198591
v 2.4666667 1.61790314e-09 -0.868599296
v 2.4666667 8.89876339e-10 -1
v 2.4666667 1.27631106e-09 -0.737198591
v 2.33333325 1.61790314e-09 -0.868599296
v 2.33333325 8.89876339e-10 -1
v 2.33333325 1.27631106e-09 -0.737198591
v 2.20000005 1.61790314e-09 -0.868599296
v 2.20000005 8.89876339e-10 -1
v 2.20000005 1.27631106e-09 -0.737198591
v 2.0666666 1.61790314e-09 -0.868599296
v 2.0666666 8.89876339e-10 -1
v 2.0666666 1.27631106e-09 -0.737198591
v 1.93333328 1.61790314e-09 -0.868599296
v 1.93333328 8.89876339e-10 -1
v 1.93333328 1.27631106e-09 -0.737198591
v 1.79999995 1.61790314e-09 -0.868599296
v 1.79999995 8.89876339e-10 -1
v 1.79999995 1.27631106e-09 -0.737198591
v 1.66666663 1.61790314e-09 -0.868599296
v 1.66666663 8.89876339e-10 -1
v 1.66666663 1.27631106e-09 -0.737198591
v 1.5333333 1.61790314e-09 -0.868599296
v 1.5333333 8.89876339e-10 -1
v 1.5333333 1.27631106e-09 -0.737198591
v 1.39999998 1.61790314e-09 -0.868599296
v 1.39999998 8.89876339e-10 -1
v 1.39999998 1.27631106e-09 -0.737198591
v 1.26666665 1.61790314e-09 -0.868599296
v 1.26666665 8.89876339e-10 -1
v 1.26666665 1.27631106e-09 -0.737198591
v 1.13333333 1.61790314e-09 -0.868599296
v 1.13333333 8.89876339e-10 -1
v 1.13333333 1.27631106e-09 -0.737198591
v -1.13333333 4.8591009e-10 -0.605797946
v -1.26666665 4.8591009e-10 -0.605797946
v -1.39999998 4.8591009e-10 -0.605797946
v -1.5333333 4.8591009e-10 -0.605797946
v -1.66666663 4.8591009e-10 -0.605797946
v -1.79999995 4.8591009e-10 -0.605797946
v -1.93333328 4.8591009e-10 -0.605797946
v -2.0666666 4.8591009e-10 -0.605797946
v -2.20000005 4.8591009e-10 -0.605797946
v -2.33333325 4.8591009e-10 -0.605797946
v -2.4666667 4.8591009e-10 -0.605797946
v -2.5999999 4.8591009e-10 -0.605797946
v -2.73333335 4.8591009e-10 -0.605797946
v -2.86666656 4.8591009e-10 -0.605797946
v -3 4.8591009e-10 -0.605797946
v 3 4.8591009e-10 -0.605797946
v 2.86666656 4.8591009e-10 -0.605797946
v 2.73333335 4.8591009e-10 -0.605797946
v 2.5999999 4.8591009e-10 -0.605797946
v 2.4666667 4.8591009e-10 -0.605797946
v 2.33333325 4.8591009e-10 -0.605797946
v 2.20000005 4.8591009e-10 -0.605797946
v 2.0666666 4.8591009e-10 -0.605797946
v 1.93333328 4.8591009e-10 -0.605797946
v 1.79999995 4.8591009e-10 -0.605797946
v 1.66666663 4.8591009e-10 -0.605797946
v 1.5333333 4.8591009e-10 -0.605797946
v 1.39999998 4.8591009e-10 -0.605797946
v 1.26666665 4.8591009e-10 -0.605797946
v 1.13333333 4.8591009e-10 -0.605797946
v 1 4.8591009e-10 -0.605797946
v 0.866666675 4.8591009e-10 -0.605797946
v 0.733333349 4.8591009e-10 -0.605797946
v 0.600000024 4.8591009e-10 -0.605797946
v 0.466666669 4.8591009e-10 -0.605797946
v 0.333333343 4.8591009e-10 -0.605797946
v 0.200000003 4.8591009e-10 -0.605797946
v 0.0666666701 4.8591009e-10 -0.605797946
v -0.0666666701 4.8591009e-10 -0.605797946
v -0.200000003 4.8591009e-10 -0.605797946
v -0.333333343 4.8591009e-10 -0.605797946
v -0.466666669 4.8591009e-10 -0.605797946
v -0.600000024 4.8591009e-10 -0.605797946
v -0.733333349 4.8591009e-10 -0.605797946
v -0.866666675 4.8591009e-10 -0.605797946
v -1 4.8591009e-10 -0.605797946
v 2.86666656 1.74426792e-11 -0.474397272
v 2.73333335 1.74426792e-11 -0.474397272
v 2.5999999 1.74426792e-11 -0.474397272
v 2.4666667 1.74426792e-11 -0.474397272
v 2.33333325 1.74426792e-11 -0.474397272
v 2.20000005 1.74426792e-11 -0.474397272
v 2.0666666 1.74426792e-11 -0.474397272
v 1.93333328 1.74426792e-11 -0.474397272
v 1.79999995 1.74426792e-11 -0.474397272
v 1.66666663 1.74426792e-11 -0.474397272
v 1.5333333 1.74426792e-11 -0.474397272
v 1.39999998 1.74426792e-11 -0.474397272
v 1.26666665 1.74426792e-11 -0.474397272
v 1.13333333 1.74426792e-11 -0.474397272
v 1 1.74426792e-11 -0.474397272
v 0.866666675 1.74426792e-11 -0.474397272
v 0.733333349 1.74426792e-11 -0.474397272
v 0.600000024 1.74426792e-11 -0.474397272
v 0.466666669 1.74426792e-11 -0.474397272
v 0.333333343 1.74426792e-11 -0.474397272
v 0.200000003 1.74426792e-11 -0.474397272
v 0.0666666701 1.74426792e-11 -0.474397272
v -0.0666666701 1.74426792e-11 -0.474397272
v -0.200000003 1.74426792e-11 -0.474397272
v -0.333333343 1.74426792e-11 -0.474397272
v -0.466666669 1.74426792e-11 -0.474397272
v -0.600000024 1.74426792e-11 -0.474397272
v -0.733333349 1.74426792e-11 -0.474397272
v -0.866666675 1.74426792e-11 -0.474397272
v -1 1.74426792e-11 -0.474397272
v -1.13333333 1.74426792e-11 -0.474397272
v -1.26666665 1.74426792e-11 -0.474397272
v -1.39999998 1.74426792e-11 -0.474397272
v -1.5333333 1.74426792e-11 -0.474397272
v -1.66666663 1.74426792e-11 -0.474397272
v -1.79999995 1.74426792e-11 -0.474397272
v -1.93333328 1.74426792e-11 -0.474397272
v -2.0666666 1.74426792e-11 -0.474397272
v -2.20000005 1.74426792e-11 -0.474397272
v -2.33333325 1.74426792e-11 -0.474397272
v -2.4666667 1.74426792e-11 -0.474397272
v -2.5999999 1.74426792e-11 -0.474397272
v -2.73333335 1.74426792e-11 -0.474397272
v -2.86666656 1.74426792e-11 -0.474397272
v -3 1.74425682e-11 -0.474397242
v 3 1.74425682e-11 -0.474397242
v 0.733333349 0.00019633476 -0.342996955
v 0.600000024 0.00019633476 -0.342996955
v 0.466666669 0.00019633476 -0.342996955
v 0.333333343 0.00019633476 -0.342996955
v 0.200000003 0.00019633476 -0.342996955
v 0.0666666701 0.00019633476 -0.342996955
v -0.0666666701 0.00019633476 -0.342996955
v -0.200000003 0.00019633476 -0.342996955
v -0.333333343 0.00019633476 -0.342996955
v -0.466666669 0.00019633476 -0.342996955
v -0.600000024 0.00019633476 -0.342996955
v -0.733333349 0.00019633476 -0.342996955
v -0.866666675 0.00019633476 -0.342996955
v -1 0.00019633476 -0.342996955
v -1.13333333 0.00019633476 -0.342996955
v -1.26666665 0.00019633476 -0.342996955
v -1.39999998 0.00019633476 -0.342996955
v -1.5333333 0.00019633476 -0.342996955
v -1.66666663 0.00019633476 -0.342996955
v -1.79999995 0.00019633476 -0.342996955
v -1.93333328 0.00019633476 -0.342996955
v -2.0666666 0.00019633476 -0.342996955
v -2.20000005 0.00019633476 -0.342996955
v -2.33333325 0.00019633476 -0.342996955
v -2.4666667 0.00019633476 -0.342996955
v -2.5999999 0.00019633476 -0.342996955
v -2.73333335 0.00019633476 -0.342996955
v -2.86666656 0.00019633476 -0.342996955
v -3 0.000196334979 -0.342996806
v 3 0.000196334979 -0.342996806
v 2.86666656 0.00019633476 -0.342996955
v 2.73333335 0.00019633476 -0.342996955
v 2.5999999 0.00019633476 -0.342996955
v 2.4666667 0.00019633476 -0.342996955
v 2.33333325 0.00019633476 -0.342996955
v 2.20000005 0.00019633476 -0.342996955
v 2.0666666 0.00019633476 -0.342996955
v 1.93333328 0.00019633476 -0.342996955
v 1.79999995 0.00019633476 -0.342996955
v 1.66666663 0.00019633476 -0.342996955
v 1.5333333 0.00019633476 -0.342996955
v 1.39999998 0.00019633476 -0.342996955
v 1.26666665 0.00019633476 -0.342996955
v 1.13333333 0.00019633476 -0.342996955
v 1 0.00019633476 -0.342996955
v 0.866666675 0.00019633476 -0.342996955
v -1.39999998 0.00135345093 -0.211602032
v -1.5333333 0.00135345093 -0.211602032
v -1.66666663 0.00135345093 -0.211602032
v -1.79999995 0.00135345093 -0.211602032
v -1.93333328 0.00135345093 -0.211602032
v -2.0666666 0.00135345093 -0.211602032
v -2.20000005 0.00135345093 -0.211602032
v -2.33333325 0.00135345093 -0.211602032
v -2.4666667 0.00135345093 -0.211602032
v -2.5999999 0.00135345093 -0.211602032
v -2.73333335 0.00135345093 -0.211602032
v -2.86666656 0.00135345093 -0.211602032
v -3 0.00135345163 -0.211601958
v 3 0.00135345163 -0.211601958
v 2.86666656 0.00135345093 -0.211602032
v 2.73333335 0.00135345093 -0.211602032
v 2.5999999 0.00135345093 -0.211602032
v 2.4666667 0.00135345093 -0.211602032
v 2.33333325 0.00135345093 -0.211602032
v 2.20000005 0.00135345093 -0.211602032
v 2.0666666 0.00135345093 -0.211602032
v 1.93333328 0.00135345093 -0.211602032
v 1.79999995 0.00135345093 -0.211602032
v 1.66666663 0.00135345093 -0.211602032
v 1.5333333 0.00135345093 -0.211602032
v 1.39999998 0.00135345093 -0.211602032
v 1.26666665 0.00135345093 -0.211602032
v 1.13333333 0.00135345093 -0.211602032
v 1 0.00135345093 -0.211602032
v 0.866666675 0.00135345093 -0.211602032
v 0.733333349 0.00135345093 -0.211602032
v 0.600000024 0.00135345093 -0.211602032
v 0.466666669 0.00135345093 -0.211602032
v 0.333333343 0.00135345093 -0.211602032
v 0.200000003 0.00135345093 -0.211602032
v 0.0666666701 0.00135345093 -0.211602032
v -0.0666666701 0.00135345093 -0.211602032
v -0.200000003 0.00135345093 -0.211602032
v -0.333333343 0.00135345093 -0.211602032
v -0.466666669 0.00135345093 -0.211602032
v -0.600000024 0.00135345093 -0.211602032
v -0.733333349 0.00135345093 -0.211602032
v -0.866666675 0.00135345093 -0.211602032
v -1 0.00135345093 -0.211602032
v -1.13333333 0.00135345093 -0.211602032
v -1.26666665 0.00135345093 -0.211602032
v 2.5999999 0.00387376104 -0.0802265406
v 2.4666667 0.00387376104 -0.0802265406
v 2.33333325 0.00387376104 -0.0802265406
v 2.20000005 0.00387376104 -0.0802265406
v 2.0666666 0.00387376104 -0.0802265406
v 1.93333328 0.00387376104 -0.0802265406
v 1.79999995 0.00387376104 -0.0802265406
v 1.66666663 0.00387376104 -0.0802265406
v 1.5333333 0.00387376104 -0.0802265406
v 1.39999998 0.00387376104 -0.0802265406
v 1.26666665 0.00387376104 -0.0802265406
v 1.13333333 0.00387376104 -0.0802265406
v 1 0.00387376104 -0.0802265406
v 0.866666675 0.00387376104 -0.0802265406
v 0.733333349 0.00387376104 -0.0802265406
v 0.600000024 0.00387376104 -0.0802265406
v 0.466666669 0.00387376104 -0.0802265406
v 0.333333343 0.00387376104 -0.0802265406
v 0.200000003 0.00387376104 -0.0802265406
v 0.0666666701 0.00387376104 -0.0802265406
v -0.0666666701 0.00387376104 -0.0802265406
v -0.200000003 0.00387376104 -0.0802265406
v -0.333333343 0.00387376104 -0.0802265406
v -0.466666669 0.00387376104 -0.0802265406
v -0.600000024 0.00387376104 -0.0802265406
v -0.733333349 0.00387376104 -0.0802265406
v -0.866666675 0.00387376104 -0.0802265406
v -1 0.00387376104 -0.0802265406
v -1.13333333 0.00387376104 -0.0802265406
v -1.26666665 0.00387376104 -0.0802265406
v -1.39999998 0.00387376104 -0.0802265406
v -1.5333333 0.00387376104 -0.0802265406
v -1.66666663 0.00387376104 -0.0802265406
v -1.79999995 0.00387376104 -0.0802265406
v -1.93333328 0.00387376104 -0.0802265406
v -2.0666666 0.00387376104 -0.0802265406
v -2.20000005 0.00387376104 -0.0802265406
v -2.33333325 0.00387376104 -0.0802265406
v -2.4666667 0.00387376104 -0.0802265406
v -2.5999999 0.00387376104 -0.0802265406
v -2.73333335 0.00387376104 -0.0802265406
v -2.86666656 0.00387376174 -0.0802265108
v -3 0.00387376547 -0.080226317
v 3 0.00387376547 -0.080226317
v 2.86666656 0.00387376174 -0.0802265108
v 2.73333335 0.00387376128 -0.0802265331
v 0.466666669 0.00780683011 0.0511132181
v 0.333333343 0.00780683011 0.0511132181
v 0.200000003 0.00780683011 0.0511132181
v 0.0666666701 0.00780683011 0.0511132181
v -0.0666666701 0.00780683011 0.0511132181
v -0.200000003 0.00780683011 0.0511132181
v -0.333333343 0.00780683011 0.0511132181
v -0.466666669 0.00780683011 0.0511132181
v -0.600000024 0.00780683011 0.0511132181
v -0.733333349 0.00780683011 0.0511132181
v -0.866666675 0.00780683011 0.0511132181
v -1 0.00780683011 0.0511132181
v -1.13333333 0.00780683011 0.0511132181
v -1.26666665 0.00780683011 0.0511132181
v -1.39999998 0.00780683011 0.0511132181
v -1.5333333 0.00780683011 0.0511132181
v -1.66666663 0.00780683011 0.0511132181
v -1.79999995 0.00780683011 0.0511132181
v -1.93333328 0.00780683011 0.0511132181
v -2.0666666 0.00780683011 0.0511132181
v -2.20000005 0.00780683011 0.0511132181
v -2.33333325 0.00780683011 0.0511132181
v -2.4666667 0.00780683011 0.0511132181
v -2.5999999 0.00780683011 0.0511132181
v -2.73333335 0.00780683011 0.0511132181
v -2.86666656 0.0078068329 0.0511133112
v -3 0.00780685572 0.0511140786
v 3 0.00780685572 0.0511140786
v 2.86666656 0.0078068329 0.0511133112
v 2.73333335 0.00780683011 0.0511132181
v 2.5999999 0.00780683011 0.0511132181
v 2.4666667 0.00780683011 0.0511132181
v 2.33333325 0.00780683011 0.0511132181
v 2.20000005 0.00780683011 0.0511132181
v 2.0666666 0.00780683011 0.0511132181
v 1.93333328 0.00780683011 0.0511132181
v 1.79999995 0.00780683011 0.0511132181
v 1.66666663 0.00780683011 0.0511132181
v 1.5333333 0.00780683011 0.0511132181
v 1.39999998 0.00780683011 0.0511132181
v 1.26666665 0.00780683011 0.0511132181
v 1.13333333 0.00780683011 0.0511132181
v 1 0.00780683011 0.0511132181
v 0.866666675 0.00780683011 0.0511132181
v 0.733333349 0.00780683011 0.0511132181
v 0.600000024 0.00780683011 0.0511132181
v -1.66666663 0.0138054583 0.182370067
v -1.79999995 0.0138054583 0.182370067
v -1.93333328 0.0138054583 0.182370067
v -2.0666666 0.0138054583 0.182370067
v -2.20000005 0.0138054583 0.182370067
v -2.33333325 0.0138054583 0.182370067
v -2.4666667 0.0138054583 0.182370067
v -2.5999999 0.0138054583 0.182370067
v -2.73333335 0.0138054593 0.182370082
v -2.86666656 0.0138054797 0.182370529
v -3 0.0138056558 0.182374373
v 3 0.0138056558 0.182374373
v 2.86666656 0.0138054797 0.182370529
v 2.73333335 0.0138054593 0.182370082
v 2.5999999 0.0138054583 0.182370067
v 2.4666667 0.0138054583 0.182370067
v 2.33333325 0.0138054583 0.182370067
v 2.20000005 0.0138054583 0.182370067
v 2.0666666 0.0138054583 0.182370067
v 1.93333328 0.0138054583 0.182370067
v 1.79999995 0.0138054583 0.182370067
v 1.66666663 0.0138054583 0.182370067
v 1.5333333 0.0138054583 0.182370067
v 1.39999998 0.0138054583 0.182370067
v 1.26666665 0.0138054583 0.182370067
v 1.13333333 0.0138054583 0.182370067
v 1 0.0138054583 0.182370067
v 0.866666675 0.0138054583 0.182370067
v 0.733333349 0.0138054583 0.182370067
v 0.600000024 0.0138054583 0.182370067
v 0.466666669 0.0138054583 0.182370067
v 0.333333343 0.0138054583 0.182370067
v 0.200000003 0.0138054583 0.182370067
v 0.0666666701 0.0138054583 0.182370067
v -0.0666666701 0.0138054583 0.182370067
v -0.200000003 0.0138054583 0.182370067
v -0.333333343 0.0138054583 0.182370067
v -0.466666669 0.0138054583 0.182370067
v -0.600000024 0.0138054583 0.182370067
v -0.733333349 0.0138054583 0.182370067
v -0.866666675 0.0138054583 0.182370067
v -1 0.0138054583 0.182370067
v -1.13333333 0.0138054583 0.182370067
v -1.26666665 0.0138054583 0.182370067
v -1.39999998 0.0138054583 0.182370067
v -1.5333333 0.0138054583 0.182370067
v 2.33333325 0.0233386699 0.313390434
v 2.20000005 0.0233386699 0.313390434
v 2.0666666 0.0233386699 0.313390434
v 1.93333328 0.0233386699 0.313390434
v 1.79999995 0.0233386699 0.313390434
v 1.66666663 0.0233386699 0.313390434
v 1.5333333 0.0233386699 0.313390434
v 1.39999998 0.0233386699 0.313390434
v 1.26666665 0.0233386699 0.313390434
v 1.13333333 0.0233386699 0.313390434
v 1 0.0233386699 0.313390434
v 0.866666675 0.0233386699 0.313390434
v 0.733333349 0.0233386699 0.313390434
v 0.600000024 0.0233386699 0.313390434
v 0.466666669 0.0233386699 0.313390434
v 0.333333343 0.0233386699 0.313390434
v 0.200000003 0.0233386699 0.313390434
v 0.0666666701 0.0233386699 0.313390434
v -0.0666666701 0.0233386699 0.313390434
v -0.200000003 0.0233386699 0.313390434
v -0.333333343 0.0233386699 0.313390434
v -0.466666669 0.0233386699 0.313390434
v -0.600000024 0.0233386699 0.313390434
v -0.733333349 0.0233386699 0.313390434
v -0.866666675 0.0233386699 0.313390434
v -1 0.0233386699 0.313390434
v -1.13333333 0.0233386699 0.313390434
v -1.26666665 0.0233386699 0.313390434
v -1.39999998 0.0233386699 0.313390434
v -1.5333333 0.0233386699 0.313390434
v -1.66666663 0.0233386699 0.313390434
v -1.79999995 0.0233386699 0.313390434
v -1.93333328 0.0233386699 0.313390434
v -2.0666666 0.0233386699 0.313390434
v -2.20000005 0.0233386699 0.313390434
v -2.33333325 0.0233386699 0.313390434
v -2.4666667 0.0233386699 0.313390434
v -2.5999999 0.0233386699 0.313390434
v -2.73333335 0.0233386792 0.313390583
v -2.86666656 0.0233388934 0.313393533
v -3 0.023340635 0.313417464
v 3 0.023340635 0.313417464
v 2.86666656 0.0233388934 0.313393533
v 2.73333335 0.0233386792 0.313390583
v 2.5999999 0.0233386699 0.313390434
v 2.4666667 0.0233386699 0.313390434
v 0.200000003 0.0397522636 0.443591535
v 0.0666666701 0.0397522636 0.443591535
v -0.0666666701 0.0397522636 0.443591535
v -0.200000003 0.0397522636 0.443591535
v -0.333333343 0.0397522636 0.443591535
v -0.466666669 0.0397522636 0.443591535
v -0.600000024 0.0397522636 0.443591535
v -0.733333349 0.0397522636 0.443591535
v -0.866666675 0.0397522636 0.443591535
v -1 0.0397522636 0.443591535
v -1.13333333 0.0397522636 0.443591535
v -1.26666665 0.0397522636 0.443591535
v -1.39999998 0.0397522636 0.443591535
v -1.5333333 0.0397522636 0.443591535
v -1.66666663 0.0397522636 0.443591535
v -1.79999995 0.0397522636 0.443591535
v -1.93333328 0.0397522636 0.443591535
v -2.0666666 0.0397522636 0.443591535
v -2.20000005 0.0397522636 0.443591535
v -2.33333325 0.0397522636 0.443591535
v -2.4666667 0.0397522636 0.443591535
v -2.5999999 0.0397522636 0.443591565
v -2.73333335 0.0397523865 0.443592519
v -2.86666656 0.0397542305 0.443607152
v -3 0.0397702567 0.443734258
v 3 0.0397702567 0.443734258
v 2.86666656 0.0397542305 0.443607152
v 2.73333335 0.0397523865 0.443592519
v 2.5999999 0.0397522636 0.443591565
v 2.4666667 0.0397522636 0.443591535
v 2.33333325 0.0397522636 0.443591535
v 2.20000005 0.0397522636 0.443591535
v 2.0666666 0.0397522636 0.443591535
v 1.93333328 0.0397522636 0.443591535
v 1.79999995 0.0397522636 0.443591535
v 1.66666663 0.0397522636 0.443591535
v 1.5333333 0.0397522636 0.443591535
v 1.39999998 0.0397522636 0.443591535
v 1.26666665 0.0397522636 0.443591535
v 1.13333333 0.0397522636 0.443591535
v 1 0.0397522636 0.443591535
v 0.866666675 0.0397522636 0.443591535
v 0.733333349 0.0397522636 0.443591535
v 0.600000024 0.0397522636 0.443591535
v 0.466666669 0.0397522636 0.443591535
v 0.333333343 0.0397522636 0.443591535
v -1.79999995 0.0781789944 0.568665445
v -1.93333328 0.0781789944 0.568665445
v -2.0666666 0.0781789944 0.568665445
v -2.20000005 0.0781789944 0.568665445
v -2.33333325 0.0781789944 0.568665445
v -2.4666667 0.0781789944 0.568665445
v -2.5999999 0.0781789944 0.568665504
v -2.73333335 0.0781792402 0.568666279
v -2.86666608 0.0781829432 0.568678319
v -3 0.0782156885 0.568784833
v 3 0.0782156885 0.568784833
v 2.86666608 0.0781829432 0.568678319
v 2.73333335 0.0781792402 0.568666279
v 2.5999999 0.0781789944 0.568665504
v 2.4666667 0.0781789944 0.568665445
v 2.33333325 0.0781789944 0.568665445
v 2.20000005 0.0781789944 0.568665445
v 2.0666666 0.0781789944 0.568665445
v 1.93333328 0.0781789944 0.568665445
v 1.79999995 0.0781789944 0.568665445
v 1.66666663 0.0781789944 0.568665445
v 1.5333333 0.0781789944 0.568665445
v 1.39999998 0.0781789944 0.568665445
v 1.26666665 0.0781789944 0.568665445
v 1.13333333 0.0781789944 0.568665445
v 1 0.0781789944 0.568665445
v 0.866666675 0.0781789944 0.568665445
v 0.733333349 0.0781789944 0.568665445
v 0.600000024 0.0781789944 0.568665445
v 0.466666669 0.0781789944 0.568665445
v 0.333333343 0.0781789944 0.568665445
v 0.200000003 0.0781789944 0.568665445
v 0.0666666701 0.0781789944 0.568665445
v -0.0666666701 0.0781789944 0.568665445
v -0.200000003 0.0781789944 0.568665445
v -0.333333343 0.0781789944 0.568665445
v -0.466666669 0.0781789944 0.568665445
v -0.600000024 0.0781789944 0.568665445
v -0.733333349 0.0781789944 0.568665445
v -0.866666675 0.0781789944 0.568665445
v -1 0.0781789944 0.568665445
v -1.13333333 0.0781789944 0.568665445
v -1.26666665 0.0781789944 0.568665445
v -1.39999998 0.0781789944 0.568665445
v -1.5333333 0.0781789944 0.568665445
v -1.66666663 0.0781789944 0.568665445
v 2.0666666 0.152833551 0.67575568
v 1.93333328 0.152833551 0.67575568
v 1.79999995 0.152833551 0.67575568
v 1.66666663 0.152833551 0.67575568
v 1.5333333 0.152833551 0.67575568
v 1.39999998 0.152833551 0.67575568
v 1.26666665 0.152833551 0.67575568
v 1.13333333 0.152833551 0.67575568
v 1 0.152833551 0.67575568
v 0.866666675 0.152833551 0.67575568
v 0.733333349 0.152833551 0.67575568
v 0.600000024 0.152833551 0.67575568
v 0.466666669 0.152833551 0.67575568
v 0.333333343 0.152833551 0.67575568
v 0.200000003 0.152833551 0.67575568
v 0.0666666701 0.152833551 0.67575568
v -0.0666666701 0.152833551 0.67575568
v -0.200000003 0.152833551 0.67575568
v -0.333333343 0.152833551 0.67575568
v -0.466666669 0.152833551 0.67575568
v -0.600000024 0.152833551 0.67575568
v -0.733333349 0.152833551 0.67575568
v -0.866666675 0.152833551 0.67575568
v -1 0.152833551 0.67575568
v -1.13333333 0.152833551 0.67575568
v -1.26666665 0.152833551 0.67575568
v -1.39999998 0.152833551 0.67575568
v -1.5333333 0.152833551 0.67575568
v -1.66666663 0.152833551 0.67575568
v -1.79999995 0.152833551 0.67575568
v -1.93333328 0.152833551 0.67575568
v -2.0666666 0.152833551 0.67575568
v -2.20000005 0.152833551 0.67575568
v -2.33333325 0.152833551 0.67575568
v -2.4666667 0.152833551 0.67575568
v -2.5999999 0.152833506 0.67575568
v -2.73333335 0.152832955 0.675755203
v -2.86666608 0.152824774 0.675748765
v -3 0.152751863 0.675691426
v 3 0.152751863 0.675691426
v 2.86666608 0.152824774 0.675748765
v 2.73333335 0.152832955 0.675755203
v 2.5999999 0.152833506 0.67575568
v 2.4666667 0.152833551 0.67575568
v 2.33333325 0.152833551 0.67575568
v 2.20000005 0.152833551 0.67575568
v -0.0666666701 0.255629629 0.756600916
v -0.200000003 0.255629629 0.756600916
v -0.333333343 0.255629629 0.756600916
v -0.466666669 0.255629599 0.756600916
v -0.600000024 0.255629629 0.756600916
v -0.733333349 0.255629629 0.756600916
v -0.866666675 0.255629629 0.756600916
v -1 0.255629599 0.756600916
v -1.13333333 0.255629629 0.756600916
v -1.26666665 0.255629629 0.756600916
v -1.39999998 0.255629629 0.756600916
v -1.5333333 0.255629599 0.756600916
v -1.66666663 0.255629629 0.756600916
v -1.79999995 0.255629629 0.756600916
v -1.93333328 0.255629629 0.756600916
v -2.0666666 0.255629599 0.756600916
v -2.20000005 0.255629599 0.756600916
v -2.33333325 0.255629629 0.756600916
v -2.4666667 0.255629629 0.756600916
v -2.5999999 0.255629569 0.756600857
v -2.73333335 0.255628824 0.756600499
v -2.86666656 0.255616963 0.756594658
v -3 0.255514294 0.756543875
v 3 0.255514294 0.756543875
v 2.86666656 0.255616963 0.756594658
v 2.73333335 0.255628824 0.756600499
v 2.5999999 0.255629569 0.756600857
v 2.4666667 0.255629629 0.756600916
v 2.33333325 0.255629629 0.756600916
v 2.20000005 0.255629599 0.756600916
v 2.0666666 0.255629599 0.756600916
v 1.93333328 0.255629629 0.756600916
v 1.79999995 0.255629629 0.756600916
v 1.66666663 0.255629629 0.756600916
v 1.5333333 0.255629599 0.756600916
v 1.39999998 0.255629629 0.756600916
v 1.26666665 0.255629629 0.756600916
v 1.13333333 0.255629629 0.756600916
v 1 0.255629599 0.756600916
v 0.866666675 0.255629629 0.756600916
v 0.733333349 0.255629629 0.756600916
v 0.600000024 0.255629629 0.756600916
v 0.466666669 0.255629629 0.756600916
v 0.333333343 0.255629629 0.756600916
v 0.200000003 0.255629629 0.756600916
v 0.0666666701 0.255629629 0.756600916
v -2.20000005 0.373181462 0.814721406
v -2.33333325 0.373181462 0.814721406
v -2.4666667 0.373181462 0.814721406
v -2.5999999 0.373181403 0.814721346
v -2.73333335 0.373181105 0.814721286
v -2.86666656 0.373176247 0.814719439
v -3 0.373134553 0.814704061
v 3 0.373134553 0.814704061
v 2.86666656 0.373176247 0.814719439
v 2.73333335 0.373181105 0.814721286
v 2.5999999 0.373181403 0.814721346
v 2.4666667 0.373181462 0.814721406
v 2.33333325 0.373181462 0.814721406
v 2.20000005 0.373181462 0.814721406
v 2.0666666 0.373181462 0.814721406
v 1.93333328 0.373181462 0.814721406
v 1.79999995 0.373181462 0.814721406
v 1.66666663 0.373181462 0.814721406
v 1.5333333 0.373181462 0.814721406
v 1.39999998 0.373181462 0.814721406
v 1.26666665 0.373181462 0.814721406
v 1.13333333 0.373181462 0.814721406
v 1 0.373181462 0.814721406
v 0.866666675 0.373181462 0.814721406
v 0.733333349 0.373181462 0.814721406
v 0.600000024 0.373181462 0.814721406
v 0.466666669 0.373181462 0.814721406
v 0.333333343 0.373181462 0.814721406
v 0.200000003 0.373181462 0.814721406
v 0.0666666701 0.373181462 0.814721406
v -0.0666666701 0.373181462 0.814721406
v -0.200000003 0.373181462 0.814721406
v -0.333333343 0.373181462 0.814721406
v -0.466666669 0.373181462 0.814721406
v -0.600000024 0.373181462 0.814721406
v -0.733333349 0.373181462 0.814721406
v -0.866666675 0.373181462 0.814721406
v -1 0.373181462 0.814721406
v -1.13333333 0.373181462 0.814721406
v -1.26666665 0.373181462 0.814721406
v -1.39999998 0.373181462 0.814721406
v -1.5333333 0.373181462 0.814721406
v -1.66666663 0.373181462 0.814721406
v -1.79999995 0.373181462 0.814721406
v -1.93333328 0.373181462 0.814721406
v -2.0666666 0.373181462 0.814721406
v 1.66666663 0.49636367 0.860222816
v 1.5333333 0.49636367 0.860222816
v 1.39999998 0.49636367 0.860222816
v 1.26666665 0.49636367 0.860222816
v 1.13333333 0.49636367 0.860222816
v 1 0.49636367 0.860222816
v 0.866666675 0.49636367 0.860222816
v 0.733333349 0.49636367 0.860222816
v 0.600000024 0.49636367 0.860222816
v 0.466666669 0.49636367 0.860222816
v 0.333333343 0.49636367 0.860222816
v 0.200000003 0.49636367 0.860222816
v 0.0666666701 0.49636367 0.860222816
v -0.0666666701 0.49636367 0.860222816
v -0.200000003 0.49636367 0.860222816
v -0.333333343 0.49636367 0.860222816
v -0.466666669 0.49636367 0.860222816
v -0.600000024 0.49636367 0.860222816
v -0.733333349 0.49636367 0.860222816
v -0.866666675 0.49636367 0.860222816
v -1 0.49636367 0.860222816
v -1.13333333 0.49636367 0.860222816
v -1.26666665 0.49636367 0.860222816
v -1.39999998 0.49636367 0.860222816
v -1.5333333 0.49636367 0.860222816
v -1.66666663 0.49636367 0.860222816
v -1.79999995 0.49636367 0.860222816
v -1.93333328 0.49636367 0.860222816
v -2.0666666 0.49636367 0.860222816
v -2.20000005 0.49636367 0.860222816
v -2.33333325 0.49636367 0.860222816
v -2.4666667 0.49636367 0.860222816
v -2.5999999 0.49636367 0.860222816
v -2.73333335 0.49636358 0.860222757
v -2.86666656 0.49636215 0.86022234
v -3 0.496349603 0.860218346
v 3 0.496349603 0.860218346
v 2.86666656 0.49636215 0.86022234
v 2.73333335 0.49636358 0.860222757
v 2.5999999 0.49636367 0.860222816
v 2.4666667 0.49636367 0.860222816
v 2.33333325 0.49636367 0.860222816
v 2.20000005 0.49636367 0.860222816
v 2.0666666 0.49636367 0.860222816
v 1.93333328 0.49636367 0.860222816
v 1.79999995 0.49636367 0.860222816
v -0.333333343 0.621619523 0.899855614
v -0.466666669 0.621619523 0.899855614
v -0.600000024 0.621619523 0.899855614
v -0.733333349 0.621619523 0.899855614
v -0.866666675 0.621619523 0.899855614
v -1 0.621619523 0.899855614
v -1.13333333 0.621619523 0.899855614
v -1.26666665 0.621619523 0.899855614
v -1.39999998 0.621619523 0.899855614
v -1.5333333 0.621619523 0.899855614
v -1.66666663 0.621619523 0.899855614
v -1.79999995 0.621619523 0.899855614
v -1.93333328 0.621619523 0.899855614
v -2.0666666 0.621619523 0.899855614
v -2.20000005 0.621619523 0.899855614
v -2.33333325 0.621619523 0.899855614
v -2.4666667 0.621619523 0.899855614
v -2.5999999 0.621619523 0.899855614
v -2.73333335 0.621619582 0.899855614
v -2.86666656 0.621619761 0.899855673
v -3 0.621620893 0.899856031
v 3 0.621620893 0.899856031
v 2.86666656 0.621619761 0.899855673
v 2.73333335 0.621619582 0.899855614
v 2.5999999 0.621619523 0.899855614
v 2.4666667 0.621619523 0.899855614
v 2.33333325 0.621619523 0.899855614
v 2.20000005 0.621619523 0.899855614
v 2.0666666 0.621619523 0.899855614
v 1.93333328 0.621619523 0.899855614
v 1.79999995 0.621619523 0.899855614
v 1.66666663 0.621619523 0.899855614
v 1.5333333 0.621619523 0.899855614
v 1.39999998 0.621619523 0.899855614
v 1.26666665 0.621619523 0.899855614
v 1.13333333 0.621619523 0.899855614
v 1 0.621619523 0.899855614
v 0.866666675 0.621619523 0.899855614
v 0.733333349 0.621619523 0.899855614
v 0.600000024 0.621619523 0.899855614
v 0.466666669 0.621619523 0.899855614
v 0.333333343 0.621619523 0.899855614
v 0.200000003 0.621619523 0.899855614
v 0.0666666701 0.621619523 0.899855614
v -0.0666666701 0.621619523 0.899855614
v -0.200000003 0.621619523 0.899855614
v -2.33333325 0.748233438 0.934919536
v -2.4666667 0.748233438 0.934919536
v -2.5999999 0.748233438 0.934919536
v -2.73333335 0.748233438 0.934919536
v -2.86666656 0.748234034 0.934919715
v -3 0.748238802 0.934921026
v 3 0.748238802 0.934921026
v 2.86666656 0.748234034 0.934919715
v 2.73333335 0.748233438 0.934919536
v 2.5999999 0.748233438 0.934919536
v 2.4666667 0.748233438 0.934919536
v 2.33333325 0.748233438 0.934919536
v 2.20000005 0.748233438 0.934919536
v 2.0666666 0.748233438 0.934919536
v 1.93333328 0.748233438 0.934919536
v 1.79999995 0.748233438 0.934919536
v 1.66666663 0.748233438 0.934919536
v 1.5333333 0.748233438 0.934919536
v 1.39999998 0.748233438 0.934919536
v 1.26666665 0.748233438 0.934919536
v 1.13333333 0.748233438 0.934919536
v 1 0.748233438 0.934919536
v 0.866666675 0.748233438 0.934919536
v 0.733333349 0.748233438 0.934919536
v 0.600000024 0.748233438 0.934919536
v 0.466666669 0.748233438 0.934919536
v 0.333333343 0.748233438 0.934919536
v 0.200000003 0.748233438 0.934919536
v 0.0666666701 0.748233438 0.934919536
v -0.0666666701 0.748233438 0.934919536
v -0.200000003 0.748233438 0.934919536
v -0.333333343 0.748233438 0.934919536
v -0.466666669 0.748233438 0.934919536
v -0.600000024 0.748233438 0.934919536
v -0.733333349 0.748233438 0.934919536
v -0.866666675 0.748233438 0.934919536
v -1 0.748233438 0.934919536
v -1.13333333 0.748233438 0.934919536
v -1.26666665 0.748233438 0.934919536
v -1.39999998 0.748233438 0.934919536
v -1.5333333 0.748233438 0.934919536
v -1.66666663 0.748233438 0.934919536
v -1.79999995 0.748233438 0.934919536
v -1.93333328 0.748233438 0.934919536
v -2.0666666 0.748233438 0.934919536
v -2.20000005 0.748233438 0.934919536
v 1.5333333 0.876504958 0.963269532
v 1.39999998 0.876504958 0.963269532
v 1.26666665 0.876504958 0.963269532
v 1.13333333 0.876504958 0.963269532
v 1 0.876504958 0.963269532
v 0.866666675 0.876504958 0.963269532
v 0.733333349 0.876504958 0.963269532
v 0.600000024 0.876504958 0.963269532
v 0.466666669 0.876504958 0.963269532
v 0.333333343 0.876504958 0.963269532
v 0.200000003 0.876504958 0.963269532
v 0.0666666701 0.876504958 0.963269532
v -0.0666666701 0.876504958 0.963269532
v -0.200000003 0.876504958 0.963269532
v -0.333333343 0.876504958 0.963269532
v -0.466666669 0.876504958 0.963269532
v -0.600000024 0.876504958 0.963269532
v -0.733333349 0.876504958 0.963269532
v -0.866666675 0.876504958 0.963269532
v -1 0.876504958 0.963269532
v -1.13333333 0.876504958 0.963269532
v -1.26666665 0.876504958 0.963269532
v -1.39999998 0.876504958 0.963269532
v -1.5333333 0.876504958 0.963269532
v -1.66666663 0.876504958 0.963269532
v -1.79999995 0.876504958 0.963269532
v -1.93333328 0.876504958 0.963269532
v -2.0666666 0.876504958 0.963269532
v -2.20000005 0.876504958 0.963269532
v -2.33333325 0.876504958 0.963269532
v -2.4666667 0.876504958 0.963269532
v -2.5999999 0.876504958 0.963269532
v -2.73333335 0.876504958 0.963269532
v -2.86666656 0.876505077 0.963269591
v -3 0.876505435 0.963269651
v 3 0.876505435 0.963269651
v 2.86666656 0.876505077 0.963269591
v 2.73333335 0.876504958 0.963269532
v 2.5999999 0.876504958 0.963269532
v 2.4666667 0.876504958 0.963269532
v 2.33333325 0.876504958 0.963269532
v 2.20000005 0.876504958 0.963269532
v 2.0666666 0.876504958 0.963269532
v 1.93333328 0.876504958 0.963269532
v 1.79999995 0.876504958 0.963269532
v 1.66666663 0.876504958 0.963269532
v -0.600000024 1.00635445 0.983170092
v -0.733333349 1.00635445 0.983170092
v -0.866666675 1.00635445 0.983170092
v -1 1.00635445 0.983170092
v -1.13333333 1.00635445 0.983170092
v -1.26666665 1.00635445 0.983170092
v -1.39999998 1.00635445 0.983170092
v -1.5333333 1.00635445 0.983170092
v -1.66666663 1.00635445 0.983170092
v -1.79999995 1.00635445 0.983170092
v -1.93333328 1.00635445 0.983170092
v -2.0666666 1.00635445 0.983170092
v -2.20000005 1.00635445 0.983170092
v -2.33333325 1.00635445 0.983170092
v -2.4666667 1.00635445 0.983170092
v -2.5999999 1.00635445 0.983170092
v -2.73333335 1.00635445 0.983170092
v -2.86666656 1.00635409 0.983170033
v -3 1.00635004 0.983169734
v 3 1.00635004 0.983169734
v 2.86666656 1.00635409 0.983170033
v 2.73333335 1.00635445 0.983170092
v 2.5999999 1.00635445 0.983170092
v 2.4666667 1.00635445 0.983170092
v 2.33333325 1.00635445 0.983170092
v 2.20000005 1.00635445 0.983170092
v 2.0666666 1.00635445 0.983170092
v 1.93333328 1.00635445 0.983170092
v 1.79999995 1.00635445 0.983170092
v 1.66666663 1.00635445 0.983170092
v 1.5333333 1.00635445 0.983170092
v 1.39999998 1.00635445 0.983170092
v 1.26666665 1.00635445 0.983170092
v 1.13333333 1.00635445 0.983170092
v 1 1.00635445 0.983170092
v 0.866666675 1.00635445 0.983170092
v 0.733333349 1.00635445 0.983170092
v 0.600000024 1.00635445 0.983170092
v 0.466666669 1.00635445 0.983170092
v 0.333333343 1.00635445 0.983170092
v 0.200000003 1.00635445 0.983170092
v 0.0666666701 1.00635445 0.983170092
v -0.0666666701 1.00635445 0.983170092
v -0.200000003 1.00635445 0.983170092
v -0.333333343 1.00635445 0.983170092
v -0.466666669 1.00635445 0.983170092
v -2.73333335 1.13731384 0.99363786
v -2.86666656 1.1373136 0.99363786
v -3 1.13731027 0.993637741
v 3 1.13731027 0.993637741
v 2.86666656 1.1373136 0.99363786
v 2.73333335 1.13731384 0.99363786
v 2.5999999 1.13731384 0.99363786
v 2.4666667 1.13731384 0.99363786
v 2.33333325 1.13731384 0.99363786
v 2.20000005 1.13731384 0.99363786
v 2.0666666 1.13731384 0.99363786
v 1.93333328 1.13731384 0.99363786
v 1.79999995 1.13731384 0.99363786
v 1.66666663 1.13731384 0.99363786
v 1.5333333 1.13731384 0.99363786
v 1.39999998 1.13731384 0.99363786
v 1.26666665 1.13731384 0.99363786
v 1.13333333 1.13731384 0.99363786
v 1 1.13731384 0.99363786
v 0.866666675 1.13731384 0.99363786
v 0.733333349 1.13731384 0.99363786
v 0.600000024 1.13731384 0.99363786
v 0.466666669 1.13731384 0.99363786
v 0.333333343 1.13731384 0.99363786
v 0.200000003 1.13731384 0.99363786
v 0.0666666701 1.13731384 0.99363786
v -0.0666666701 1.13731384 0.99363786
v -0.200000003 1.13731384 0.99363786
v -0.333333343 1.13731384 0.99363786
v -0.466666669 1.13731384 0.99363786
v -0.600000024 1.13731384 0.99363786
v -0.733333349 1.13731384 0.99363786
v -0.866666675 1.13731384 0.99363786
v -1 1.13731384 0.99363786
v -1.13333333 1.13731384 0.99363786
v -1.26666665 1.13731384 0.99363786
v -1.39999998 1.13731384 0.99363786
v -1.5333333 1.13731384 0.99363786
v -1.66666663 1.13731384 0.99363786
v -1.79999995 1.13731384 0.99363786
v -1.93333328 1.13731384 0.99363786
v -2.0666666 1.13731384 0.99363786
v -2.20000005 1.13731384 0.99363786
v -2.33333325 1.13731384 0.99363786
v -2.4666667 1.13731384 0.99363786
v -2.5999999 1.13731384 0.99363786
v 1.26666665 1.26861382 0.99846524
v 1.13333333 1.26861382 0.99846524
v 1 1.26861382 0.99846524
v 0.866666675 1.26861382 0.99846524
v 0.733333349 1.26861382 0.99846524
v 0.600000024 1.26861382 0.99846524
v 0.466666669 1.26861382 0.99846524
v 0.333333343 1.26861382 0.99846524
v 0.200000003 1.26861382 0.99846524
v 0.0666666701 1.26861382 0.99846524
v -0.0666666701 1.26861382 0.99846524
v -0.200000003 1.26861382 0.99846524
v -0.333333343 1.26861382 0.99846524
v -0.466666669 1.26861382 0.99846524
v -0.600000024 1.26861382 0.99846524
v -0.733333349 1.26861382 0.99846524
v -0.866666675 1.26861382 0.99846524
v -1 1.26861382 0.99846524
v -1.13333333 1.26861382 0.99846524
v -1.26666665 1.26861382 0.99846524
v -1.39999998 1.26861382 0.99846524
v -1.5333333 1.26861382 0.99846524
v -1.66666663 1.26861382 0.99846524
v -1.79999995 1.26861382 0.99846524
v -1.93333328 1.26861382 0.99846524
v -2.0666666 1.26861382 0.99846524
v -2.20000005 1.26861382 0.99846524
v -2.33333325 1.26861382 0.99846524
v -2.4666667 1.26861382 0.99846524
v -2.5999999 1.26861382 0.99846524
v -2.73333335 1.2686137 0.99846524
v -2.86666656 1.26861346 0.99846524
v -3 1.26861155 0.99846524
v 3 1.26861155 0.99846524
v 2.86666656 1.26861346 0.99846524
v 2.73333335 1.2686137 0.99846524
v 2.5999999 1.26861382 0.99846524
v 2.4666667 1.26861382 0.99846524
v 2.33333325 1.26861382 0.99846524
v 2.20000005 1.26861382 0.99846524
v 2.0666666 1.26861382 0.99846524
v 1.93333328 1.26861382 0.99846524
v 1.79999995 1.26861382 0.99846524
v 1.66666663 1.26861382 0.99846524
v 1.5333333 1.26861382 0.99846524
v 1.39999998 1.26861382 0.99846524
v -0.866666675 1.39999998 1
v -1 1.39999998 1
v -1.13333333 1.39999998 1
v -1.26666665 1.39999998 1
v -1.39999998 1.39999998 1
v -1.5333333 1.39999998 1
v -1.66666663 1.39999998 1
v -1.79999995 1.39999998 1
v -1.93333328 1.39999998 1
v -2.0666666 1.39999998 1
v -2.20000005 1.39999998 1
v -2.33333325 1.39999998 1
v -2.4666667 1.39999998 1
v -2.5999999 1.39999998 1
v -2.73333335 1.39999998 1
v -2.86666656 1.39999998 1
v -3 1.39999998 1
v 3 1.39999998 1
v 2.86666656 1.39999998 1
v 2.73333335 1.39999998 1
v 2.5999999 1.39999998 1
v 2.4666667 1.39999998 1
v 2.33333325 1.39999998 1
v 2.20000005 1.39999998 1
v 2.0666666 1.39999998 1
v 1.93333328 1.39999998 1
v 1.79999995 1.39999998 1
v 1.66666663 1.39999998 1
v 1.5333333 1.39999998 1
v 1.39999998 1.39999998 1
v 1.26666665 1.39999998 1
v 1.13333333 1.39999998 1
v 1 1.39999998 1
v 0.866666675 1.39999998 1
v 0.733333349 1.39999998 1
v 0.600000024 1.39999998 1
v 0.466666669 1.39999998 1
v 0.333333343 1.39999998 1
v 0.200000003 1.39999998 1
v 0.0666666701 1.39999998 1
v -0.0666666701 1.39999998 1
v -0.200000003 1.39999998 1
v -0.333333343 1.39999998 1
v -0.466666669 1.39999998 1
v -0.600000024 1.39999998 1
v -0.733333349 1.39999998 1
g 
f 1 4 3 2
f 5 8 7 6
f 5 11 10 9
f 5 6 12 11
f 5 9 13 8
f 6 7 15 14
f 6 14 16 12
f 14 15 18 17
f 14 17 19 16
f 17 18 21 20
f 17 20 22 19
f 20 21 24 23
f 20 23 25 22
f 23 24 27 26
f 23 26 28 25
f 26 27 30 29
f 26 29 31 28
f 29 30 33 32
f 29 32 34 31
f 32 33 36 35
f 32 35 37 34
f 35 36 39 38
f 35 38 40 37
f 38 39 42 41
f 38 41 43 40
f 41 42 45 44
f 41 44 46 43
f 44 45 48 47
f 44 47 49 46
f 47 48 51 50
f 47 50 52 49
f 50 51 54 53
f 50 53 55 52
f 53 54 57 56
f 53 56 58 55
f 56 57 60 59
f 56 59 61 58
f 59 60 63 62
f 59 62 64 61
f 62 63 66 65
f 62 65 67 64
f 65 66 69 68
f 65 68 70 67
f 68 69 72 71
f 68 71 73 70
f 71 72 75 74
f 71 74 76 73
f 74 75 78 77
f 74 77 79 76
f 77 78 81 80
f 77 80 82 79
f 80 81 84 83
f 80 83 85 82
f 83 84 87 86
f 83 86 88 85
f 86 87 90 89
f 86 89 91 88
f 89 90 93 92
f 89 92 94 91
f 92 93 96 95
f 92 95 97 94
f 2 3 99 98
f 3 4 101 100
f 3 100 102 99
f 100 101 104 103
f 100 103 105 102
f 103 104 107 106
f 103 106 108 105
f 106 107 110 109
f 106 109 111 108
f 109 110 113 112
f 109 112 114 111
f 112 113 116 115
f 112 115 117 114
f 115 116 119 118
f 115 118 120 117
f 118 119 122 121
f 118 121 123 120
f 121 122 125 124
f 121 124 126 123
f 124 125 128 127
f 124 127 129 126
f 127 128 131 130
f 127 130 132 129
f 130 131 134 133
f 130 133 135 132
f 133 134 137 136
f 133 136 138 135
f 136 137 13 9
f 136 9 10 138
f 58 140 139 55
f 58 61 141 140
f 61 64 142 141
f 64 67 143 142
f 67 70 144 143
f 70 73 145 144
f 73 76 146 145
f 76 79 147 146
f 79 82 148 147
f 82 85 149 148
f 85 88 150 149
f 88 91 151 150
f 91 94 152 151
f 94 97 153 152
f 98 99 155 154
f 99 102 156 155
f 102 105 157 156
f 105 108 158 157
f 108 111 159 158
f 111 114 160 159
f 114 117 161 160
f 117 120 162 161
f 120 123 163 162
f 123 126 164 163
f 126 129 165 164
f 129 132 166 165
f 132 135 167 166
f 135 138 168 167
f 138 10 169 168
f 10 11 170 169
f 11 12 171 170
f 12 16 172 171
f 16 19 173 172
f 19 22 174 173
f 22 25 175 174
f 25 28 176 175
f 28 31 177 176
f 31 34 178 177
f 34 37 179 178
f 37 40 180 179
f 40 43 181 180
f 43 46 182 181
f 46 49 183 182
f 49 52 184 183
f 52 55 139 184
f 156 186 185 155
f 156 157 187 186
f 157 158 188 187
f 158 159 189 188
f 159 160 190 189
f 160 161 191 190
f 161 162 192 191
f 162 163 193 192
f 163 164 194 193
f 164 165 195 194
f 165 166 196 195
f 166 167 197 196
f 167 168 198 197
f 168 169 199 198
f 169 170 200 199
f 170 171 201 200
f 171 172 202 201
f 172 173 203 202
f 173 174 204 203
f 174 175 205 204
f 175 176 206 205
f 176 177 207 206
f 177 178 208 207
f 178 179 209 208
f 179 180 210 209
f 180 181 211 210
f 181 182 212 211
f 182 183 213 212
f 183 184 214 213
f 184 139 215 214
f 139 140 216 215
f 140 141 217 216
f 141 142 218 217
f 142 143 219 218
f 143 144 220 219
f 144 145 221 220
f 145 146 222 221
f 146 147 223 222
f 147 148 224 223
f 148 149 225 224
f 149 150 226 225
f 150 151 227 226
f 151 152 228 227
f 152 153 229 228
f 154 155 185 230
f 202 232 231 201
f 202 203 233 232
f 203 204 234 233
f 204 205 235 234
f 205 206 236 235
f 206 207 237 236
f 207 208 238 237
f 208 209 239 238
f 209 210 240 239
f 210 211 241 240
f 211 212 242 241
f 212 213 243 242
f 213 214 244 243
f 214 215 245 244
f 215 216 246 245
f 216 217 247 246
f 217 218 248 247
f 218 219 249 248
f 219 220 250 249
f 220 221 251 250
f 221 222 252 251
f 222 223 253 252
f 223 224 254 253
f 224 225 255 254
f 225 226 256 255
f 226 227 257 256
f 227 228 258 257
f 228 229 259 258
f 230 185 261 260
f 185 186 262 261
f 186 187 263 262
f 187 188 264 263
f 188 189 265 264
f 189 190 266 265
f 190 191 267 266
f 191 192 268 267
f 192 193 269 268
f 193 194 270 269
f 194 195 271 270
f 195 196 272 271
f 196 197 273 272
f 197 198 274 273
f 198 199 275 274
f 199 200 276 275
f 200 201 231 276
f 248 278 277 247
f 248 249 279 278
f 249 250 280 279
f 250 251 281 280
f 251 252 282 281
f 252 253 283 282
f 253 254 284 283
f 254 255 285 284
f 255 256 286 285
f 256 257 287 286
f 257 258 288 287
f 258 259 289 288
f 260 261 291 290
f 261 262 292 291
f 262 263 293 292
f 263 264 294 293
f 264 265 295 294
f 265 266 296 295
f 266 267 297 296
f 267 268 298 297
f 268 269 299 298
f 269 270 300 299
f 270 271 301 300
f 271 272 302 301
f 272 273 303 302
f 273 274 304 303
f 274 275 305 304
f 275 276 306 305
f 276 231 307 306
f 231 232 308 307
f 232 233 309 308
f 233 234 310 309
f 234 235 311 310
f 235 236 312 311
f 236 237 313 312
f 237 238 314 313
f 238 239 315 314
f 239 240 316 315
f 240 241 317 316
f 241 242 318 317
f 242 243 319 318
f 243 244 320 319
f 244 245 321 320
f 245 246 322 321
f 246 247 277 322
f 294 324 323 293
f 294 295 325 324
f 295 296 326 325
f 296 297 327 326
f 297 298 328 327
f 298 299 329 328
f 299 300 330 329
f 300 301 331 330
f 301 302 332 331
f 302 303 333 332
f 303 304 334 333
f 304 305 335 334
f 305 306 336 335
f 306 307 337 336
f 307 308 338 337
f 308 309 339 338
f 309 310 340 339
f 310 311 341 340
f 311 312 342 341
f 312 313 343 342
f 313 314 344 343
f 314 315 345 344
f 315 316 346 345
f 316 317 347 346
f 317 318 348 347
f 318 319 349 348
f 319 320 350 349
f 320 321 351 350
f 321 322 352 351
f 322 277 353 352
f 277 278 354 353
f 278 279 355 354
f 279 280 356 355
f 280 281 357 356
f 281 282 358 357
f 282 283 359 358
f 283 284 360 359
f 284 285 361 360
f 285 286 362 361
f 286 287 363 362
f 287 288 364 363
f 288 289 365 364
f 290 291 367 366
f 291 292 368 367
f 292 293 323 368
f 340 370 369 339
f 340 341 371 370
f 341 342 372 371
f 342 343 373 372
f 343 344 374 373
f 344 345 375 374
f 345 346 376 375
f 346 347 377 376
f 347 348 378 377
f 348 349 379 378
f 349 350 380 379
f 350 351 381 380
f 351 352 382 381
f 352 353 383 382
f 353 354 384 383
f 354 355 385 384
f 355 356 386 385
f 356 357 387 386
f 357 358 388 387
f 358 359 389 388
f 359 360 390 389
f 360 361 391 390
f 361 362 392 391
f 362 363 393 392
f 363 364 394 393
f 364 365 395 394
f 366 367 397 396
f 367 368 398 397
f 368 323 399 398
f 323 324 400 399
f 324 325 401 400
f 325 326 402 401
f 326 327 403 402
f 327 328 404 403
f 328 329 405 404
f 329 330 406 405
f 330 331 407 406
f 331 332 408 407
f 332 333 409 408
f 333 334 410 409
f 334 335 411 410
f 335 336 412 411
f 336 337 413 412
f 337 338 414 413
f 338 339 369 414
f 386 416 415 385
f 386 387 417 416
f 387 388 418 417
f 388 389 419 418
f 389 390 420 419
f 390 391 421 420
f 391 392 422 421
f 392 393 423 422
f 393 394 424 423
f 394 395 425 424
f 396 397 427 426
f 397 398 428 427
f 398 399 429 428
f 399 400 430 429
f 400 401 431 430
f 401 402 432 431
f 402 403 433 432
f 403 404 434 433
f 404 405 435 434
f 405 406 436 435
f 406 407 437 436
f 407 408 438 437
f 408 409 439 438
f 409 410 440 439
f 410 411 441 440
f 411 412 442 441
f 412 413 443 442
f 413 414 444 443
f 414 369 445 444
f 369 370 446 445
f 370 371 447 446
f 371 372 448 447
f 372 373 449 448
f 373 374 450 449
f 374 375 451 450
f 375 376 452 451
f 376 377 453 452
f 377 378 454 453
f 378 379 455 454
f 379 380 456 455
f 380 381 457 456
f 381 382 458 457
f 382 383 459 458
f 383 384 460 459
f 384 385 415 460
f 432 462 461 431
f 432 433 463 462
f 433 434 464 463
f 434 435 465 464
f 435 436 466 465
f 436 437 467 466
f 437 438 468 467
f 438 439 469 468
f 439 440 470 469
f 440 441 471 470
f 441 442 472 471
f 442 443 473 472
f 443 444 474 473
f 444 445 475 474
f 445 446 476 475
f 446 447 477 476
f 447 448 478 477
f 448 449 479 478
f 449 450 480 479
f 450 451 481 480
f 451 452 482 481
f 452 453 483 482
f 453 454 484 483
f 454 455 485 484
f 455 456 486 485
f 456 457 487 486
f 457 458 488 487
f 458 459 489 488
f 459 460 490 489
f 460 415 491 490
f 415 416 492 491
f 416 417 493 492
f 417 418 494 493
f 418 419 495 494
f 419 420 496 495
f 420 421 497 496
f 421 422 498 497
f 422 423 499 498
f 423 424 500 499
f 424 425 501 500
f 426 427 503 502
f 427 428 504 503
f 428 429 505 504
f 429 430 506 505
f 430 431 461 506
f 478 508 507 477
f 478 479 509 508
f 479 480 510 509
f 480 481 511 510
f 481 482 512 511
f 482 483 513 512
f 483 484 514 513
f 484 485 515 514
f 485 486 516 515
f 486 487 517 516
f 487 488 518 517
f 488 489 519 518
f 489 490 520 519
f 490 491 521 520
f 491 492 522 521
f 492 493 523 522
f 493 494 524 523
f 494 495 525 524
f 495 496 526 525
f 496 497 527 526
f 497 498 528 527
f 498 499 529 528
f 499 500 530 529
f 500 501 531 530
f 502 503 533 532
f 503 504 534 533
f 504 505 535 534
f 505 506 536 535
f 506 461 537 536
f 461 462 538 537
f 462 463 539 538
f 463 464 540 539
f 464 465 541 540
f 465 466 542 541
f 466 467 543 542
f 467 468 544 543
f 468 469 545 544
f 469 470 546 545
f 470 471 547 546
f 471 472 548 547
f 472 473 549 548
f 473 474 550 549
f 474 475 551 550
f 475 476 552 551
f 476 477 507 552
f 523 554 553 522
f 523 524 555 554
f 524 525 556 555
f 525 526 557 556
f 526 527 558 557
f 527 528 559 558
f 528 529 560 559
f 529 530 561 560
f 530 531 562 561
f 532 533 564 563
f 533 534 565 564
f 534 535 566 565
f 535 536 567 566
f 536 537 568 567
f 537 538 569 568
f 538 539 570 569
f 539 540 571 570
f 540 541 572 571
f 541 542 573 572
f 542 543 574 573
f 543 544 575 574
f 544 545 576 575
f 545 546 577 576
f 546 547 578 577
f 547 548 579 578
f 548 549 580 579
f 549 550 581 580
f 550 551 582 581
f 551 552 583 582
f 552 507 584 583
f 507 508 585 584
f 508 509 586 585
f 509 510 587 586
f 510 511 588 587
f 511 512 589 588
f 512 513 590 589
f 513 514 591 590
f 514 515 592 591
f 515 516 593 592
f 516 517 594 593
f 517 518 595 594
f 518 519 596 595
f 519 520 597 596
f 520 521 598 597
f 521 522 553 598
f 571 600 599 570
f 571 572 601 600
f 572 573 602 601
f 573 574 603 602
f 574 575 604 603
f 575 576 605 604
f 576 577 606 605
f 577 578 607 606
f 578 579 608 607
f 579 580 609 608
f 580 581 610 609
f 581 582 611 610
f 582 583 612 611
f 583 584 613 612
f 584 585 614 613
f 585 586 615 614
f 586 587 616 615
f 587 588 617 616
f 588 589 618 617
f 589 590 619 618
f 590 591 620 619
f 591 592 621 620
f 592 593 622 621
f 593 594 623 622
f 594 595 624 623
f 595 596 625 624
f 596 597 626 625
f 597 598 627 626
f 598 553 628 627
f 553 554 629 628
f 554 555 630 629
f 555 556 631 630
f 556 557 632 631
f 557 558 633 632
f 558 559 634 633
f 559 560 635 634
f 560 561 636 635
f 561 562 637 636
f 563 564 639 638
f 564 565 640 639
f 565 566 641 640
f 566 567 642 641
f 567 568 643 642
f 568 569 644 643
f 569 570 599 644
f 616 646 645 615
f 616 617 647 646
f 617 618 648 647
f 618 619 649 648
f 619 620 650 649
f 620 621 651 650
f 621 622 652 651
f 622 623 653 652
f 623 624 654 653
f 624 625 655 654
f 625 626 656 655
f 626 627 657 656
f 627 628 658 657
f 628 629 659 658
f 629 630 660 659
f 630 631 661 660
f 631 632 662 661
f 632 633 663 662
f 633 634 664 663
f 634 635 665 664
f 635 636 666 665
f 636 637 667 666
f 638 639 669 668
f 639 640 670 669
f 640 641 671 670
f 641 642 672 671
f 642 643 673 672
f 643 644 674 673
f 644 599 675 674
f 599 600 676 675
f 600 601 677 676
f 601 602 678 677
f 602 603 679 678
f 603 604 680 679
f 604 605 681 680
f 605 606 682 681
f 606 607 683 682
f 607 608 684 683
f 608 609 685 684
f 609 610 686 685
f 610 611 687 686
f 611 612 688 687
f 612 613 689 688
f 613 614 690 689
f 614 615 645 690
f 662 692 691 661
f 662 663 693 692
f 663 664 694 693
f 664 665 695 694
f 665 666 696 695
f 666 667 697 696
f 668 669 699 698
f 669 670 700 699
f 670 671 701 700
f 671 672 702 701
f 672 673 703 702
f 673 674 704 703
f 674 675 705 704
f 675 676 706 705
f 676 677 707 706
f 677 678 708 707
f 678 679 709 708
f 679 680 710 709
f 680 681 711 710
f 681 682 712 711
f 682 683 713 712
f 683 684 714 713
f 684 685 715 714
f 685 686 716 715
f 686 687 717 716
f 687 688 718 717
f 688 689 719 718
f 689 690 720 719
f 690 645 721 720
f 645 646 722 721
f 646 647 723 722
f 647 648 724 723
f 648 649 725 724
f 649 650 726 725
f 650 651 727 726
f 651 652 728 727
f 652 653 729 728
f 653 654 730 729
f 654 655 731 730
f 655 656 732 731
f 656 657 733 732
f 657 658 734 733
f 658 659 735 734
f 659 660 736 735
f 660 661 691 736
f 709 738 737 708
f 709 710 739 738
f 710 711 740 739
f 711 712 741 740
f 712 713 742 741
f 713 714 743 742
f 714 715 744 743
f 715 716 745 744
f 716 717 746 745
f 717 718 747 746
f 718 719 748 747
f 719 720 749 748
f 720 721 750 749
f 721 722 751 750
f 722 723 752 751
f 723 724 753 752
f 724 725 754 753
f 725 726 755 754
f 726 727 756 755
f 727 728 757 756
f 728 729 758 757
f 729 730 759 758
f 730 731 760 759
f 731 732 761 760
f 732 733 762 761
f 733 734 763 762
f 734 735 764 763
f 735 736 765 764
f 736 691 766 765
f 691 692 767 766
f 692 693 768 767
f 693 694 769 768
f 694 695 770 769
f 695 696 771 770
f 696 697 772 771
f 698 699 774 773
f 699 700 775 774
f 700 701 776 775
f 701 702 777 776
f 702 703 778 777
f 703 704 779 778
f 704 705 780 779
f 705 706 781 780
f 706 707 782 781
f 707 708 737 782
f 753 784 783 752
f 753 754 785 784
f 754 755 786 785
f 755 756 787 786
f 756 757 788 787
f 757 758 789 788
f 758 759 790 789
f 759 760 791 790
f 760 761 792 791
f 761 762 793 792
f 762 763 794 793
f 763 764 795 794
f 764 765 796 795
f 765 766 797 796
f 766 767 798 797
f 767 768 799 798
f 768 769 800 799
f 769 770 801 800
f 770 771 802 801
f 771 772 803 802
f 773 774 805 804
f 774 775 806 805
f 775 776 807 806
f 776 777 808 807
f 777 778 809 808
f 778 779 810 809
f 779 780 811 810
f 780 781 812 811
f 781 782 813 812
f 782 737 814 813
f 737 738 815 814
f 738 739 816 815
f 739 740 817 816
f 740 741 818 817
f 741 742 819 818
f 742 743 820 819
f 743 744 821 820
f 744 745 822 821
f 745 746 823 822
f 746 747 824 823
f 747 748 825 824
f 748 749 826 825
f 749 750 827 826
f 750 751 828 827
f 751 752 783 828
f 799 830 829 798
f 799 800 831 830
f 800 801 832 831
f 801 802 833 832
f 802 803 834 833
f 804 805 836 835
f 805 806 837 836
f 806 807 838 837
f 807 808 839 838
f 808 809 840 839
f 809 810 841 840
f 810 811 842 841
f 811 812 843 842
f 812 813 844 843
f 813 814 845 844
f 814 815 846 845
f 815 816 847 846
f 816 817 848 847
f 817 818 849 848
f 818 819 850 849
f 819 820 851 850
f 820 821 852 851
f 821 822 853 852
f 822 823 854 853
f 823 824 855 854
f 824 825 856 855
f 825 826 857 856
f 826 827 858 857
f 827 828 859 858
f 828 783 860 859
f 783 784 861 860
f 784 785 862 861
f 785 786 863 862
f 786 787 864 863
f 787 788 865 864
f 788 789 866 865
f 789 790 867 866
f 790 791 868 867
f 791 792 869 868
f 792 793 870 869
f 793 794 871 870
f 794 795 872 871
f 795 796 873 872
f 796 797 874 873
f 797 798 829 874
f 847 876 875 846
f 847 848 877 876
f 848 849 878 877
f 849 850 879 878
f 850 851 880 879
f 851 852 881 880
f 852 853 882 881
f 853 854 883 882
f 854 855 884 883
f 855 856 885 884
f 856 857 886 885
f 857 858 887 886
f 858 859 888 887
f 859 860 889 888
f 860 861 890 889
f 861 862 891 890
f 862 863 892 891
f 863 864 893 892
f 864 865 894 893
f 865 866 895 894
f 866 867 896 895
f 867 868 897 896
f 868 869 898 897
f 869 870 899 898
f 870 871 900 899
f 871 872 901 900
f 872 873 902 901
f 873 874 903 902
f 874 829 904 903
f 829 830 905 904
f 830 831 906 905
f 831 832 907 906
f 832 833 908 907
f 833 834 909 908
f 835 836 911 910
f 836 837 912 911
f 837 838 913 912
f 838 839 914 913
f 839 840 915 914
f 840 841 916 915
f 841 842 917 916
f 842 843 918 917
f 843 844 919 918
f 844 845 920 919
f 845 846 875 920
f 892 922 921 891
f 892 893 923 922
f 893 894 924 923
f 894 895 925 924
f 895 896 926 925
f 896 897 927 926
f 897 898 928 927
f 898 899 929 928
f 899 900 930 929
f 900 901 931 930
f 901 902 932 931
f 902 903 933 932
f 903 904 934 933
f 904 905 935 934
f 905 906 936 935
f 906 907 937 936
f 907 908 938 937
f 908 909 939 938
f 910 911 941 940
f 911 912 942 941
f 912 913 943 942
f 913 914 944 943
f 914 915 945 944
f 915 916 946 945
f 916 917 947 946
f 917 918 948 947
f 918 919 949 948
f 919 920 950 949
f 920 875 951 950
f 875 876 952 951
f 876 877 953 952
f 877 878 954 953
f 878 879 955 954
f 879 880 956 955
f 880 881 957 956
f 881 882 958 957
f 882 883 959 958
f 883 884 960 959
f 884 885 961 960
f 885 886 962 961
f 886 887 963 962
f 887 888 964 963
f 888 889 965 964
f 889 890 966 965
f 890 891 921 966
f 938 968 967 937
f 938 939 969 968
f 940 941 971 970
f 941 942 972 971
f 942 943 973 972
f 943 944 974 973
f 944 945 975 974
f 945 946 976 975
f 946 947 977 976
f 947 948 978 977
f 948 949 979 978
f 949 950 980 979
f 950 951 981 980
f 951 952 982 981
f 952 953 983 982
f 953 954 984 983
f 954 955 985 984
f 955 956 986 985
f 956 957 987 986
f 957 958 988 987
f 958 959 989 988
f 959 960 990 989
f 960 961 991 990
f 961 962 992 991
f 962 963 993 992
f 963 964 994 993
f 964 965 995 994
f 965 966 996 995
f 966 921 997 996
f 921 922 998 997
f 922 923 999 998
f 923 924 1000 999
f 924 925 1001 1000
f 925 926 1002 1001
f 926 927 1003 1002
f 927 928 1004 1003
f 928 929 1005 1004
f 929 930 1006 1005
f 930 931 1007 1006
f 931 932 1008 1007
f 932 933 1009 1008
f 933 934 1010 1009
f 934 935 1011 1010
f 935 936 1012 1011
f 936 937 967 1012
f 984 1014 1013 983
f 984 985 1015 1014
f 985 986 1016 1015
f 986 987 1017 1016
f 987 988 1018 1017
f 988 989 1019 1018
f 989 990 1020 1019
f 990 991 1021 1020
f 991 992 1022 1021
f 992 993 1023 1022
f 993 994 1024 1023
f 994 995 1025 1024
f 995 996 1026 1025
f 996 997 1027 1026
f 997 998 1028 1027
f 998 999 1029 1028
f 999 1000 1030 1029
f 1000 1001 1031 1030
f 1001 1002 1032 1031
f 1002 1003 1033 1032
f 1003 1004 1034 1033
f 1004 1005 1035 1034
f 1005 1006 1036 1035
f 1006 1007 1037 1036
f 1007 1008 1038 1037
f 1008 1009 1039 1038
f 1009 1010 1040 1039
f 1010 1011 1041 1040
f 1011 1012 1042 1041
f 1012 967 1043 1042
f 967 968 1044 1043
f 968 969 1045 1044
f 970 971 1047 1046
f 971 972 1048 1047
f 972 973 1049 1048
f 973 974 1050 1049
f 974 975 1051 1050
f 975 976 1052 1051
f 976 977 1053 1052
f 977 978 1054 1053
f 978 979 1055 1054
f 979 980 1056 1055
f 980 981 1057 1056
f 981 982 1058 1057
f 982 983 1013 1058
f 1030 1060 1059 1029
f 1030 1031 1061 1060
f 1031 1032 1062 1061
f 1032 1033 1063 1062
f 1033 1034 1064 1063
f 1034 1035 1065 1064
f 1035 1036 1066 1065
f 1036 1037 1067 1066
f 1037 1038 1068 1067
f 1038 1039 1069 1068
f 1039 1040 1070 1069
f 1040 1041 1071 1070
f 1041 1042 1072 1071
f 1042 1043 1073 1072
f 1043 1044 1074 1073
f 1044 1045 1075 1074
f 1046 1047 1077 1076
f 1047 1048 1078 1077
f 1048 1049 1079 1078
f 1049 1050 1080 1079
f 1050 1051 1081 1080
f 1051 1052 1082 1081
f 1052 1053 1083 1082
f 1053 1054 1084 1083
f 1054 1055 1085 1084
f 1055 1056 1086 1085
f 1056 1057 1087 1086
f 1057 1058 1088 1087
f 1058 1013 1089 1088
f 1013 1014 1090 1089
f 1014 1015 1091 1090
f 1015 1016 1092 1091
f 1016 1017 1093 1092
f 1017 1018 1094 1093
f 1018 1019 1095 1094
f 1019 1020 1096 1095
f 1020 1021 1097 1096
f 1021 1022 1098 1097
f 1022 1023 1099 1098
f 1023 1024 1100 1099
f 1024 1025 1101 1100
f 1025 1026 1102 1101
f 1026 1027 1103 1102
f 1027 1028 1104 1103
f 1028 1029 1059 1104
